<svg width="572" height="400" viewBox="0 0 572 400" fill="none" xmlns="http://www.w3.org/2000/svg">
<path d="M276.776 217.307C276.776 212.231 280.903 208.105 285.976 208.105C291.049 208.105 295.176 212.231 295.176 217.307C295.176 222.38 291.049 226.509 285.976 226.509C280.903 226.509 276.776 222.38 276.776 217.307ZM517.994 149.096C515.76 120.877 492.043 98.9011 463.626 98.9011C454.453 98.9011 445.421 101.23 437.423 105.649C436.72 103.646 435.91 101.51 434.969 99.1636C437.946 96.1845 439.64 92.1276 439.64 87.9225C439.64 79.146 432.498 72.0041 423.72 72.0041C414.943 72.0041 407.803 79.146 407.803 87.9225C407.803 96.7011 414.943 103.841 423.72 103.841C424.037 103.841 424.351 103.83 424.662 103.811C426.248 107.809 427.662 111.91 428.874 116.007C429.396 117.784 430.762 119.194 432.524 119.778C434.283 120.361 436.221 120.045 437.703 118.927C445.273 113.231 454.24 110.221 463.626 110.221C475.153 110.221 486 114.724 494.171 122.901C502.342 131.081 506.839 141.945 506.839 153.415C506.825 153.625 506.814 153.832 506.81 154.048C506.753 156.985 509.001 159.507 511.923 159.788L513.829 159.979C547.933 163.61 561.87 190.27 560.553 215.084C559.263 239.41 542.147 265.593 507.614 265.593H351.126V142.324H370.262C372.56 142.324 374.614 140.952 375.49 138.831C376.371 136.707 375.888 134.285 374.264 132.663L321.072 79.4678C319.033 77.4267 315.105 77.4288 313.068 79.4678L260.002 132.536C258.378 134.157 257.898 136.578 258.776 138.701C259.653 140.825 261.707 142.195 264.004 142.195H280.316V197.602C271.525 200.12 265.457 208.107 265.457 217.307C265.457 228.622 274.661 237.826 285.976 237.826C297.291 237.826 306.496 228.622 306.496 217.307C306.496 208.107 300.427 200.12 291.638 197.602V136.537C291.638 133.416 289.097 130.876 285.976 130.876H277.668L317.068 91.4755L356.599 131.003H345.464C342.345 131.003 339.806 133.543 339.806 136.662V271.255C339.806 274.376 342.345 276.915 345.464 276.915H507.614C549.521 276.915 570.293 245.173 571.858 215.681C573.357 187.469 557.123 154.745 517.994 149.096Z" fill="url(#paint0_linear_3325_1242)"/>
<path d="M187.139 35.3792C187.139 30.3059 191.266 26.1792 196.339 26.1792C201.412 26.1792 205.539 30.3059 205.539 35.3792C205.539 40.4524 201.412 44.5792 196.339 44.5792C191.266 44.5792 187.139 40.4524 187.139 35.3792ZM139.43 119.778C141.19 119.195 142.556 117.785 143.081 116.007C150.394 91.244 164.293 68.8506 183.304 51.1896C186.989 54.2344 191.579 55.8986 196.339 55.8986C207.654 55.8986 216.858 46.6944 216.858 35.3792C216.858 24.0639 207.654 14.8597 196.339 14.8597C185.024 14.8597 175.819 24.0639 175.819 35.3792C175.819 37.5283 176.167 39.6669 176.857 41.7525C157.631 59.2314 143.023 81.286 134.526 105.646C126.531 101.229 117.501 98.9004 108.326 98.9004C79.9067 98.9004 56.1921 120.877 53.9604 149.095C14.8313 154.742 -1.40258 187.468 0.0944056 215.68C1.65914 245.173 22.4306 276.914 64.3355 276.914H72.7733C75.1151 283.082 80.9971 287.171 87.6478 287.171C96.4264 287.171 103.566 280.029 103.566 271.252C103.566 262.474 96.4264 255.334 87.6478 255.334C80.9971 255.334 75.113 259.425 72.7733 265.593H64.3355C29.8075 265.593 12.6907 239.409 11.3991 215.083C10.0821 190.269 24.0186 163.609 58.1189 159.978L60.0267 159.788C62.9529 159.508 65.1994 156.986 65.1443 154.052C65.1401 153.829 65.1274 153.613 65.1084 153.438C65.1084 129.607 84.495 110.22 108.326 110.22C117.717 110.22 126.679 113.231 134.249 118.927C135.733 120.042 137.671 120.36 139.43 119.778Z" fill="url(#paint1_linear_3325_1242)"/>
<path d="M406.508 68.2129C404.86 68.2129 403.224 67.5057 402.095 66.1358C373.405 31.3727 331.129 11.4355 286.108 11.4355C282.951 11.4355 280.391 8.87562 280.391 5.7165C280.391 2.5595 282.951 -0.00043557 286.108 -0.00043557C334.555 -0.00043557 380.045 21.4529 410.912 58.8563C412.921 61.2934 412.578 64.895 410.143 66.9044C409.078 67.7831 407.789 68.2129 406.508 68.2129Z" fill="url(#paint2_linear_3325_1242)"/>
<path d="M226.056 23.415C223.818 23.415 221.694 22.0917 220.777 19.8981C219.562 16.9846 220.938 13.637 223.852 12.4217C233.915 8.21868 244.451 5.03623 255.167 2.9612C258.265 2.36834 261.266 4.38619 261.867 7.48815C262.466 10.5859 260.44 13.5862 257.34 14.1875C247.39 16.1143 237.604 19.0702 228.256 22.9725C227.536 23.2731 226.79 23.415 226.056 23.415Z" fill="url(#paint3_linear_3325_1242)"/>
<path d="M315.86 338.446C314.981 336.322 312.927 334.952 310.63 334.952H291.637V301.955C297.587 299.677 301.817 293.926 301.817 287.174C301.817 278.425 294.724 271.331 285.975 271.331C277.226 271.331 270.133 278.425 270.133 287.174C270.133 293.926 274.366 299.677 280.315 301.955V340.614C280.315 343.733 282.854 346.272 285.975 346.272H296.966L256.904 386.337L216.201 345.634H227.485C230.606 345.634 233.145 343.093 233.145 339.975V271.257C233.145 268.134 230.606 265.595 227.485 265.595H141.553C138.432 265.595 135.894 268.134 135.894 271.257C135.894 274.376 138.432 276.917 141.553 276.917H221.825V334.315H202.538C200.241 334.315 198.187 335.685 197.308 337.809C196.429 339.932 196.912 342.355 198.534 343.974L252.902 398.342C253.971 399.411 255.392 400 256.904 400C258.413 400 259.836 399.411 260.903 398.342L314.634 344.614C316.258 342.988 316.738 340.565 315.86 338.446Z" fill="url(#paint4_linear_3325_1242)"/>
<defs>
<linearGradient id="paint0_linear_3325_1242" x1="258.343" y1="174.46" x2="571.952" y2="174.46" gradientUnits="userSpaceOnUse">
<stop stop-color="#9333EA"/>
<stop offset="1" stop-color="#4F46E5"/>
</linearGradient>
<linearGradient id="paint1_linear_3325_1242" x1="1.63911e-08" y1="142.846" x2="216.858" y2="142.846" gradientUnits="userSpaceOnUse">
<stop stop-color="#93D8FF"/>
<stop offset="1" stop-color="#85AFFF"/>
</linearGradient>
<linearGradient id="paint2_linear_3325_1242" x1="280.391" y1="34.1062" x2="412.22" y2="34.1062" gradientUnits="userSpaceOnUse">
<stop stop-color="#9333EA"/>
<stop offset="1" stop-color="#4F46E5"/>
</linearGradient>
<linearGradient id="paint3_linear_3325_1242" x1="220.335" y1="12.5197" x2="261.972" y2="12.5197" gradientUnits="userSpaceOnUse">
<stop stop-color="#93D8FF"/>
<stop offset="1" stop-color="#85AFFF"/>
</linearGradient>
<linearGradient id="paint4_linear_3325_1242" x1="135.894" y1="328.766" x2="316.293" y2="328.766" gradientUnits="userSpaceOnUse">
<stop stop-color="#93D8FF"/>
<stop offset="1" stop-color="#85AFFF"/>
</linearGradient>
</defs>
</svg>
