<svg width="64" height="64" viewBox="0 0 64 64" fill="none" xmlns="http://www.w3.org/2000/svg">
<path d="M29.9513 8.85448L8.83672 29.9517C7.70156 31.0859 7.70156 32.9179 8.83672 34.0521L29.9513 55.1493C31.0865 56.2836 32.9199 56.2836 34.0551 55.1493L42.9081 46.3036C43.9247 45.2878 43.9247 43.6409 42.9081 42.6251C41.8915 41.6093 40.2433 41.6093 39.2266 42.6251L32.5152 49.331C32.2327 49.6133 31.8039 49.6133 31.5213 49.331L14.6598 32.4834C14.3773 32.2011 14.3773 31.7726 14.6598 31.4903L31.5213 14.6427C31.8039 14.3604 32.2327 14.3604 32.5152 14.6427L39.2266 21.3486C40.2433 22.3643 41.8915 22.3643 42.9081 21.3486C43.9247 20.3328 43.9247 18.6859 42.9081 17.6701L34.0561 8.8253C32.9162 7.71563 31.0821 7.72461 29.9513 8.85448Z" fill="url(#paint0_linear_3373_2012)"/>
<path d="M29.9513 8.85448L8.83672 29.9517C7.70156 31.0859 7.70156 32.9179 8.83672 34.0521L29.9513 55.1493C31.0865 56.2836 32.9199 56.2836 34.0551 55.1493L42.9081 46.3036C43.9247 45.2878 43.9247 43.6409 42.9081 42.6251C41.8915 41.6093 40.2433 41.6093 39.2266 42.6251L32.5152 49.331C32.2327 49.6133 31.8039 49.6133 31.5213 49.331L14.6598 32.4834C14.3773 32.2011 14.3773 31.7726 14.6598 31.4903L31.5213 14.6427C32.2248 14.0362 33.3727 12.8077 35.0583 12.5204C36.3111 12.3069 37.6806 12.7769 39.1671 13.9303C38.1733 12.9374 36.4696 11.2357 34.0561 8.8253C32.9162 7.71563 31.0821 7.72461 29.9513 8.85448Z" fill="url(#paint1_linear_3373_2012)"/>
<path d="M44.9518 40.6631C45.9684 41.6788 47.6167 41.6788 48.6333 40.6631L55.1637 34.138C56.2989 33.0038 56.2989 31.1718 55.1638 30.0377L48.5765 23.4791C47.5575 22.4645 45.9087 22.466 44.8915 23.4824C43.8748 24.4981 43.8748 26.1451 44.8915 27.1608L49.3406 31.6063C49.6231 31.8886 49.6231 32.3171 49.3406 32.5994L44.9518 36.9846C43.9352 38.0004 43.9352 39.6473 44.9518 40.6631Z" fill="url(#paint2_linear_3373_2012)"/>
<path d="M32.1088 37.8036C35.2573 37.8036 37.8097 35.2533 37.8097 32.1074C37.8097 28.9614 35.2573 26.4111 32.1088 26.4111C28.9602 26.4111 26.4078 28.9614 26.4078 32.1074C26.4078 35.2533 28.9602 37.8036 32.1088 37.8036Z" fill="url(#paint3_linear_3373_2012)"/>
<defs>
<linearGradient id="paint0_linear_3373_2012" x1="2990.74" y1="8.00012" x2="5203.56" y2="1826.8" gradientUnits="userSpaceOnUse">
<stop stop-color="#4285EB"/>
<stop offset="1" stop-color="#2EC7FF"/>
</linearGradient>
<linearGradient id="paint1_linear_3373_2012" x1="3352.97" y1="7.99997" x2="2604.56" y2="5214.05" gradientUnits="userSpaceOnUse">
<stop stop-color="#29CDFF"/>
<stop offset="0.378601" stop-color="#148EFF"/>
<stop offset="1" stop-color="#0A60FF"/>
</linearGradient>
<linearGradient id="paint2_linear_3373_2012" x1="3355.22" y1="-614.769" x2="813.886" y2="5643.88" gradientUnits="userSpaceOnUse">
<stop stop-color="#FA816E"/>
<stop offset="0.414726" stop-color="#F74A5C"/>
<stop offset="1" stop-color="#F51D2C"/>
</linearGradient>
<linearGradient id="paint3_linear_3373_2012" x1="803.195" y1="-380.194" x2="374.147" y2="1336.06" gradientUnits="userSpaceOnUse">
<stop stop-color="#FA8E7D"/>
<stop offset="0.512635" stop-color="#F74A5C"/>
<stop offset="1" stop-color="#F51D2C"/>
</linearGradient>
</defs>
</svg>
