<svg width="96" height="97" viewBox="0 0 96 97" fill="none" xmlns="http://www.w3.org/2000/svg">
<g clip-path="url(#clip0_700_9822)">
<path d="M22.028 16.378C24.3078 13.7183 27.636 12.1875 31.1391 12.1875H64.8603C68.3634 12.1875 71.6916 13.7183 73.9714 16.378L80.8588 24.4133C79.9276 24.2647 78.9727 24.1875 77.9997 24.1875H17.9997C17.0267 24.1875 16.0718 24.2647 15.1406 24.4133L22.028 16.378Z" fill="url(#paint0_linear_700_9822)"/>
<path fill-rule="evenodd" clip-rule="evenodd" d="M6 42.1875C6 35.5601 11.3726 30.1875 18 30.1875H78C84.6274 30.1875 90 35.5601 90 42.1875C90 48.8149 84.6274 54.1875 78 54.1875H18C11.3726 54.1875 6 48.8149 6 42.1875ZM66 42.1875C66 43.8444 64.6569 45.1875 63 45.1875C61.3431 45.1875 60 43.8444 60 42.1875C60 40.5306 61.3431 39.1875 63 39.1875C64.6569 39.1875 66 40.5306 66 42.1875ZM75 45.1875C76.6569 45.1875 78 43.8444 78 42.1875C78 40.5306 76.6569 39.1875 75 39.1875C73.3431 39.1875 72 40.5306 72 42.1875C72 43.8444 73.3431 45.1875 75 45.1875Z" fill="url(#paint1_linear_700_9822)"/>
<path fill-rule="evenodd" clip-rule="evenodd" d="M18 60.1875C11.3726 60.1875 6 65.5601 6 72.1875C6 78.8149 11.3726 84.1875 18 84.1875H78C84.6274 84.1875 90 78.8149 90 72.1875C90 65.5601 84.6274 60.1875 78 60.1875H18ZM63 75.1875C64.6569 75.1875 66 73.8444 66 72.1875C66 70.5306 64.6569 69.1875 63 69.1875C61.3431 69.1875 60 70.5306 60 72.1875C60 73.8444 61.3431 75.1875 63 75.1875ZM78 72.1875C78 73.8444 76.6569 75.1875 75 75.1875C73.3431 75.1875 72 73.8444 72 72.1875C72 70.5306 73.3431 69.1875 75 69.1875C76.6569 69.1875 78 70.5306 78 72.1875Z" fill="url(#paint2_linear_700_9822)"/>
</g>
<defs>
<linearGradient id="paint0_linear_700_9822" x1="6" y1="48.1875" x2="90" y2="48.1875" gradientUnits="userSpaceOnUse">
<stop stop-color="#9333EA"/>
<stop offset="1" stop-color="#4F46E5"/>
</linearGradient>
<linearGradient id="paint1_linear_700_9822" x1="6" y1="48.1875" x2="90" y2="48.1875" gradientUnits="userSpaceOnUse">
<stop stop-color="#9333EA"/>
<stop offset="1" stop-color="#4F46E5"/>
</linearGradient>
<linearGradient id="paint2_linear_700_9822" x1="6" y1="48.1875" x2="90" y2="48.1875" gradientUnits="userSpaceOnUse">
<stop stop-color="#9333EA"/>
<stop offset="1" stop-color="#4F46E5"/>
</linearGradient>
<clipPath id="clip0_700_9822">
<rect width="96" height="96" fill="white" transform="translate(0 0.1875)"/>
</clipPath>
</defs>
</svg>
