<svg width="64" height="64" viewBox="0 0 64 64" fill="none" xmlns="http://www.w3.org/2000/svg">
<path d="M20 17H44V47H20V17Z" fill="white"/>
<path fill-rule="evenodd" clip-rule="evenodd" d="M17.9698 13C15.2309 13 13.2043 15.4034 13.2951 18.0099C13.3821 20.514 13.269 23.7572 12.4546 26.402C11.6378 29.0546 10.2564 30.7349 8 30.9506V33.3862C10.2564 33.602 11.6378 35.2823 12.4546 37.9349C13.269 40.5797 13.3821 43.8228 13.2951 46.327C13.2043 48.9331 15.2309 51.3369 17.9702 51.3369H46.0339C48.7727 51.3369 50.7989 48.9335 50.7082 46.327C50.6212 43.8228 50.7342 40.5797 51.5486 37.9349C52.3658 35.2823 53.7436 33.602 56 33.3862V30.9506C53.7436 30.7349 52.3658 29.0546 51.5486 26.402C50.7342 23.7576 50.6212 20.514 50.7082 18.0099C50.7989 15.4038 48.7727 13 46.0339 13H17.9698ZM40.5424 36.5988C40.5424 40.1878 37.8723 42.3644 33.4412 42.3644H25.8983C25.6825 42.3644 25.4756 42.2785 25.323 42.1255C25.1705 41.9725 25.0847 41.7651 25.0847 41.5487V22.7881C25.0847 22.5718 25.1705 22.3643 25.323 22.2114C25.4756 22.0584 25.6825 21.9725 25.8983 21.9725H33.3981C37.0929 21.9725 39.5177 23.979 39.5177 27.0598C39.5177 29.2222 37.8865 31.1582 35.8083 31.4971V31.6101C38.6374 31.9213 40.5424 33.8854 40.5424 36.5988ZM32.6187 24.5582H28.3178V30.6488H31.9402C34.7405 30.6488 36.2846 29.5183 36.2846 27.4975C36.2846 25.6039 34.9569 24.5582 32.6187 24.5582ZM28.3178 33.0657V39.7779H32.7769C35.6923 39.7779 37.2369 38.6049 37.2369 36.4006C37.2369 34.1958 35.6492 33.0653 32.5894 33.0653L28.3178 33.0657Z" fill="#7330F8"/>
</svg>
