<svg width="64" height="64" viewBox="0 0 64 64" fill="none" xmlns="http://www.w3.org/2000/svg">
<path d="M55.8685 32.1266L45.2694 30.1629L33.321 50.8811C32.9816 51.4695 32.0867 51.2274 32.0867 50.5474V38.0266C32.0867 37.39 31.6384 36.8425 31.0172 36.7203L18.9419 34.3447L8.13258 32.3655C8.14899 32.9278 8.28162 33.4874 8.53414 34.0054L17.4554 49.5094C18.7 51.6725 20.998 53.0033 23.4833 53L40.5918 52.9772C43.0758 52.9739 45.3693 51.6384 46.6088 49.4738L55.3397 34.2259C55.7119 33.5775 55.8869 32.8501 55.8685 32.1266Z" fill="url(#paint0_linear_3373_2037)"/>
<path d="M30.852 13.6457C31.191 13.0567 32.0867 13.2985 32.0867 13.979V26.4932C32.0867 27.1305 32.536 27.6785 33.1582 27.7998L45.2694 30.1629L55.8685 32.1266C55.8549 31.5952 55.7359 31.0668 55.5116 30.5725C55.4588 30.4562 55.4021 30.3412 55.3378 30.2293L46.5958 14.9973C45.3537 12.8332 43.0578 11.5 40.5731 11.5H23.4062C20.9174 11.5 18.6184 12.8374 17.3779 15.007L8.6608 30.2515C8.64074 30.2864 8.62332 30.3224 8.6044 30.3578C8.26973 30.9836 8.11243 31.6762 8.13258 32.3655L18.9419 34.3447L30.852 13.6457Z" fill="url(#paint1_linear_3373_2037)"/>
<defs>
<linearGradient id="paint0_linear_3373_2037" x1="54.8714" y1="32.0266" x2="8.98652" y2="32.2602" gradientUnits="userSpaceOnUse">
<stop stop-color="#3585A3"/>
<stop offset="1" stop-color="#00DEAE"/>
</linearGradient>
<linearGradient id="paint1_linear_3373_2037" x1="10.4429" y1="23.2037" x2="51.2022" y2="22.1426" gradientUnits="userSpaceOnUse">
<stop stop-color="#3585A3"/>
<stop offset="1" stop-color="#00DEAE"/>
</linearGradient>
</defs>
</svg>
