<svg width="48" height="49" viewBox="0 0 48 49" fill="none" xmlns="http://www.w3.org/2000/svg">
<g clip-path="url(#clip0_699_9627)">
<path fill-rule="evenodd" clip-rule="evenodd" d="M29.5591 7.51065C30.8165 7.92981 31.4961 9.28897 31.0769 10.5464L21.4769 39.3464C21.0578 40.6039 19.6986 41.2835 18.4411 40.8643C17.1837 40.4452 16.5041 39.086 16.9232 37.8285L26.5233 9.02855C26.9424 7.77108 28.3016 7.0915 29.5591 7.51065ZM13.6971 15.2904C14.6344 16.2277 14.6344 17.7473 13.6971 18.6845L8.19415 24.1875L13.6971 29.6904C14.6344 30.6277 14.6344 32.1473 13.6971 33.0845C12.7599 34.0218 11.2403 34.0218 10.303 33.0845L3.10297 25.8845C2.16571 24.9473 2.16571 23.4277 3.10297 22.4904L10.303 15.2904C11.2403 14.3532 12.7599 14.3532 13.6971 15.2904ZM34.3031 15.2904C35.2403 14.3532 36.7599 14.3532 37.6972 15.2904L44.8972 22.4904C45.8345 23.4277 45.8345 24.9473 44.8972 25.8845L37.6972 33.0845C36.7599 34.0218 35.2403 34.0218 34.3031 33.0845C33.3658 32.1473 33.3658 30.6277 34.3031 29.6904L39.806 24.1875L34.3031 18.6845C33.3658 17.7473 33.3658 16.2277 34.3031 15.2904Z" fill="url(#paint0_linear_699_9627)"/>
</g>
<defs>
<linearGradient id="paint0_linear_699_9627" x1="2.40002" y1="25.1955" x2="45.6002" y2="25.1955" gradientUnits="userSpaceOnUse">
<stop stop-color="#93D8FF"/>
<stop offset="1" stop-color="#85AFFF"/>
</linearGradient>
<clipPath id="clip0_699_9627">
<rect width="48.0001" height="48" fill="white" transform="translate(0 0.1875)"/>
</clipPath>
</defs>
</svg>
