<svg width="48" height="49" viewBox="0 0 48 49" fill="none" xmlns="http://www.w3.org/2000/svg">
<g clip-path="url(#clip0_700_9818)">
<path fill-rule="evenodd" clip-rule="evenodd" d="M6 12.1875C6 8.87379 8.68629 6.1875 12 6.1875H16.5C19.8137 6.1875 22.5 8.87379 22.5 12.1875V16.6875C22.5 20.0012 19.8137 22.6875 16.5 22.6875H12C8.68629 22.6875 6 20.0012 6 16.6875V12.1875ZM25.5 12.1875C25.5 8.87379 28.1863 6.1875 31.5 6.1875H36C39.3137 6.1875 42 8.87379 42 12.1875V16.6875C42 20.0012 39.3137 22.6875 36 22.6875H31.5C28.1863 22.6875 25.5 20.0012 25.5 16.6875V12.1875ZM6 31.6875C6 28.3738 8.68629 25.6875 12 25.6875H16.5C19.8137 25.6875 22.5 28.3738 22.5 31.6875V36.1875C22.5 39.5012 19.8137 42.1875 16.5 42.1875H12C8.68629 42.1875 6 39.5012 6 36.1875V31.6875ZM25.5 31.6875C25.5 28.3738 28.1863 25.6875 31.5 25.6875H36C39.3137 25.6875 42 28.3738 42 31.6875V36.1875C42 39.5012 39.3137 42.1875 36 42.1875H31.5C28.1863 42.1875 25.5 39.5012 25.5 36.1875V31.6875Z" fill="url(#paint0_linear_700_9818)"/>
</g>
<defs>
<linearGradient id="paint0_linear_700_9818" x1="6" y1="25.2675" x2="42" y2="25.2675" gradientUnits="userSpaceOnUse">
<stop stop-color="#93D8FF"/>
<stop offset="1" stop-color="#85AFFF"/>
</linearGradient>
<clipPath id="clip0_700_9818">
<rect width="48" height="48" fill="white" transform="translate(0 0.1875)"/>
</clipPath>
</defs>
</svg>
