<svg xmlns="http://www.w3.org/2000/svg" fill="none" viewBox="0 0 16 16" id="Custom component support" height="16" width="16">
  <g>
    <path id="Union" fill="#93d8ff" fill-rule="evenodd" d="M1.2307657142857142 0h4.307691428571428c0.6797371428571428 0 1.2307771428571428 0.5510342857142857 1.2307771428571428 1.2307657142857142v4.307691428571428c0 0.6797371428571428 -0.55104 1.2307771428571428 -1.2307771428571428 1.2307771428571428H1.2307657142857142C0.5510342857142857 6.769234285714285 0 6.218194285714286 0 5.538457142857142V1.2307657142857142C0 0.5510342857142857 0.5510342857142857 0 1.2307657142857142 0Zm9.230754285714285 9.230742857142857h4.3077371428571425c0.6796571428571428 0 1.2307428571428571 0.55104 1.2307428571428571 1.2307771428571428v4.3077371428571425C16 15.448914285714284 15.448914285714284 16 14.769257142857143 16H10.461519999999998c-0.6797371428571428 0 -1.2307771428571428 -0.5510857142857143 -1.2307771428571428 -1.2307428571428571V10.461519999999998c0 -0.6797371428571428 0.55104 -1.2307771428571428 1.2307771428571428 -1.2307771428571428Zm-4.923062857142857 0H1.2307657142857142C0.5510342857142857 9.230742857142857 0 9.781782857142858 0 10.461519999999998v4.3077371428571425C0 15.448914285714284 0.5510342857142857 16 1.2307657142857142 16h4.307691428571428c0.6797371428571428 0 1.2307771428571428 -0.5510857142857143 1.2307771428571428 -1.2307428571428571V10.461519999999998c0 -0.6797371428571428 -0.55104 -1.2307771428571428 -1.2307771428571428 -1.2307771428571428ZM12.297942857142857 0c0.4734857142857143 0 0.8571428571428571 0.3837554285714285 0.8571428571428571 0.8571428571428571v1.980262857142857h1.9799999999999998c0.4734857142857143 0 0.8571428571428571 0.38374857142857144 0.8571428571428571 0.8571428571428571 0 0.47338285714285716 -0.3836571428571428 0.8571428571428571 -0.8571428571428571 0.8571428571428571h-1.9799999999999998v1.980217142857143c0 0.47338285714285716 -0.3836571428571428 0.8571428571428571 -0.8571428571428571 0.8571428571428571 -0.47337142857142855 0 -0.8571428571428571 -0.38375999999999993 -0.8571428571428571 -0.8571428571428571V4.551691428571428H9.460377142857142c-0.47338285714285716 0 -0.8571428571428571 -0.38375999999999993 -0.8571428571428571 -0.8571428571428571 0 -0.47339428571428566 0.38375999999999993 -0.8571428571428571 0.8571428571428571 -0.8571428571428571h1.980422857142857V0.8571428571428571c0 -0.47338742857142857 0.38377142857142854 -0.8571428571428571 0.8571428571428571 -0.8571428571428571Z" clip-rule="evenodd" stroke-width="1.1429"></path>
  </g>
</svg> 