<svg width="64" height="64" viewBox="0 0 64 64" fill="none" xmlns="http://www.w3.org/2000/svg">
<g clip-path="url(#clip0_3454_2994)">
<g opacity="0.7">
<path d="M23.8326 12.5344C23.2219 13.4339 22.7366 14.4773 22.4168 15.6648C21.4974 19.0795 18.8301 21.7468 15.4154 22.6663C14.2279 22.986 13.1844 23.4713 12.2849 24.0821C11.0101 17.4141 17.1646 11.2596 23.8326 12.5344Z" fill="#FFD819"/>
<path d="M12.2846 24.082C12.4887 25.1499 12.8834 26.2309 13.497 27.2968C15.2615 30.3614 15.2615 34.1336 13.497 37.1983C12.8834 38.2641 12.4887 39.3451 12.2846 40.413C6.66815 36.5994 6.66816 27.8957 12.2846 24.082Z" fill="#FFE029"/>
<path d="M23.8326 51.9603C23.2219 51.0609 22.7366 50.0174 22.4168 48.8299C21.4974 45.4152 18.8301 42.7478 15.4154 41.8285C14.2279 41.5087 13.1844 41.0234 12.2849 40.4126C11.0101 47.0807 17.1646 53.2351 23.8326 51.9603Z" fill="#FFC141"/>
<path d="M40.1629 51.9605C39.0951 51.7564 38.0141 51.3617 36.9483 50.7482C33.8836 48.9837 30.1114 48.9837 27.0468 50.7482C25.9809 51.3617 24.8999 51.7565 23.832 51.9605C27.6456 57.577 36.3494 57.577 40.1629 51.9605Z" fill="#FFB655"/>
<path d="M51.7107 40.4131C50.8113 41.0239 49.7679 41.5091 48.5804 41.8289C45.1656 42.7482 42.4983 45.4155 41.5789 48.8304C41.2592 50.0178 40.7739 51.0613 40.1631 51.9607C46.831 53.2355 52.9855 47.081 51.7107 40.4131Z" fill="#FFB35B"/>
<path d="M51.7106 24.082C51.5064 25.1499 51.1117 26.2308 50.4981 27.2966C48.7337 30.3613 48.7337 34.1334 50.4981 37.1982C51.1117 38.264 51.5064 39.345 51.7106 40.4128C57.3269 36.5993 57.3269 27.8957 51.7106 24.082Z" fill="#FFB656"/>
<path d="M40.1631 12.5344C40.7739 13.4338 41.2592 14.4773 41.5789 15.6648C42.4983 19.0795 45.1656 21.7469 48.5804 22.6663C49.7679 22.986 50.8113 23.4713 51.7107 24.082C52.9855 17.4141 46.831 11.2597 40.1631 12.5344Z" fill="#FFC042"/>
<path d="M23.832 12.5345C24.8999 12.7386 25.9808 13.1333 27.0466 13.7469C30.1114 15.5114 33.8836 15.5114 36.9482 13.7469C38.014 13.1333 39.095 12.7387 40.1628 12.5345C36.3492 6.91819 27.6456 6.91819 23.832 12.5345Z" fill="#FFCE2A"/>
</g>
<path fill-rule="evenodd" clip-rule="evenodd" d="M22.4171 15.6646C22.7368 14.4771 23.2221 13.4336 23.8329 12.5342C24.9006 12.7384 25.9817 13.133 27.0474 13.7466C30.1121 15.5111 33.8843 15.5111 36.9489 13.7466C38.0148 13.133 39.0958 12.7383 40.1637 12.5342C40.7744 13.4336 41.2598 14.4771 41.5794 15.6646C42.4989 19.0794 45.1662 21.7467 48.5809 22.666C49.7684 22.9858 50.8119 23.471 51.7113 24.0818C51.5071 25.1496 51.1125 26.2307 50.4988 27.2964C48.7343 30.3612 48.7343 34.1333 50.4988 37.1981C51.1125 38.2638 51.5071 39.3448 51.7113 40.4127C50.8119 41.0235 49.7684 41.5087 48.5809 41.8285C45.1662 42.7478 42.4989 45.4151 41.5794 48.8299C41.2598 50.0174 40.7744 51.0609 40.1637 51.9603C39.0958 51.7562 38.0148 51.3615 36.9489 50.7478C33.8843 48.9835 30.1121 48.9835 27.0474 50.7478C25.9817 51.3615 24.9006 51.7562 23.8329 51.9603C23.2221 51.0609 22.7368 50.0174 22.4171 48.8299C21.4976 45.4151 18.8303 42.7478 15.4156 41.8285C14.2281 41.5087 13.1846 41.0234 12.2852 40.4126C12.4893 39.3448 12.884 38.2638 13.4976 37.1981C15.262 34.1333 15.262 30.3612 13.4976 27.2964C12.884 26.2307 12.4893 25.1498 12.2852 24.0819C13.1846 23.4711 14.2281 22.9858 15.4156 22.666C18.8303 21.7467 21.4976 19.0794 22.4171 15.6646Z" fill="url(#paint0_radial_3454_2994)"/>
<path d="M42.6778 37.3907L41.8431 35.945C41.6126 35.5458 41.1021 35.409 40.7029 35.6395L40.7029 35.6395C40.3037 35.87 40.1669 36.3805 40.3974 36.7797L41.2321 38.2254C41.4626 38.6246 41.9731 38.7614 42.3723 38.5309L42.3723 38.5309C42.7715 38.3004 42.9083 37.79 42.6778 37.3907Z" fill="#FFA17A"/>
<path d="M40.5919 37.3907L39.7572 35.945C39.5267 35.5458 39.0162 35.409 38.617 35.6395L38.617 35.6395C38.2178 35.87 38.081 36.3805 38.3115 36.7797L39.1462 38.2254C39.3766 38.6246 39.8871 38.7614 40.2864 38.5309L40.2864 38.5309C40.6856 38.3004 40.8224 37.79 40.5919 37.3907Z" fill="#FFA17A"/>
<path d="M25.7755 37.3907L24.9408 35.945C24.7103 35.5458 24.1998 35.409 23.8006 35.6395L23.8006 35.6395C23.4014 35.87 23.2646 36.3805 23.4951 36.7797L24.3297 38.2254C24.5602 38.6246 25.0707 38.7614 25.4699 38.5309L25.4699 38.5309C25.8692 38.3004 26.006 37.79 25.7755 37.3907Z" fill="#FFAB89"/>
<path d="M23.6895 37.3907L22.8548 35.945C22.6243 35.5458 22.1139 35.409 21.7146 35.6395L21.7146 35.6395C21.3154 35.87 21.1786 36.3805 21.4091 36.7797L22.2438 38.2254C22.4743 38.6246 22.9848 38.7614 23.384 38.5309L23.384 38.5309C23.7832 38.3004 23.92 37.79 23.6895 37.3907Z" fill="#FFAB89"/>
<path d="M41.9969 26.4801L40.3844 26.0481C39.9391 25.9288 39.4814 26.193 39.3621 26.6383L39.3621 26.6383C39.2428 27.0835 39.507 27.5412 39.9523 27.6605L41.5648 28.0926C42.0101 28.2119 42.4677 27.9477 42.5871 27.5024C42.7064 27.0571 42.4421 26.5994 41.9969 26.4801Z" fill="#FFA17A"/>
<path d="M23.6189 26.0482L22.0064 26.4803C21.5612 26.5996 21.2969 27.0573 21.4162 27.5025L21.4162 27.5025C21.5355 27.9478 21.9932 28.2121 22.4385 28.0927L24.051 27.6607C24.4963 27.5414 24.7605 27.0837 24.6412 26.6384C24.5219 26.1931 24.0642 25.9289 23.6189 26.0482Z" fill="#FFAB89"/>
<path d="M30.1729 35.2222C30.6131 35.7098 31.3939 36.0568 32.0509 36.0568C32.7079 36.0568 33.4887 35.7098 33.9289 35.2222" stroke="#8B2C0C" stroke-opacity="0.05" stroke-width="12" stroke-linecap="round"/>
<path d="M30.1729 35.0137C30.6131 35.5014 31.3939 35.8483 32.0509 35.8483C32.7079 35.8483 33.4887 35.5014 33.9289 35.0137" stroke="#D05B34" stroke-width="12" stroke-linecap="round"/>
<path d="M23.1085 30.524L21.9281 29.3436C21.6021 29.0177 21.0736 29.0177 20.7477 29.3436L20.7477 29.3436C20.4217 29.6696 20.4217 30.1981 20.7477 30.524L21.9281 31.7045C22.2541 32.0304 22.7826 32.0304 23.1085 31.7045C23.4345 31.3785 23.4345 30.85 23.1085 30.524Z" fill="black"/>
<path d="M26.8343 32.301C26.8343 30.5723 25.433 29.1709 23.7043 29.1709C21.9756 29.1709 20.5742 30.5723 20.5742 32.301C20.5742 34.0296 21.9756 35.431 23.7043 35.431C25.433 35.431 26.8343 34.0296 26.8343 32.301Z" fill="black"/>
<path d="M26.8343 32.5095C26.8343 30.7808 25.433 29.3794 23.7043 29.3794C21.9756 29.3794 20.5742 30.7808 20.5742 32.5095C20.5742 34.2381 21.9756 35.6395 23.7043 35.6395C25.433 35.6395 26.8343 34.2381 26.8343 32.5095Z" fill="black" fill-opacity="0.05"/>
<path fill-rule="evenodd" clip-rule="evenodd" d="M21.3428 33.135C21.6866 32.1626 22.614 31.4658 23.7043 31.4658C24.7946 31.4658 25.7221 32.1627 26.0659 33.1354C25.7221 34.1077 24.7945 34.8045 23.7044 34.8045C22.614 34.8045 21.6865 34.1076 21.3428 33.135Z" fill="#784012"/>
<path fill-rule="evenodd" clip-rule="evenodd" d="M25.7962 33.6792C26.0573 33.2839 26.2093 32.8102 26.2093 32.301C26.2093 30.918 25.0881 29.7969 23.7052 29.7969C22.3222 29.7969 21.2012 30.918 21.2012 32.301C21.2012 32.7575 21.3233 33.1856 21.5367 33.5541C21.9849 32.8758 22.754 32.4282 23.6277 32.4282C24.5541 32.4282 25.3631 32.9314 25.7962 33.6792Z" fill="black" fill-opacity="0.35"/>
<path d="M25.1655 32.301C25.1655 31.4943 24.5116 30.8403 23.7048 30.8403C22.8981 30.8403 22.2441 31.4943 22.2441 32.301C22.2441 33.1077 22.8981 33.7617 23.7048 33.7617C24.5116 33.7617 25.1655 33.1077 25.1655 32.301Z" fill="black"/>
<path d="M23.0206 32.0734C23.712 32.0734 24.2726 31.5128 24.2726 30.8214C24.2726 30.1299 23.712 29.5693 23.0206 29.5693C22.3291 29.5693 21.7686 30.1299 21.7686 30.8214C21.7686 31.5128 22.3291 32.0734 23.0206 32.0734Z" fill="white"/>
<path d="M25.3711 33.1573C25.7169 33.1573 25.9971 32.877 25.9971 32.5313C25.9971 32.1855 25.7169 31.9053 25.3711 31.9053C25.0254 31.9053 24.7451 32.1855 24.7451 32.5313C24.7451 32.877 25.0254 33.1573 25.3711 33.1573Z" fill="white"/>
<path d="M24.5902 34.2517C24.8207 34.2517 25.0075 34.0648 25.0075 33.8343C25.0075 33.6038 24.8207 33.417 24.5902 33.417C24.3597 33.417 24.1729 33.6038 24.1729 33.8343C24.1729 34.0648 24.3597 34.2517 24.5902 34.2517Z" fill="white"/>
<path d="M42.1962 31.7042L43.3766 30.5238C43.7026 30.1978 43.7026 29.6693 43.3766 29.3434L43.3766 29.3434C43.0506 29.0174 42.5221 29.0174 42.1962 29.3434L41.0157 30.5238C40.6898 30.8498 40.6898 31.3783 41.0157 31.7042C41.3417 32.0302 41.8702 32.0302 42.1962 31.7042Z" fill="black"/>
<path d="M43.5287 32.5095C43.5287 30.7808 42.1273 29.3794 40.3986 29.3794C38.6699 29.3794 37.2686 30.7808 37.2686 32.5095C37.2686 34.2381 38.6699 35.6395 40.3986 35.6395C42.1273 35.6395 43.5287 34.2381 43.5287 32.5095Z" fill="black" fill-opacity="0.05"/>
<path d="M43.5287 32.301C43.5287 30.5723 42.1273 29.1709 40.3986 29.1709C38.6699 29.1709 37.2686 30.5723 37.2686 32.301C37.2686 34.0296 38.6699 35.431 40.3986 35.431C42.1273 35.431 43.5287 34.0296 43.5287 32.301Z" fill="black"/>
<path fill-rule="evenodd" clip-rule="evenodd" d="M38.041 33.1468C38.3647 32.1387 39.3099 31.4092 40.4256 31.4092C41.5116 31.4092 42.4361 32.1006 42.7831 33.0672C42.4594 34.0752 41.5141 34.8048 40.3986 34.8048C39.3125 34.8048 38.3879 34.1134 38.041 33.1468Z" fill="#784012"/>
<path fill-rule="evenodd" clip-rule="evenodd" d="M42.5462 33.5893C42.7725 33.2129 42.9026 32.7721 42.9026 32.301C42.9026 30.918 41.7815 29.7969 40.3985 29.7969C39.0156 29.7969 37.8945 30.918 37.8945 32.301C37.8945 32.7905 38.035 33.2471 38.2778 33.6329C38.7157 32.9045 39.5136 32.4172 40.4254 32.4172C41.3189 32.4172 42.1031 32.8852 42.5462 33.5893Z" fill="black" fill-opacity="0.35"/>
<path d="M41.8589 32.301C41.8589 31.4943 41.2049 30.8403 40.3982 30.8403C39.5915 30.8403 38.9375 31.4943 38.9375 32.301C38.9375 33.1077 39.5915 33.7617 40.3982 33.7617C41.2049 33.7617 41.8589 33.1077 41.8589 32.301Z" fill="black"/>
<path d="M39.7149 32.0734C40.4064 32.0734 40.9669 31.5128 40.9669 30.8214C40.9669 30.1299 40.4064 29.5693 39.7149 29.5693C39.0234 29.5693 38.4629 30.1299 38.4629 30.8214C38.4629 31.5128 39.0234 32.0734 39.7149 32.0734Z" fill="white"/>
<path d="M42.0655 33.1573C42.4112 33.1573 42.6915 32.877 42.6915 32.5313C42.6915 32.1855 42.4112 31.9053 42.0655 31.9053C41.7197 31.9053 41.4395 32.1855 41.4395 32.5313C41.4395 32.877 41.7197 33.1573 42.0655 33.1573Z" fill="white"/>
<path d="M41.2836 34.2517C41.514 34.2517 41.7009 34.0648 41.7009 33.8343C41.7009 33.6038 41.514 33.417 41.2836 33.417C41.0531 33.417 40.8662 33.6038 40.8662 33.8343C40.8662 34.0648 41.0531 34.2517 41.2836 34.2517Z" fill="white"/>
</g>
<defs>
<radialGradient id="paint0_radial_3454_2994" cx="0" cy="0" r="1" gradientUnits="userSpaceOnUse" gradientTransform="translate(12.2676 12.5168) rotate(45) scale(55.7747)">
<stop stop-color="#FFE600"/>
<stop offset="1" stop-color="#FFA573"/>
</radialGradient>
<clipPath id="clip0_3454_2994">
<rect width="48" height="48" fill="white" transform="translate(8 8.25)"/>
</clipPath>
</defs>
</svg>
