<svg width="49" height="48" viewBox="0 0 49 48" fill="none" xmlns="http://www.w3.org/2000/svg">
<path d="M11.6667 18.3249C12.0897 18.3249 12.5138 18.4829 12.9367 18.7991C13.3586 19.1152 13.5712 19.5905 13.5723 20.2227V27.8154C13.5723 28.4488 13.3608 28.923 12.9378 29.2391C12.5149 29.5552 12.0908 29.7133 11.6678 29.7133H9.76558V18.3249H11.6667Z" fill="#828282"/>
<path fill-rule="evenodd" clip-rule="evenodd" d="M24.4004 0C37.6552 0 48.4004 10.7452 48.4004 24C48.4004 37.2548 37.6552 48 24.4004 48C11.1456 48 0.400391 37.2548 0.400391 24C0.400391 10.7452 11.1456 0 24.4004 0ZM29.5534 14.9542L33.7536 30.7391C34.908 33.4241 37.4861 34.0912 38.9251 30.7391L43.1177 14.9542H39.5661L36.3426 27.351L33.1039 14.9542H29.5534ZM20.7398 14.9531C19.5623 14.9827 18.622 15.9309 18.5912 17.0952V30.847C18.6207 32.0256 19.5711 32.9647 20.7365 32.9935H27.6282V29.77H21.819V25.5829H25.3695V22.3594H21.819V18.1711H27.6271L27.6282 14.9531H20.7398ZM6.3219 14.9499V32.9869H11.38C15.3862 32.9935 16.6518 29.8866 16.6518 27.8361L16.6508 20.1039C16.6497 18.0523 15.3502 14.9499 11.4869 14.9499H6.3219Z" fill="#828282"/>
</svg>
