<svg width="48" height="49" viewBox="0 0 48 49" fill="none" xmlns="http://www.w3.org/2000/svg">
<g clip-path="url(#clip0_699_9621)">
<path d="M16.0122 4.77516C15.6691 3.49484 14.3531 2.73504 13.0728 3.0781C11.7925 3.42116 11.0327 4.73717 11.3758 6.01749L11.9969 8.33571C12.34 9.61603 13.656 10.3758 14.9363 10.0328C16.2166 9.68971 16.9764 8.3737 16.6334 7.09338L16.0122 4.77516Z" fill="url(#paint0_linear_699_9621)"/>
<path d="M5.82987 11.5634C4.54955 11.2203 3.23354 11.9801 2.89048 13.2604C2.54742 14.5408 3.30722 15.8568 4.58754 16.1998L6.90576 16.821C8.18608 17.1641 9.50208 16.4043 9.84514 15.1239C10.1882 13.8436 9.42841 12.5276 8.14809 12.1845L5.82987 11.5634Z" fill="url(#paint1_linear_699_9621)"/>
<path d="M26.9821 10.1992C27.9194 9.26195 27.9194 7.74235 26.9821 6.8051C26.0449 5.86784 24.5253 5.86784 23.588 6.8051L21.891 8.50215C20.9537 9.43941 20.9537 10.959 21.891 11.8963C22.8282 12.8335 24.3478 12.8335 25.2851 11.8963L26.9821 10.1992Z" fill="url(#paint2_linear_699_9621)"/>
<path d="M10.0116 27.1698L11.7086 25.4727C12.6459 24.5355 12.6459 23.0159 11.7086 22.0786C10.7714 21.1413 9.25179 21.1413 8.31453 22.0786L6.61747 23.7757C5.68021 24.7129 5.68021 26.2325 6.61747 27.1698C7.55473 28.107 9.07433 28.107 10.0116 27.1698Z" fill="url(#paint3_linear_699_9621)"/>
<path d="M17.6914 14.7593C16.8 14.4027 15.7819 14.6117 15.103 15.2905C14.4241 15.9694 14.2152 16.9875 14.5717 17.8789L24.1717 41.8789C24.5227 42.7564 25.356 43.3463 26.3003 43.3855C27.2446 43.4248 28.124 42.9062 28.5467 42.0609L31.8575 35.4392L39.103 42.6847C40.0403 43.6219 41.5599 43.6219 42.4971 42.6847C43.4344 41.7474 43.4344 40.2278 42.4971 39.2905L35.2517 32.0451L41.8734 28.7342C42.7187 28.3116 43.2373 27.4321 43.198 26.4879C43.1587 25.5436 42.5689 24.7103 41.6914 24.3593L17.6914 14.7593Z" fill="url(#paint4_linear_699_9621)"/>
</g>
<defs>
<linearGradient id="paint0_linear_699_9621" x1="2.80811" y1="24.4034" x2="43.2001" y2="24.4034" gradientUnits="userSpaceOnUse">
<stop stop-color="#93D8FF"/>
<stop offset="1" stop-color="#85AFFF"/>
</linearGradient>
<linearGradient id="paint1_linear_699_9621" x1="2.80811" y1="24.4034" x2="43.2001" y2="24.4034" gradientUnits="userSpaceOnUse">
<stop stop-color="#93D8FF"/>
<stop offset="1" stop-color="#85AFFF"/>
</linearGradient>
<linearGradient id="paint2_linear_699_9621" x1="2.80811" y1="24.4034" x2="43.2001" y2="24.4034" gradientUnits="userSpaceOnUse">
<stop stop-color="#93D8FF"/>
<stop offset="1" stop-color="#85AFFF"/>
</linearGradient>
<linearGradient id="paint3_linear_699_9621" x1="2.80811" y1="24.4034" x2="43.2001" y2="24.4034" gradientUnits="userSpaceOnUse">
<stop stop-color="#93D8FF"/>
<stop offset="1" stop-color="#85AFFF"/>
</linearGradient>
<linearGradient id="paint4_linear_699_9621" x1="2.80811" y1="24.4034" x2="43.2001" y2="24.4034" gradientUnits="userSpaceOnUse">
<stop stop-color="#93D8FF"/>
<stop offset="1" stop-color="#85AFFF"/>
</linearGradient>
<clipPath id="clip0_699_9621">
<rect width="48" height="48" fill="white" transform="translate(0 0.1875)"/>
</clipPath>
</defs>
</svg>
