<svg width="96" height="97" viewBox="0 0 96 97" fill="none" xmlns="http://www.w3.org/2000/svg">
<g clip-path="url(#clip0_697_9403)">
<path fill-rule="evenodd" clip-rule="evenodd" d="M69.2132 20.9743C57.4975 9.25857 38.5025 9.25857 26.7868 20.9743C15.0711 32.69 15.0711 51.685 26.7868 63.4007C27.9584 64.5723 27.9584 66.4718 26.7868 67.6433C25.6152 68.8149 23.7157 68.8149 22.5442 67.6433C8.48528 53.5845 8.48528 30.7905 22.5442 16.7317C36.603 2.67278 59.397 2.67278 73.4558 16.7317C80.4845 23.7603 83.9998 32.9785 84 42.1869C84 43.8437 82.6569 45.1869 81.0001 45.1869C79.3432 45.1869 78 43.8438 78 42.187C77.9999 34.5048 75.0715 26.8326 69.2132 20.9743ZM60.7279 29.4596C53.6985 22.4301 42.3015 22.4301 35.2721 29.4596C28.2426 36.489 28.2426 47.886 35.2721 54.9154C36.4437 56.087 36.4437 57.9865 35.2721 59.1581C34.1005 60.3296 32.201 60.3296 31.0294 59.1581C21.6569 49.7855 21.6569 34.5895 31.0294 25.2169C40.402 15.8444 55.598 15.8444 64.9706 25.2169C69.6562 29.9026 71.9999 36.0498 72 42.1872C72 43.8441 70.6569 45.1872 69 45.1873C67.3432 45.1873 66 43.8441 66 42.1873C65.9999 37.5761 64.2432 32.9748 60.7279 29.4596ZM46.1936 34.7147C47.4409 34.3804 48.7621 34.8819 49.4735 35.9595L70.3821 67.627C71.0507 68.6395 71.0435 69.9551 70.3638 70.9603C69.6842 71.9655 68.466 72.4623 67.2772 72.219L58.8881 70.5025L63.067 86.0983C63.4958 87.6987 62.5461 89.3437 60.9457 89.7725C59.3453 90.2013 57.7003 89.2516 57.2715 87.6512L53.0926 72.0556L46.6869 77.7362C45.779 78.5412 44.4756 78.7201 43.3844 78.1895C42.2932 77.6588 41.6291 76.5231 41.7018 75.3118L43.9754 37.4327C44.0528 36.1437 44.9463 35.0489 46.1936 34.7147Z" fill="url(#paint0_linear_697_9403)"/>
</g>
<defs>
<linearGradient id="paint0_linear_697_9403" x1="12" y1="48.0315" x2="84" y2="48.0315" gradientUnits="userSpaceOnUse">
<stop stop-color="#9333EA"/>
<stop offset="1" stop-color="#4F46E5"/>
</linearGradient>
<clipPath id="clip0_697_9403">
<rect width="96" height="96" fill="white" transform="translate(0 0.1875)"/>
</clipPath>
</defs>
</svg>
