<svg xmlns="http://www.w3.org/2000/svg" fill="none" viewBox="0 0 24 24" height="24" width="24">
    <path fill="#000000" fill-rule="evenodd" d="M15.857142857142856 0.42857142857142855c-0.7100742857142858 0 -1.2857142857142856 0.5756331428571427 -1.2857142857142856 1.2857142857142856 0 0.7100742857142858 0.5756399999999999 1.2857142857142856 1.2857142857142856 1.2857142857142856h6.857142857142857c0.7100571428571428 0 1.2857142857142856 -0.5756399999999999 1.2857142857142856 -1.2857142857142856 0 -0.7100811428571429 -0.5756571428571428 -1.2857142857142856 -1.2857142857142856 -1.2857142857142856h-6.857142857142857ZM1.7142857142857142 0.8563062857142857c-0.9467742857142857 0 -1.7142857142857142 0.7675114285714285 -1.7142857142857142 1.7142822857142856v8.571428571428571c0 0.946782857142857 0.7675114285714285 1.7142857142857142 1.7142857142857142 1.7142857142857142h8.571428571428571c0.9467657142857142 0 1.7142857142857142 -0.767502857142857 1.7142857142857142 -1.7142857142857142v-8.571428571428571c0 -0.946770857142857 -0.76752 -1.7142822857142856 -1.7142857142857142 -1.7142822857142856H1.7142857142857142ZM14.571428571428571 6.857142857142857c0 -0.7100742857142858 0.5756399999999999 -1.2857142857142856 1.2857142857142856 -1.2857142857142856h6.857142857142857c0.7100571428571428 0 1.2857142857142856 0.5756399999999999 1.2857142857142856 1.2857142857142856s-0.5756571428571428 1.2857142857142856 -1.2857142857142856 1.2857142857142856h-6.857142857142857c-0.7100742857142858 0 -1.2857142857142856 -0.5756399999999999 -1.2857142857142856 -1.2857142857142856Zm1.2857142857142856 3.8571428571428568c-0.7100742857142858 0 -1.2857142857142856 0.5756399999999999 -1.2857142857142856 1.2857142857142856s0.5756399999999999 1.2857142857142856 1.2857142857142856 1.2857142857142856h6.857142857142857c0.7100571428571428 0 1.2857142857142856 -0.5756399999999999 1.2857142857142856 -1.2857142857142856s-0.5756571428571428 -1.2857142857142856 -1.2857142857142856 -1.2857142857142856h-6.857142857142857ZM0 17.142857142857142c0 -0.7100742857142858 0.5756331428571427 -1.2857142857142856 1.2857142857142856 -1.2857142857142856h21.428571428571427c0.7100571428571428 0 1.2857142857142856 0.5756399999999999 1.2857142857142856 1.2857142857142856 0 0.7100571428571428 -0.5756571428571428 1.2857142857142856 -1.2857142857142856 1.2857142857142856H1.2857142857142856c-0.7100811428571429 0 -1.2857142857142856 -0.5756571428571428 -1.2857142857142856 -1.2857142857142856Zm1.2857142857142856 3.8571428571428568c-0.7100811428571429 0 -1.2857142857142856 0.5756571428571428 -1.2857142857142856 1.2857142857142856s0.5756331428571427 1.2857142857142856 1.2857142857142856 1.2857142857142856h21.428571428571427c0.7100571428571428 0 1.2857142857142856 -0.5756571428571428 1.2857142857142856 -1.2857142857142856s-0.5756571428571428 -1.2857142857142856 -1.2857142857142856 -1.2857142857142856H1.2857142857142856Z" clip-rule="evenodd"/>
</svg> 