<svg width="48" height="48" viewBox="0 0 48 48" fill="none" xmlns="http://www.w3.org/2000/svg">
<g clip-path="url(#clip0_703_8305)">
<path fill-rule="evenodd" clip-rule="evenodd" d="M14.4 4.7998C11.749 4.7998 9.59998 6.94884 9.59998 9.59981V38.3998C9.59998 41.0508 11.749 43.1998 14.4 43.1998H33.6C36.2509 43.1998 38.4 41.0508 38.4 38.3998V17.7939C38.4 16.5209 37.8943 15.3 36.9941 14.3998L28.8 6.20569C27.8998 5.30552 26.6789 4.7998 25.4059 4.7998H14.4ZM26.4 19.1998C26.4 17.8743 25.3255 16.7998 24 16.7998C22.6745 16.7998 21.6 17.8743 21.6 19.1998V23.9998H16.8C15.4745 23.9998 14.4 25.0743 14.4 26.3998C14.4 27.7253 15.4745 28.7998 16.8 28.7998H21.6V33.5998C21.6 34.9253 22.6745 35.9998 24 35.9998C25.3255 35.9998 26.4 34.9253 26.4 33.5998L26.4 28.7998H31.2C32.5255 28.7998 33.6 27.7253 33.6 26.3998C33.6 25.0743 32.5255 23.9998 31.2 23.9998H26.4V19.1998Z" fill="url(#paint0_linear_703_8305)"/>
</g>
<defs>
<linearGradient id="paint0_linear_703_8305" x1="9.59998" y1="25.1518" x2="38.4" y2="25.1518" gradientUnits="userSpaceOnUse">
<stop stop-color="#93D8FF"/>
<stop offset="1" stop-color="#85AFFF"/>
</linearGradient>
<clipPath id="clip0_703_8305">
<rect width="48" height="48" fill="white"/>
</clipPath>
</defs>
</svg>
