<svg width="48" height="48" viewBox="0 0 48 48" fill="none" xmlns="http://www.w3.org/2000/svg">
<g clip-path="url(#clip0_703_8306)">
<path fill-rule="evenodd" clip-rule="evenodd" d="M43.2001 23.9998C43.2001 34.6037 34.6039 43.1998 24 43.1998C13.3962 43.1998 4.80005 34.6037 4.80005 23.9998C4.80005 13.3959 13.3962 4.7998 24 4.7998C34.6039 4.7998 43.2001 13.3959 43.2001 23.9998ZM26.4 14.3998C26.4 15.7253 25.3255 16.7998 24 16.7998C22.6746 16.7998 21.6 15.7253 21.6 14.3998C21.6 13.0743 22.6746 11.9998 24 11.9998C25.3255 11.9998 26.4 13.0743 26.4 14.3998ZM21.6 21.5998C20.2746 21.5998 19.2 22.6743 19.2 23.9998C19.2 25.3253 20.2746 26.3998 21.6 26.3998V33.5998C21.6 34.9253 22.6746 35.9998 24 35.9998H26.4C27.7255 35.9998 28.8 34.9253 28.8 33.5998C28.8 32.2743 27.7255 31.1998 26.4 31.1998V23.9998C26.4 22.6743 25.3255 21.5998 24 21.5998H21.6Z" fill="url(#paint0_linear_703_8306)"/>
</g>
<defs>
<linearGradient id="paint0_linear_703_8306" x1="4.80005" y1="25.1518" x2="43.2001" y2="25.1518" gradientUnits="userSpaceOnUse">
<stop stop-color="#93D8FF"/>
<stop offset="1" stop-color="#85AFFF"/>
</linearGradient>
<clipPath id="clip0_703_8306">
<rect width="47.9999" height="48" fill="white"/>
</clipPath>
</defs>
</svg>
