<svg width="48" height="48" viewBox="0 0 48 48" fill="none" xmlns="http://www.w3.org/2000/svg">
<g clip-path="url(#clip0_703_8304)">
<path fill-rule="evenodd" clip-rule="evenodd" d="M12 9.59961C8.02354 9.59961 4.79999 12.8232 4.79999 16.7996V31.1996C4.79999 35.1761 8.02354 38.3996 12 38.3996H36C39.9764 38.3996 43.2 35.1761 43.2 31.1996V16.7996C43.2 12.8232 39.9764 9.59961 36 9.59961H12ZM9.59999 31.1996V28.7996H21.6V33.5996H12C10.6745 33.5996 9.59999 32.5251 9.59999 31.1996ZM26.4 33.5996H36C37.3255 33.5996 38.4 32.5251 38.4 31.1996V28.7996H26.4V33.5996ZM26.4 23.9996H38.4V19.1996H26.4V23.9996ZM21.6 19.1996H9.59999V23.9996H21.6V19.1996Z" fill="url(#paint0_linear_703_8304)"/>
</g>
<defs>
<linearGradient id="paint0_linear_703_8304" x1="4.79999" y1="24.8636" x2="43.2" y2="24.8636" gradientUnits="userSpaceOnUse">
<stop stop-color="#93D8FF"/>
<stop offset="1" stop-color="#85AFFF"/>
</linearGradient>
<clipPath id="clip0_703_8304">
<rect width="48" height="48" fill="white"/>
</clipPath>
</defs>
</svg>
