<svg width="48" height="48" viewBox="0 0 48 48" fill="none" xmlns="http://www.w3.org/2000/svg">
<g clip-path="url(#clip0_708_10473)">
<g clip-path="url(#clip1_708_10473)">
<mask id="mask0_708_10473" style="mask-type:luminance" maskUnits="userSpaceOnUse" x="0" y="0" width="48" height="48">
<path d="M47.5102 0H0.489746V48H47.5102V0Z" fill="white"/>
</mask>
<g mask="url(#mask0_708_10473)">
<path d="M24.0366 0C11.0138 0 0.489746 10.74 0.489746 24.03C0.489746 34.635 7.20693 43.68 16.5552 46.845C17.7457 47.04 18.216 46.305 18.216 45.675V41.535C11.6458 42.99 10.2054 38.37 10.2054 38.37C9.16182 35.595 7.58908 34.875 7.58908 34.875C5.44312 33.375 7.78016 33.42 7.78016 33.42C10.1172 33.57 11.3519 35.85 11.3519 35.85C13.4538 39.54 16.9226 38.43 18.2601 37.845C18.4953 36.285 19.1127 35.175 19.7888 34.59C14.5414 33.96 8.97074 32.01 8.97074 22.77C8.97074 20.145 9.88207 18 11.3519 16.35C11.1168 15.72 10.3524 13.335 11.6311 10.035C11.6311 10.035 13.5419 9.405 18.0691 12.465C19.921 11.925 22.0229 11.595 24.0219 11.595C26.0209 11.595 28.0787 11.94 29.9748 12.465C34.4578 9.405 36.3539 10.035 36.3539 10.035C37.6473 13.335 36.8831 15.72 36.6479 16.35C38.1177 18 39.029 20.145 39.029 22.77C39.029 32.01 33.4583 33.96 28.211 34.59C29.0635 35.325 29.7838 36.78 29.7838 39.015V45.675C29.7838 46.35 30.2541 47.085 31.4447 46.845C40.7781 43.635 47.5101 34.635 47.5101 24.03C47.5541 10.755 36.9712 0 24.0219 0H24.0366Z" fill="#828282"/>
</g>
</g>
</g>
<defs>
<clipPath id="clip0_708_10473">
<rect width="48" height="48" fill="white"/>
</clipPath>
<clipPath id="clip1_708_10473">
<rect width="48" height="48" fill="white"/>
</clipPath>
</defs>
</svg>
