<svg width="64" height="64" viewBox="0 0 64 64" fill="none" xmlns="http://www.w3.org/2000/svg">
<g clip-path="url(#clip0_3454_3006)">
<path d="M17.5017 37.9928L46.7817 28.2158C46.1967 24.5558 45.7798 22.1109 45.2968 20.2449C44.7763 18.2379 44.3638 17.7009 44.2018 17.5149C43.6372 16.8687 42.9343 16.358 42.1453 16.0209C41.9173 15.9234 41.2783 15.6969 39.2113 15.8214C37.0243 15.9534 34.1532 16.4004 29.6067 17.1204C25.0617 17.8404 22.1922 18.3039 20.0727 18.8529C18.0672 19.3734 17.5287 19.7874 17.3427 19.9494C16.6977 20.5149 16.1877 21.2169 15.8502 22.0059C15.7527 22.2339 15.5262 22.8729 15.6507 24.9413C15.7827 27.1283 16.2297 30.0008 16.9497 34.5473C17.1507 35.8223 17.3322 36.9623 17.5017 37.9928Z" fill="#74D4FF"/>
<path fill-rule="evenodd" clip-rule="evenodd" d="M9.42904 35.7383C8.03704 26.9423 7.33954 22.5443 8.84854 19.0133C9.63516 17.1718 10.8267 15.5311 12.3345 14.2133C15.225 11.6888 19.6216 10.9928 28.4146 9.59933C37.2106 8.20433 41.6086 7.50833 45.1396 9.01733C46.9801 9.80421 48.6197 10.9957 49.9366 12.5033C52.4626 15.3953 53.1586 19.7933 54.5506 28.5908C55.9441 37.3868 56.6401 41.7863 55.1311 45.3158C54.3449 47.1574 53.1539 48.7979 51.6466 50.1158C48.7561 52.6418 44.358 53.3378 35.5635 54.7313C26.7706 56.1248 22.3725 56.8208 18.843 55.3118C17.0025 54.5249 15.3629 53.3335 14.046 51.8258C11.52 48.9338 10.8225 44.5358 9.42904 35.7383ZM24.9406 51.3593C27.2956 51.2168 30.3286 50.7413 34.8181 50.0303C39.3091 49.3193 42.3376 48.8333 44.6236 48.2408C46.8361 47.6663 47.8561 47.1068 48.5146 46.5308C49.4834 45.6836 50.2489 44.629 50.7541 43.4453C51.0991 42.6413 51.3165 41.4983 51.1785 39.2153C51.036 36.8603 50.5606 33.8258 49.8496 29.3348C49.1386 24.8438 48.6541 21.8123 48.0616 19.5278C47.4871 17.3138 46.926 16.2938 46.3515 15.6353C45.5049 14.6661 44.4509 13.9002 43.2675 13.3943C42.4635 13.0493 41.3205 12.8318 39.0375 12.9698C36.6825 13.1123 33.6511 13.5878 29.1616 14.2988C24.6706 15.0113 21.6405 15.4958 19.356 16.0883C17.142 16.6628 16.1235 17.2238 15.465 17.7983C14.4957 18.6454 13.7298 19.7 13.224 20.8838C12.8805 21.6878 12.663 22.8308 12.801 25.1138C12.9435 27.4703 13.4175 30.5033 14.13 34.9943C14.841 39.4853 15.3255 42.5168 15.918 44.8013C16.4925 47.0153 17.052 48.0353 17.628 48.6938C18.4747 49.663 19.5288 50.429 20.712 50.9348C21.516 51.2798 22.6561 51.4973 24.9406 51.3593Z" fill="#74D4FF"/>
<path fill-rule="evenodd" clip-rule="evenodd" d="M172.56 17.1985V45.6685H176.772V17.1985H172.56ZM238.373 36.6206C238.373 42.5096 242.702 46.1755 248.708 46.1755C254.675 46.1755 259.043 42.5096 259.043 36.6206V18.3685H254.558V36.3475C254.558 39.5455 252.725 41.8076 248.708 41.8076C244.691 41.8076 242.858 39.5455 242.858 36.3475V18.3685H238.373V36.6206ZM268.687 18.3685H264.201V45.6685H268.687V18.3685ZM224.179 31.5506C224.179 33.0136 225.962 33.509 228.058 34.0915C231.046 34.9217 234.67 35.9288 234.67 40.1696C234.67 44.0696 231.276 46.1756 227.064 46.1756C223.164 46.1756 220.356 44.4206 219.108 41.6126L222.735 39.5066C223.359 41.2616 224.919 42.3146 227.064 42.3146C228.936 42.3146 230.38 41.6906 230.38 40.1306C230.38 38.6953 228.586 38.1869 226.481 37.5907C223.498 36.7451 219.889 35.7227 219.889 31.6286C219.889 27.9626 223.047 25.6616 227.025 25.6616C230.223 25.6616 232.875 27.1436 234.24 29.7176L230.691 31.7066C229.989 30.1856 228.624 29.4836 227.025 29.4836C225.504 29.4836 224.179 30.1466 224.179 31.5506ZM211.262 34.0915C209.166 33.509 207.383 33.0136 207.383 31.5506C207.383 30.1466 208.709 29.4836 210.23 29.4836C211.829 29.4836 213.194 30.1856 213.896 31.7066L217.445 29.7176C216.08 27.1436 213.428 25.6616 210.23 25.6616C206.252 25.6616 203.093 27.9626 203.093 31.6286C203.093 35.7227 206.702 36.7451 209.686 37.5907C211.79 38.1869 213.584 38.6953 213.584 40.1306C213.584 41.6906 212.141 42.3146 210.269 42.3146C208.124 42.3146 206.564 41.2616 205.94 39.5066L202.313 41.6126C203.561 44.4206 206.369 46.1756 210.269 46.1756C214.481 46.1756 217.874 44.0696 217.874 40.1696C217.874 35.9288 214.25 34.9217 211.262 34.0915ZM184.977 37.7126C185.64 40.7546 188.097 42.3146 191.217 42.3146C193.557 42.3146 195.313 41.2616 196.249 39.8966L199.719 41.9246C197.925 44.5766 195 46.1756 191.178 46.1756C184.743 46.1756 180.57 41.7686 180.57 35.9186C180.57 30.1466 184.744 25.6616 190.867 25.6616C196.678 25.6616 200.655 30.3416 200.655 35.9576C200.655 36.5426 200.577 37.1666 200.499 37.7126H184.977ZM184.938 34.2806H196.404C195.819 30.9266 193.363 29.4836 190.828 29.4836C187.669 29.4836 185.523 31.3556 184.938 34.2806ZM163.439 18.3685H167.651V45.6685H163.439V42.8605C161.957 44.9276 159.656 46.1755 156.613 46.1755C151.309 46.1755 146.902 41.6905 146.902 35.9185C146.902 30.1075 151.309 25.6615 156.613 25.6615C159.656 25.6615 161.957 26.9095 163.439 28.9375V18.3685ZM157.276 42.1585C160.787 42.1585 163.439 39.5455 163.439 35.9185C163.439 32.2915 160.787 29.6785 157.276 29.6785C153.766 29.6785 151.114 32.2915 151.114 35.9185C151.114 39.5455 153.766 42.1585 157.276 42.1585ZM143.085 26.1686H138.873V28.9376C137.391 26.9096 135.09 25.6616 132.048 25.6616C126.744 25.6616 122.337 30.1076 122.337 35.9186C122.337 41.6906 126.744 46.1756 132.048 46.1756C135.09 46.1756 137.391 44.9276 138.873 42.8606V45.6686H143.085V26.1686ZM138.873 35.9186C138.873 39.5456 136.221 42.1586 132.711 42.1586C129.201 42.1586 126.549 39.5456 126.549 35.9186C126.549 32.2916 129.201 29.6786 132.711 29.6786C136.221 29.6786 138.873 32.2916 138.873 35.9186ZM104.159 37.7126C104.822 40.7546 107.279 42.3146 110.399 42.3146C112.739 42.3146 114.494 41.2616 115.43 39.8966L118.901 41.9246C117.107 44.5766 114.182 46.1756 110.36 46.1756C103.925 46.1756 99.752 41.7686 99.752 35.9186C99.752 30.1466 103.925 25.6616 110.048 25.6616C115.859 25.6616 119.837 30.3416 119.837 35.9576C119.837 36.5426 119.759 37.1666 119.681 37.7126H104.159ZM104.12 34.2806H115.586C115.001 30.9266 112.544 29.4836 110.009 29.4836C106.85 29.4836 104.705 31.3556 104.12 34.2806ZM95.6603 18.3685H91.1753V29.5615H79.4753V18.3685H74.9903V45.6685H79.4753V33.8515H91.1753V45.6685H95.6603V18.3685Z" fill="white"/>
</g>
<defs>
<clipPath id="clip0_3454_3006">
<rect width="48" height="48" fill="white" transform="translate(8 8.16846)"/>
</clipPath>
</defs>
</svg>
