<svg width="64" height="64" viewBox="0 0 64 64" fill="none" xmlns="http://www.w3.org/2000/svg">
<path d="M15 19.9705V34.3122C15 34.9901 15.3523 35.62 15.9318 35.9785L25.8175 42.093C27.1349 42.9078 28.8412 41.9675 28.8412 40.4267V28.3714C28.8412 27.6778 29.2099 27.0357 29.811 26.6822L35.8412 23.1366V54.0337C35.8412 55.5693 37.5372 56.5104 38.8549 55.706L49.0583 49.4772C49.6435 49.1199 50 48.4869 50 47.8049V18.1349C50 16.6067 48.3188 15.6645 47.0006 16.4538L35.8412 23.1366V9.96627C35.8412 8.44228 34.1681 7.4994 32.8498 8.28046L15.9642 18.2847C15.3662 18.639 15 19.2793 15 19.9705Z" fill="white"/>
</svg>
