<svg width="48" height="48" viewBox="0 0 48 48" fill="none" xmlns="http://www.w3.org/2000/svg">
<g clip-path="url(#clip0_703_8302)">
<path fill-rule="evenodd" clip-rule="evenodd" d="M7.20001 7.20019C8.5255 7.20019 9.60001 8.27471 9.60001 9.60019L9.60001 38.4002C9.60001 39.7257 8.52549 40.8002 7.20001 40.8002C5.87452 40.8002 4.80001 39.7257 4.80001 38.4002L4.80001 9.60019C4.80001 8.27471 5.87453 7.20019 7.20001 7.20019ZM25.6971 15.1031C26.6343 16.0404 26.6343 17.56 25.6971 18.4972L22.5941 21.6002L40.8 21.6002C42.1255 21.6002 43.2 22.6747 43.2 24.0002C43.2 25.3257 42.1255 26.4002 40.8 26.4002L22.5941 26.4002L25.6971 29.5031C26.6343 30.4404 26.6343 31.96 25.6971 32.8972C24.7598 33.8345 23.2402 33.8345 22.303 32.8972L15.103 25.6972C14.6529 25.2472 14.4 24.6367 14.4 24.0002C14.4 23.3637 14.6529 22.7532 15.103 22.3031L22.303 15.1031C23.2402 14.1659 24.7598 14.1659 25.6971 15.1031Z" fill="url(#paint0_linear_703_8302)"/>
</g>
<defs>
<linearGradient id="paint0_linear_703_8302" x1="22.848" y1="7.20019" x2="22.848" y2="40.8002" gradientUnits="userSpaceOnUse">
<stop stop-color="#93D8FF"/>
<stop offset="1" stop-color="#85AFFF"/>
</linearGradient>
<clipPath id="clip0_703_8302">
<rect width="48" height="48" fill="white"/>
</clipPath>
</defs>
</svg>
