<svg width="48" height="49" viewBox="0 0 48 49" fill="none" xmlns="http://www.w3.org/2000/svg">
<g clip-path="url(#clip0_699_9628)">
<path fill-rule="evenodd" clip-rule="evenodd" d="M16.7999 4.98755C18.1254 4.98755 19.1999 6.06207 19.1999 7.38755V9.78755H20.9573C20.9855 9.78705 21.0139 9.78704 21.0423 9.78755H26.3999C27.7254 9.78755 28.7999 10.8621 28.7999 12.1875C28.7999 13.513 27.7254 14.5875 26.3999 14.5875H22.9871C22.1192 18.6375 20.7137 22.4872 18.8497 26.0587C19.5475 26.9087 20.2791 27.73 21.0423 28.5207C21.9629 29.4743 21.9361 30.9937 20.9825 31.9143C20.0288 32.8349 18.5095 32.8081 17.5889 31.8544C17.135 31.3842 16.6912 30.9043 16.2576 30.415C14.1334 33.5717 11.6252 36.4477 8.80054 38.9758C7.81288 39.8598 6.29561 39.7757 5.41163 38.7881C4.52764 37.8004 4.61169 36.2831 5.59936 35.3992C8.51078 32.7934 11.0451 29.7767 13.1114 26.4409C11.7758 24.5473 10.5807 22.5472 9.54132 20.4556C8.95144 19.2686 9.43549 17.8282 10.6225 17.2383C11.8095 16.6484 13.2499 17.1325 13.8398 18.3195C14.4004 19.4476 15.0118 20.5462 15.671 21.6123C16.6727 19.3701 17.4779 17.0212 18.0647 14.5875H7.19995C5.87447 14.5875 4.79995 13.513 4.79995 12.1875C4.79995 10.8621 5.87447 9.78755 7.19995 9.78755H14.3999V7.38755C14.3999 6.06207 15.4745 4.98755 16.7999 4.98755ZM31.1999 19.3875C32.109 19.3875 32.94 19.9012 33.3466 20.7142L40.525 35.071C40.5405 35.1006 40.5555 35.1305 40.5698 35.1608L42.9466 39.9142C43.5393 41.0998 43.0588 42.5414 41.8733 43.1342C40.6877 43.727 39.2461 43.2464 38.6533 42.0609L36.9167 38.5876H25.4832L23.7466 42.0609C23.1538 43.2464 21.7122 43.727 20.5266 43.1342C19.3411 42.5414 18.8605 41.0998 19.4533 39.9142L21.8301 35.1608C21.8444 35.1305 21.8594 35.1006 21.8749 35.071L29.0533 20.7142C29.4599 19.9012 30.2909 19.3875 31.1999 19.3875ZM27.8832 33.7875H34.5167L31.1999 27.1541L27.8832 33.7875Z" fill="url(#paint0_linear_699_9628)"/>
</g>
<defs>
<linearGradient id="paint0_linear_699_9628" x1="4.79993" y1="25.3398" x2="43.2005" y2="25.3398" gradientUnits="userSpaceOnUse">
<stop stop-color="#93D8FF"/>
<stop offset="1" stop-color="#85AFFF"/>
</linearGradient>
<clipPath id="clip0_699_9628">
<rect width="48.0001" height="48" fill="white" transform="translate(0 0.1875)"/>
</clipPath>
</defs>
</svg>
