<svg width="48" height="49" viewBox="0 0 48 49" fill="none" xmlns="http://www.w3.org/2000/svg">
<g clip-path="url(#clip0_700_9819)">
<path d="M23.2888 3.36679C23.7328 3.12774 24.2672 3.12774 24.7112 3.36679L44.2112 13.8668C44.697 14.1284 45 14.6357 45 15.1875C45 15.7393 44.697 16.2466 44.2112 16.5082L24.7112 27.0082C24.2672 27.2473 23.7328 27.2473 23.2888 27.0082L3.78885 16.5082C3.30299 16.2466 3 15.7393 3 15.1875C3 14.6357 3.30299 14.1284 3.78885 13.8668L23.2888 3.36679Z" fill="url(#paint0_linear_700_9819)"/>
<path d="M6.52936 21.3911L21.8666 29.6496C23.1984 30.3668 24.8016 30.3668 26.1334 29.6496L41.4706 21.3911L44.2112 22.8668C44.697 23.1284 45 23.6357 45 24.1875C45 24.7393 44.697 25.2466 44.2112 25.5082L24.7112 36.0082C24.2672 36.2472 23.7328 36.2472 23.2888 36.0082L3.78885 25.5082C3.30299 25.2466 3 24.7393 3 24.1875C3 23.6357 3.30299 23.1284 3.78885 22.8668L6.52936 21.3911Z" fill="url(#paint1_linear_700_9819)"/>
<path d="M21.8666 38.6496L6.52936 30.3911L3.78885 31.8668C3.30299 32.1284 3 32.6357 3 33.1875C3 33.7393 3.30299 34.2466 3.78885 34.5082L23.2888 45.0082C23.7328 45.2472 24.2672 45.2472 24.7112 45.0082L44.2112 34.5082C44.697 34.2466 45 33.7393 45 33.1875C45 32.6357 44.697 32.1284 44.2112 31.8668L41.4706 30.3911L26.1334 38.6496C24.8016 39.3668 23.1984 39.3668 21.8666 38.6496Z" fill="url(#paint2_linear_700_9819)"/>
</g>
<defs>
<linearGradient id="paint0_linear_700_9819" x1="3" y1="25.4475" x2="45" y2="25.4475" gradientUnits="userSpaceOnUse">
<stop stop-color="#93D8FF"/>
<stop offset="1" stop-color="#85AFFF"/>
</linearGradient>
<linearGradient id="paint1_linear_700_9819" x1="3" y1="25.4475" x2="45" y2="25.4475" gradientUnits="userSpaceOnUse">
<stop stop-color="#93D8FF"/>
<stop offset="1" stop-color="#85AFFF"/>
</linearGradient>
<linearGradient id="paint2_linear_700_9819" x1="3" y1="25.4475" x2="45" y2="25.4475" gradientUnits="userSpaceOnUse">
<stop stop-color="#93D8FF"/>
<stop offset="1" stop-color="#85AFFF"/>
</linearGradient>
<clipPath id="clip0_700_9819">
<rect width="48" height="48" fill="white" transform="translate(0 0.1875)"/>
</clipPath>
</defs>
</svg>
