<svg width="48" height="49" viewBox="0 0 48 49" fill="none" xmlns="http://www.w3.org/2000/svg">
<g clip-path="url(#clip0_699_9622)">
<path d="M16.8 7.38745C15.4746 7.38745 14.4 8.46197 14.4 9.78745C14.4 11.1129 15.4746 12.1875 16.8 12.1875H31.2C32.5255 12.1875 33.6 11.1129 33.6 9.78745C33.6 8.46197 32.5255 7.38745 31.2 7.38745H16.8Z" fill="url(#paint0_linear_699_9622)"/>
<path d="M9.60005 16.9875C9.60005 15.662 10.6746 14.5875 12 14.5875H36.0001C37.3255 14.5875 38.4001 15.662 38.4001 16.9875C38.4001 18.3129 37.3255 19.3875 36.0001 19.3875H12C10.6746 19.3875 9.60005 18.3129 9.60005 16.9875Z" fill="url(#paint1_linear_699_9622)"/>
<path d="M4.80005 26.5875C4.80005 23.9365 6.94908 21.7875 9.60005 21.7875H38.4001C41.051 21.7875 43.2001 23.9365 43.2001 26.5875V36.1874C43.2001 38.8384 41.051 40.9874 38.4001 40.9874H9.60005C6.94908 40.9874 4.80005 38.8384 4.80005 36.1874V26.5875Z" fill="url(#paint2_linear_699_9622)"/>
</g>
<defs>
<linearGradient id="paint0_linear_699_9622" x1="4.80005" y1="25.1954" x2="43.2001" y2="25.1954" gradientUnits="userSpaceOnUse">
<stop stop-color="#93D8FF"/>
<stop offset="1" stop-color="#85AFFF"/>
</linearGradient>
<linearGradient id="paint1_linear_699_9622" x1="4.80005" y1="25.1954" x2="43.2001" y2="25.1954" gradientUnits="userSpaceOnUse">
<stop stop-color="#93D8FF"/>
<stop offset="1" stop-color="#85AFFF"/>
</linearGradient>
<linearGradient id="paint2_linear_699_9622" x1="4.80005" y1="25.1954" x2="43.2001" y2="25.1954" gradientUnits="userSpaceOnUse">
<stop stop-color="#93D8FF"/>
<stop offset="1" stop-color="#85AFFF"/>
</linearGradient>
<clipPath id="clip0_699_9622">
<rect width="48" height="48" fill="white" transform="translate(0 0.1875)"/>
</clipPath>
</defs>
</svg>
