<svg width="96" height="97" viewBox="0 0 96 97" fill="none" xmlns="http://www.w3.org/2000/svg">
<g clip-path="url(#clip0_697_9404)">
<path fill-rule="evenodd" clip-rule="evenodd" d="M6 22.6875C6 18.5454 9.35786 15.1875 13.5 15.1875H82.5C86.6421 15.1875 90 18.5454 90 22.6875V73.6875C90 77.8296 86.6421 81.1875 82.5 81.1875H13.5C9.35786 81.1875 6 77.8296 6 73.6875V22.6875ZM84 37.6875C84 36.8591 83.3284 36.1875 82.5 36.1875H52.5C51.6716 36.1875 51 36.8591 51 37.6875V43.6875C51 44.5159 51.6716 45.1875 52.5 45.1875H82.5C83.3284 45.1875 84 44.5159 84 43.6875V37.6875ZM84 52.6875C84 51.8591 83.3284 51.1875 82.5 51.1875H52.5C51.6716 51.1875 51 51.8591 51 52.6875V58.6875C51 59.5159 51.6716 60.1875 52.5 60.1875H82.5C83.3284 60.1875 84 59.5159 84 58.6875V52.6875ZM84 67.6875C84 66.8591 83.3284 66.1875 82.5 66.1875H52.5C51.6716 66.1875 51 66.8591 51 67.6875V73.6875C51 74.5159 51.6716 75.1875 52.5 75.1875H82.5C83.3284 75.1875 84 74.5159 84 73.6875V67.6875ZM43.5 75.1875C44.3284 75.1875 45 74.5159 45 73.6875V67.6875C45 66.8591 44.3284 66.1875 43.5 66.1875H13.5C12.6716 66.1875 12 66.8591 12 67.6875V73.6875C12 74.5159 12.6716 75.1875 13.5 75.1875H43.5ZM13.5 60.1875H43.5C44.3284 60.1875 45 59.5159 45 58.6875V52.6875C45 51.8591 44.3284 51.1875 43.5 51.1875H13.5C12.6716 51.1875 12 51.8591 12 52.6875V58.6875C12 59.5159 12.6716 60.1875 13.5 60.1875ZM13.5 45.1875H43.5C44.3284 45.1875 45 44.5159 45 43.6875V37.6875C45 36.8591 44.3284 36.1875 43.5 36.1875H13.5C12.6716 36.1875 12 36.8591 12 37.6875V43.6875C12 44.5159 12.6716 45.1875 13.5 45.1875Z" fill="url(#paint0_linear_697_9404)"/>
</g>
<defs>
<linearGradient id="paint0_linear_697_9404" x1="6" y1="48.1875" x2="90" y2="48.1875" gradientUnits="userSpaceOnUse">
<stop stop-color="#9333EA"/>
<stop offset="1" stop-color="#4F46E5"/>
</linearGradient>
<clipPath id="clip0_697_9404">
<rect width="96" height="96" fill="white" transform="translate(0 0.1875)"/>
</clipPath>
</defs>
</svg>
