<svg width="64" height="64" viewBox="0 0 64 64" fill="none" xmlns="http://www.w3.org/2000/svg">
<path d="M56 32.25C56 18.9952 45.2549 8.25 32.0003 8.25C18.7451 8.25 8 18.9952 8 32.25C8 45.5045 18.7451 56.25 32 56.25C45.2549 56.25 56 45.5045 56 32.25Z" fill="#339AF0"/>
<path d="M27.531 20.927C27.3159 21.2177 27.1918 21.5651 27.1741 21.9257C27.1564 22.2862 27.246 22.644 27.4316 22.9542C27.5547 23.1592 27.7175 23.338 27.9105 23.4801C30.7059 25.5521 32.3108 28.7201 32.3108 32.1731C32.3108 35.6262 30.7059 38.7942 27.9105 40.8661C27.7177 41.0083 27.5551 41.1871 27.4322 41.3921C27.1826 41.8075 27.1087 42.3045 27.2267 42.7741C27.285 43.0067 27.3883 43.2255 27.531 43.4178C27.6734 43.6101 27.8526 43.7726 28.0584 43.8958C28.2641 44.019 28.4923 44.1005 28.7298 44.1356C28.9673 44.1708 29.2095 44.1589 29.4423 44.1005C29.6752 44.0422 29.8942 43.9387 30.0867 43.7959C30.9477 43.1574 31.7364 42.4277 32.439 41.6197H37.6169C38.6251 41.6197 39.4444 40.8034 39.4444 39.7957C39.4444 38.788 38.6269 37.9717 37.6169 37.9717H34.7591C35.5579 36.1422 35.9682 34.1681 35.9641 32.1734C35.9683 30.1785 35.5582 28.2043 34.7593 26.3745H37.6187C38.6269 26.3745 39.4459 25.5585 39.4459 24.5506C39.4459 23.5428 38.6284 22.7268 37.6187 22.7268H32.442C31.739 21.9181 30.9498 21.1877 30.0882 20.5486C29.8959 20.406 29.6772 20.3026 29.4447 20.2443C29.2121 20.186 28.9703 20.174 28.7331 20.2091C28.2532 20.2808 27.8215 20.539 27.5328 20.927H27.531Z" fill="white"/>
<path fill-rule="evenodd" clip-rule="evenodd" d="M24.6459 31.629C24.6372 31.266 24.7008 30.9049 24.833 30.5665C24.9647 30.229 25.1626 29.921 25.4152 29.6604C25.6668 29.4009 25.9682 29.1943 26.3015 29.0529C26.6338 28.912 26.9914 28.8394 27.3527 28.8394C27.714 28.8394 28.0716 28.912 28.404 29.0529C28.7374 29.1943 29.0388 29.4009 29.2905 29.6604C29.5431 29.921 29.741 30.229 29.8727 30.5665C30.0047 30.9049 30.0681 31.2661 30.0592 31.629C30.0428 32.3381 29.7504 33.0132 29.2437 33.5122C28.7404 34.0077 28.061 34.286 27.3529 34.2867C26.6445 34.2861 25.9649 34.0079 25.4614 33.5122C24.9547 33.0132 24.6623 32.3381 24.6459 31.629Z" fill="white"/>
</svg>
