<svg xmlns="http://www.w3.org/2000/svg" fill="none" viewBox="0 0 24 24" height="24" width="24">
    <path fill="#000000" fill-rule="evenodd" d="M12.000034285714285 -0.0012555805714285714c4.494051428571428 0 8.238994285714284 3.7449641519999997 8.238994285714284 8.239032723428572 0 1.4667257142857142 -0.5041714285714285 2.913222857142857 -1.208742857142857 4.223794285714286 -0.7073142857142857 1.31568 -1.6436571428571427 2.54412 -2.573897142857143 3.589954285714285 -0.9320057142857142 1.0478914285714285 -1.8737314285714286 1.9301314285714284 -2.607445714285714 2.553445714285714 -0.36648 0.3113142857142857 -0.6872571428571428 0.5633142857142857 -0.9345771428571429 0.7417714285714285 -0.12212571428571428 0.08811428571428571 -0.23655428571428572 0.1656 -0.33533142857142856 0.22491428571428573 -0.048068571428571426 0.028799999999999996 -0.10664571428571429 0.06205714285714286 -0.16894285714285714 0.09085714285714284 -0.031011428571428568 0.014228571428571427 -0.07561714285714285 0.033428571428571426 -0.12884571428571429 0.05039999999999999 -0.04186285714285714 0.01337142857142857 -0.14650285714285713 0.04474285714285714 -0.28121142857142856 0.04474285714285714 -0.13590857142857143 0 -0.24137142857142857 -0.03188571428571428 -0.28337142857142855 -0.04542857142857142 -0.053502857142857144 -0.017314285714285713 -0.09827999999999999 -0.03668571428571428 -0.12934285714285715 -0.05108571428571428 -0.06241714285714285 -0.029142857142857144 -0.12104571428571428 -0.06257142857142857 -0.16909714285714286 -0.0917142857142857 -0.09874285714285713 -0.059828571428571425 -0.21311999999999998 -0.13799999999999998 -0.33517714285714284 -0.2268 -0.2471485714285714 -0.17965714285714285 -0.5677885714285714 -0.4333714285714286 -0.93408 -0.746742857142857 -0.7333542857142856 -0.6270857142857142 -1.6746342857142857 -1.5138857142857143 -2.606194285714286 -2.564588571428571 -0.9297085714285713 -1.0485942857142856 -1.8655714285714284 -2.2781485714285714 -2.5726799999999996 -3.590742857142857 -0.7040742857142858 -1.3069714285714285 -1.2090857142857143 -2.7475542857142856 -1.2090857142857143 -4.202777142857143 0 -4.4940685714285715 3.7449599999999994 -8.239032723428572 8.239028571428571 -8.239032723428572Zm0 10.699649866285712c-1.358982857142857 0 -2.4606342857142858 -1.1016514285714285 -2.4606342857142858 -2.4606171428571426 0 -1.3589657142857143 1.1016514285714285 -2.4606342857142858 2.4606342857142858 -2.4606342857142858 1.3589657142857143 0 2.4606171428571426 1.1016685714285714 2.4606171428571426 2.4606342857142858s-1.1016514285714285 2.4606171428571426 -2.4606171428571426 2.4606171428571426Zm5.31288 6.712577142857143c0.3162857142857143 -0.35556 0.632742857142857 -0.7280742857142857 0.9433714285714285 -1.1150742857142857h2.3024571428571425c0.34285714285714286 0 0.6528 0.20434285714285713 0.7878857142857143 0.5194971428571428l2.567485714285714 5.99112c0.11348571428571427 0.26485714285714285 0.08639999999999999 0.5689714285714285 -0.07217142857142857 0.8094857142857143 -0.15857142857142856 0.2405142857142857 -0.4275428571428571 0.3852 -0.715542857142857 0.3852H0.8736891428571428c-0.28812171428571426 0 -0.5569697142857143 -0.14468571428571428 -0.7155774857142857 -0.3852 -0.1586086577142857 -0.2405142857142857 -0.18575725714285712 -0.5446285714285714 -0.07225971428571429 -0.8094857142857143L2.6534571428571425 16.815394285714284c0.13506857142857143 -0.3151542857142857 0.44496 -0.5194971428571428 0.7878514285714285 -0.5194971428571428h2.323422857142857c0.30354857142857145 0.3779657142857143 0.6125485714285714 0.7422514285714285 0.9212742857142857 1.0903885714285713 1.1340514285714285 1.2792 2.2801371428571424 2.3590285714285715 3.172371428571428 3.121885714285714 0.44573142857142856 0.3812571428571428 0.8343085714285714 0.6886285714285714 1.1318914285714285 0.9049714285714285 0.14725714285714286 0.10714285714285714 0.28248 0.19937142857142856 0.39692571428571427 0.26862857142857144 0.05590285714285714 0.03394285714285714 0.12109714285714285 0.07097142857142856 0.18869142857142857 0.10251428571428571 0.03366857142857143 0.01577142857142857 0.08069142857142857 0.036 0.13608 0.05382857142857142 0.04390285714285714 0.014228571428571427 0.15090857142857142 0.04645714285714285 0.28796571428571427 0.04645714285714285 0.13589142857142855 0 0.24207428571428571 -0.03171428571428571 0.2858228571428571 -0.045599999999999995 0.05513142857142857 -0.017657142857142857 0.10198285714285714 -0.03771428571428571 0.13558285714285712 -0.05331428571428571 0.06749142857142858 -0.0312 0.13261714285714285 -0.06788571428571429 0.18853714285714285 -0.10148571428571429 0.11448 -0.06874285714285713 0.24973714285714285 -0.16028571428571428 0.39708 -0.26657142857142857 0.2977542857142857 -0.2148 0.6864857142857143 -0.5199428571428572 1.1324057142857142 -0.8987999999999999 0.8925771428571427 -0.7582285714285715 2.039125714285714 -1.8323999999999998 3.1735542857142853 -3.107828571428571Z" clip-rule="evenodd"/>
</svg> 