<svg width="16" height="16" viewBox="0 0 16 16" fill="none" xmlns="http://www.w3.org/2000/svg">
  <g>
    <path id="Subtract" fill="#93d8ff" fill-rule="evenodd" d="M1.664902857142857 0.5714285714285714C0.7454045714285713 0.5714285714285714 0 1.3168342857142858 0 2.2363314285714284v8.670194285714286C0 11.826057142857142 0.7454057142857142 12.571428571428571 1.664902857142857 12.571428571428571h4.601451428571429l-0.6116571428571428 1.7090285714285713h-1.0832914285714283c-0.47338285714285716 0 -0.8571428571428571 0.38377142857142854 -0.8571428571428571 0.8571428571428571s0.38375999999999993 0.8571428571428571 0.8571428571428571 0.8571428571428571h6.857142857142857c0.47339428571428566 0 0.8571657142857143 -0.38377142857142854 0.8571657142857143 -0.8571428571428571s-0.38377142857142854 -0.8571428571428571 -0.8571657142857143 -0.8571428571428571h-1.0832457142857141L9.733645714285714 12.571428571428571h4.601439999999999C15.25462857142857 12.571428571428571 16 11.826057142857142 16 10.906525714285713V2.2363314285714284C16 1.3168342857142858 15.25462857142857 0.5714285714285714 14.335085714285714 0.5714285714285714H1.664902857142857Zm7.463291428571428 2.61544c0.4490971428571428 0.1496914285714286 0.6918057142857142 0.6351085714285714 0.5421028571428571 1.0842057142857142l-1.7142857142857142 5.142857142857142c-0.1496914285714286 0.4490971428571428 -0.6351085714285714 0.6918057142857142 -1.0842057142857142 0.5421028571428571 -0.4490971428571428 -0.1496914285714286 -0.6918057142857142 -0.6351085714285714 -0.5421028571428571 -1.0842057142857142l1.7142857142857142 -5.142857142857142c0.1496914285714286 -0.4490971428571428 0.6351085714285714 -0.6918057142857142 1.0842057142857142 -0.5421028571428571ZM5.700674285714285 5.793668571428571c0.35942857142857143 -0.3080685714285714 0.40105142857142856 -0.8491885714285714 0.09297142857142857 -1.2086057142857143 -0.3080685714285714 -0.35942857142857143 -0.8491885714285714 -0.40105142857142856 -1.2086057142857143 -0.09297142857142857l-2 1.7142857142857142c-0.19156571428571426 0.1641942857142857 -0.3010514285714285 0.40444571428571424 -0.29930285714285715 0.6567428571428571 0.0017485714285714283 0.25229714285714283 0.11457142857142857 0.49100571428571427 0.30838857142857146 0.6525257142857143l1.7142857142857142 1.4285714285714284c0.3636685714285714 0.3030514285714286 0.9041485714285714 0.25392 1.2072114285714286 -0.10974857142857143 0.3030514285714286 -0.3636685714285714 0.25392 -0.9041485714285714 -0.10974857142857143 -1.2072114285714286l-0.9351771428571428 -0.7793142857142856 1.2299771428571429 -1.0542742857142857Zm5.990868571428571 -1.0235542857142856c-0.36362285714285714 -0.3030514285714286 -0.9041028571428571 -0.25392 -1.2071657142857142 0.10974857142857143 -0.3030514285714286 0.3636685714285714 -0.25392 0.9041485714285714 0.10974857142857143 1.2072114285714286l0.9351314285714285 0.7793142857142856 -1.2299314285714285 1.0542742857142857c-0.35942857142857143 0.3080685714285714 -0.40105142857142856 0.8491885714285714 -0.09297142857142857 1.2086057142857143 0.3080685714285714 0.35942857142857143 0.8491885714285714 0.40105142857142856 1.2086057142857143 0.09297142857142857l2.0000114285714283 -1.7142857142857142c0.19154285714285713 -0.1641942857142857 0.3010285714285714 -0.40444571428571424 0.2993142857142857 -0.6567428571428571 -0.0018285714285714285 -0.25229714285714283 -0.11462857142857143 -0.49100571428571427 -0.3084571428571428 -0.6525257142857143l-1.7142857142857142 -1.4285714285714284Z" clip-rule="evenodd" stroke-width="1.1429"></path>
  </g>
</svg> 