<svg width="48" height="49" viewBox="0 0 48 49" fill="none" xmlns="http://www.w3.org/2000/svg">
<g clip-path="url(#clip0_700_9821)">
<path fill-rule="evenodd" clip-rule="evenodd" d="M13.9393 5.12684C14.5251 4.54105 15.4749 4.54105 16.0607 5.12684L25.0607 14.1268C25.6464 14.7126 25.6464 15.6624 25.0607 16.2482C24.4749 16.8339 23.5251 16.8339 22.9393 16.2482L16.5 9.80882V33.1875C16.5 34.0159 15.8284 34.6875 15 34.6875C14.1716 34.6875 13.5 34.0159 13.5 33.1875V9.80882L7.06066 16.2482C6.47487 16.8339 5.52513 16.8339 4.93934 16.2482C4.35355 15.6624 4.35355 14.7126 4.93934 14.1268L13.9393 5.12684ZM33 13.6875C33.8284 13.6875 34.5 14.3591 34.5 15.1875L34.5 38.5662L40.9393 32.1268C41.5251 31.5411 42.4749 31.5411 43.0607 32.1268C43.6464 32.7126 43.6464 33.6624 43.0607 34.2482L34.0607 43.2482C33.7794 43.5295 33.3978 43.6875 33 43.6875C32.6022 43.6875 32.2206 43.5295 31.9393 43.2482L22.9393 34.2482C22.3536 33.6624 22.3536 32.7126 22.9393 32.1268C23.5251 31.541 24.4749 31.541 25.0607 32.1268L31.5 38.5662L31.5 15.1875C31.5 14.3591 32.1716 13.6875 33 13.6875Z" fill="url(#paint0_linear_700_9821)"/>
</g>
<defs>
<linearGradient id="paint0_linear_700_9821" x1="4.5" y1="25.3575" x2="43.5" y2="25.3575" gradientUnits="userSpaceOnUse">
<stop stop-color="#93D8FF"/>
<stop offset="1" stop-color="#85AFFF"/>
</linearGradient>
<clipPath id="clip0_700_9821">
<rect width="48" height="48" fill="white" transform="translate(0 0.1875)"/>
</clipPath>
</defs>
</svg>
