<svg xmlns="http://www.w3.org/2000/svg" fill="none" viewBox="0 0 24 24" height="24" width="24">
    <path fill="#000000" fill-rule="evenodd" d="M3.0446914285714284 0.13068497142857144c-0.7728342857142857 0 -1.514004 0.30700474285714285 -2.0604754285714284 0.8534778857142856C0.43774285714285716 1.5306359999999999 0.13073725714285714 2.271805714285714 0.13073725714285714 3.04464v2.44236c0 0.7100914285714285 0.5756341714285714 1.2857142857142856 1.2857136 1.2857142857142856 0.7100862857142857 0 1.2857091428571428 -0.5756228571428571 1.2857091428571428 -1.2857142857142856V3.04464c0 -0.09084 0.03608571428571428 -0.17795999999999998 0.10033714285714285 -0.2421942857142857 0.06423428571428572 -0.06425142857142857 0.1513542857142857 -0.10033714285714285 0.2421942857142857 -0.10033714285714285h2.44236c0.7100914285714285 0 1.2857142857142856 -0.5756228571428571 1.2857142857142856 -1.2857091428571428 0 -0.7100811428571429 -0.5756228571428571 -1.285714457142857 -1.2857142857142856 -1.285714457142857H3.0446914285714284ZM6.850045714285714 4.706725714285714c-1.1834742857142857 0 -2.142857142857143 0.9593999999999999 -2.142857142857143 2.142857142857143v3.5536457142857145c0 1.1834742857142857 0.9593828571428571 2.142857142857143 2.142857142857143 2.142857142857143h3.5536457142857145c1.1834571428571428 0 2.142857142857143 -0.9593828571428571 2.142857142857143 -2.142857142857143V6.849582857142857c0 -1.1834742857142857 -0.9593999999999999 -2.142857142857143 -2.142857142857143 -2.142857142857143H6.850045714285714Zm0.42857142857142855 5.267931428571429V7.278154285714285h2.696502857142857v2.696502857142857H7.278617142857144ZM17.227371428571427 1.416529714285714c0 -0.7100794285714286 0.5756571428571428 -1.2857139428571427 1.2857142857142856 -1.2857139428571427h2.442342857142857c0.7727999999999999 0 1.5140571428571428 0.30700594285714283 2.0605714285714285 0.8534773714285714 0.5463428571428571 0.5464731428571429 0.8533714285714286 1.2876497142857144 0.8533714285714286 2.0604839999999998v2.44236c0 0.7100742857142858 -0.5756571428571428 1.2857142857142856 -1.2857142857142856 1.2857142857142856s-1.2857142857142856 -0.5756399999999999 -1.2857142857142856 -1.2857142857142856V3.0447771428571424c0 -0.09085714285714284 -0.036 -0.17797714285714283 -0.10028571428571428 -0.24221142857142855 -0.06428571428571428 -0.06423428571428572 -0.15137142857142857 -0.10031999999999999 -0.24222857142857143 -0.10031999999999999h-2.442342857142857c-0.7100571428571428 0 -1.2857142857142856 -0.5756399999999999 -1.2857142857142856 -1.285716ZM2.702262857142857 18.513085714285715c0 -0.7100571428571428 -0.5756228571428571 -1.2857142857142856 -1.2857074285714285 -1.2857142857142856 -0.7100794285714286 0 -1.2857134285714287 0.5756571428571428 -1.2857134285714287 1.2857142857142856v2.442342857142857c0 0.7727999999999999 0.3070054285714286 1.5140571428571428 0.8534785714285713 2.0605714285714285 0.5464714285714285 0.5463428571428571 1.2876394285714285 0.8533714285714286 2.060473714285714 0.8533714285714286h2.44236c0.7100914285714285 0 1.2857142857142856 -0.5756571428571428 1.2857142857142856 -1.2857142857142856s-0.5756228571428571 -1.2857142857142856 -1.2857142857142856 -1.2857142857142856H3.0447942857142856c-0.09084 0 -0.17795999999999998 -0.036 -0.2421942857142857 -0.10028571428571428 -0.06423428571428572 -0.06428571428571428 -0.10033714285714285 -0.15137142857142857 -0.10033714285714285 -0.24222857142857143v-2.442342857142857Zm19.881394285714283 -1.2857142857142856c0.7100571428571428 0 1.2857142857142856 0.5756571428571428 1.2857142857142856 1.2857142857142856v2.442342857142857c0 0.7727999999999999 -0.30702857142857143 1.5140571428571428 -0.8533714285714286 2.0605714285714285 -0.5465142857142856 0.5463428571428571 -1.2877714285714286 0.8533714285714286 -2.0605714285714285 0.8533714285714286h-2.442342857142857c-0.7100571428571428 0 -1.2857142857142856 -0.5756571428571428 -1.2857142857142856 -1.2857142857142856s0.5756571428571428 -1.2857142857142856 1.2857142857142856 -1.2857142857142856h2.442342857142857c0.09085714285714284 0 0.17794285714285715 -0.036 0.24222857142857143 -0.10028571428571428 0.06428571428571428 -0.06428571428571428 0.10028571428571428 -0.15137142857142857 0.10028571428571428 -0.24222857142857143v-2.442342857142857c0 -0.7100571428571428 0.5756571428571428 -1.2857142857142856 1.2857142857142856 -1.2857142857142856Zm-15.304954285714285 -1.47288c0 -0.7100742857142858 -0.5756399999999999 -1.2857142857142856 -1.2857142857142856 -1.2857142857142856s-1.2857142857142856 0.5756399999999999 -1.2857142857142856 1.2857142857142856v2.2527085714285713c0 0.7100571428571428 0.5756399999999999 1.2857142857142856 1.2857142857142856 1.2857142857142856H8.245714285714284c0.7100742857142858 0 1.2857142857142856 -0.5756571428571428 1.2857142857142856 -1.2857142857142856s-0.5756399999999999 -1.2856971428571429 -1.2857142857142856 -1.2856971428571429h-0.9670114285714285v-0.9670114285714285Zm2.502942857142857 0c0 -0.7100742857142858 0.5756399999999999 -1.2857142857142856 1.2857142857142856 -1.2857142857142856h0.9326057142857141c0.7100914285714285 0 1.2857142857142856 0.5756399999999999 1.2857142857142856 1.2857142857142856v2.2527085714285713c0 0.7100571428571428 -0.5756228571428571 1.2857142857142856 -1.2857142857142856 1.2857142857142856 -0.7100742857142858 0 -1.2857142857142856 -0.5756571428571428 -1.2857142857142856 -1.2857142857142856v-1.0160742857142855c-0.5383885714285714 -0.1534457142857143 -0.9326057142857141 -0.6489942857142857 -0.9326057142857141 -1.2366342857142856Zm7.258628571428572 -9.761914285714285c0 -0.7100914285714285 -0.5756399999999999 -1.2857142857142856 -1.2857142857142856 -1.2857142857142856 -0.7100914285714285 0 -1.2857142857142856 0.5756228571428571 -1.2857142857142856 1.2857142857142856v2.252725714285714c0 0.7100742857142858 0.5756228571428571 1.2857142857142856 1.2857142857142856 1.2857142857142856h2.25264c0.7102285714285714 0 1.2857142857142856 -0.5756399999999999 1.2857142857142856 -1.2857142857142856 0 -0.7100914285714285 -0.5754857142857143 -1.2857142857142856 -1.2857142857142856 -1.2857142857142856l-0.9669257142857142 0v-0.9670114285714285Zm-2.571428571428571 6.007388571428571c0 -0.7100742857142858 0.5756228571428571 -1.2857142857142856 1.2857142857142856 -1.2857142857142856h2.25264c0.7102285714285714 0 1.2857142857142856 0.5756399999999999 1.2857142857142856 1.2857142857142856v1.0954457142857141c0 0.7100742857142858 -0.5754857142857143 1.2856971428571429 -1.2857142857142856 1.2856971428571429 -0.6454285714285714 0 -1.1797028571428572 -0.4755771428571428 -1.2716571428571428 -1.0954285714285714h-0.980982857142857c-0.7100914285714285 0 -1.2857142857142856 -0.5756228571428571 -1.2857142857142856 -1.2857142857142856Zm2.571428571428571 3.7545257142857142c0 -0.7100742857142858 -0.5756399999999999 -1.2857142857142856 -1.2857142857142856 -1.2857142857142856 -0.7100914285714285 0 -1.2857142857142856 0.5756399999999999 -1.2857142857142856 1.2857142857142856v2.2527085714285713c0 0.7100571428571428 0.5756228571428571 1.2857142857142856 1.2857142857142856 1.2857142857142856h2.25264c0.7102285714285714 0 1.2857142857142856 -0.5756571428571428 1.2857142857142856 -1.2857142857142856s-0.5754857142857143 -1.2856971428571429 -1.2857142857142856 -1.2856971428571429h-0.9669257142857142v-0.9670114285714285Z" clip-rule="evenodd"/>
</svg> 