<svg width="108" height="97" viewBox="0 0 108 97" fill="none" xmlns="http://www.w3.org/2000/svg">
<g clip-path="url(#clip0_700_9816)">
<g clip-path="url(#clip1_700_9816)">
<path d="M54.0001 57.8046C59.3115 57.8046 63.6172 53.4988 63.6172 48.1874C63.6172 42.876 59.3115 38.5703 54.0001 38.5703C48.6887 38.5703 44.3829 42.876 44.3829 48.1874C44.3829 53.4988 48.6887 57.8046 54.0001 57.8046Z" fill="url(#paint0_linear_700_9816)"/>
<path fill-rule="evenodd" clip-rule="evenodd" d="M44.1876 31.1918C42.3978 33.8174 40.6493 36.5961 38.9678 39.5085C37.2863 42.421 35.7541 45.3246 34.3753 48.1874C35.7541 51.0502 37.2863 53.9538 38.9678 56.8663C40.6493 59.7788 42.3979 62.5575 44.1877 65.183C47.3563 65.4203 50.637 65.5452 54.0001 65.5452C57.3631 65.5452 60.6438 65.4203 63.8125 65.183C65.6023 62.5575 67.3508 59.7788 69.0323 56.8663C70.7138 53.9538 72.246 51.0502 73.6249 48.1874C72.246 45.3246 70.7138 42.421 69.0323 39.5085C67.3508 36.5961 65.6023 33.8174 63.8125 31.1918C60.6438 30.9546 57.3631 30.8297 54.0001 30.8297C50.637 30.8297 47.3563 30.9546 44.1876 31.1918ZM38.17 31.7921C37.0574 33.5313 35.9672 35.3232 34.905 37.1629C33.8429 39.0026 32.8362 40.8427 31.8862 42.6759C30.5518 39.5089 29.4172 36.4208 28.4884 33.4583C31.5185 32.7814 34.76 32.2199 38.17 31.7921ZM47.7163 26.2805C49.7788 26.1866 51.8758 26.1384 54.0001 26.1384C56.1243 26.1384 58.2213 26.1866 60.2839 26.2805C58.2084 23.5413 56.1013 21.0148 54.0001 18.7292C51.8988 21.0148 49.7918 23.5413 47.7163 26.2805ZM50.7271 15.3582C47.638 18.6995 44.5614 22.509 41.595 26.7012C36.4812 27.1741 31.6438 27.9338 27.2055 28.9384C26.6998 26.9386 26.2991 25.0141 26.0055 23.1816C25.2414 18.412 25.2234 14.392 25.8775 11.3343C26.5316 8.27619 27.7899 6.44108 29.3708 5.52832C30.9518 4.61557 33.1702 4.4434 36.1456 5.40597C39.1207 6.36845 42.5931 8.39396 46.3416 11.4405C47.7819 12.6111 49.2481 13.9203 50.7271 15.3582ZM57.273 15.3581C60.3621 18.6995 63.4387 22.509 66.4051 26.7012C71.5189 27.1741 76.3563 27.9338 80.7946 28.9384C81.3003 26.9386 81.701 25.0141 81.9946 23.1816C82.7587 18.412 82.7767 14.392 82.1227 11.3343C81.4686 8.27619 80.2103 6.44108 78.6293 5.52832C77.0484 4.61556 74.83 4.4434 71.8545 5.40597C68.8794 6.36844 65.407 8.39396 61.6585 11.4405C60.2183 12.6111 58.752 13.9203 57.273 15.3581ZM85.3417 30.0923C85.8809 27.9605 86.3104 25.8986 86.6268 23.9237C87.444 18.8232 87.5278 14.1755 86.7102 10.353C85.8926 6.53093 84.106 3.27326 80.9749 1.46555C77.8439 -0.342163 74.1293 -0.260618 70.4105 0.942448C66.6914 2.14562 62.7083 4.542 58.6996 7.8C57.1476 9.06146 55.5767 10.4643 54.0001 11.9972C52.4234 10.4643 50.8526 9.06146 49.3005 7.80001C45.2918 4.54201 41.3087 2.14562 37.5896 0.94245C33.8708 -0.260615 30.1562 -0.34216 27.0252 1.46555C23.8941 3.27327 22.1075 6.53093 21.29 10.353C20.4724 14.1755 20.5561 18.8232 21.3733 23.9237C21.6897 25.8986 22.1192 27.9605 22.6584 30.0923C20.5426 30.6913 18.5422 31.3502 16.6737 32.0637C11.8479 33.9063 7.78102 36.1575 4.87948 38.7768C1.97819 41.3959 0.050293 44.572 0.050293 48.1874C0.050293 51.8028 1.97819 54.979 4.87948 57.598C7.78102 60.2173 11.8479 62.4686 16.6737 64.3112C18.5422 65.0246 20.5426 65.6836 22.6584 66.2825C22.1192 68.4144 21.6897 70.4762 21.3733 72.4511C20.5561 77.5517 20.4724 82.1993 21.29 86.0218C22.1075 89.8439 23.8941 93.1016 27.0252 94.9093C30.1562 96.717 33.8708 96.6355 37.5896 95.4324C41.3087 94.2292 45.2918 91.8328 49.3005 88.5748C50.8526 87.3134 52.4234 85.9105 54.0001 84.3776C55.5767 85.9105 57.1476 87.3134 58.6996 88.5748C62.7083 91.8328 66.6914 94.2292 70.4105 95.4324C74.1293 96.6355 77.8439 96.717 80.9749 94.9093C84.106 93.1016 85.8926 89.8439 86.7102 86.0218C87.5278 82.1993 87.444 77.5517 86.6268 72.4511C86.3104 70.4762 85.8809 68.4144 85.3417 66.2825C87.4575 65.6836 89.4579 65.0246 91.3264 64.3112C96.1522 62.4686 100.219 60.2173 103.121 57.598C106.022 54.979 107.95 51.8028 107.95 48.1874C107.95 44.572 106.022 41.3959 103.121 38.7768C100.219 36.1575 96.1522 33.9063 91.3264 32.0637C89.4579 31.3502 87.4575 30.6913 85.3417 30.0923ZM79.5117 33.4583C76.4817 32.7814 73.2401 32.2199 69.8301 31.7921C70.9427 33.5313 72.033 35.3232 73.0951 37.1629C74.1572 39.0026 75.164 40.8427 76.1139 42.6759C77.4484 39.5089 78.5829 36.4208 79.5117 33.4583ZM78.8102 48.1874C80.9576 43.5223 82.7183 38.9532 84.0675 34.6072C86.0522 35.1691 87.9192 35.7844 89.653 36.4464C94.1657 38.1694 97.656 40.1638 99.9771 42.2591C102.298 44.3546 103.259 46.3619 103.259 48.1874C103.259 50.0129 102.298 52.0202 99.9771 54.1157C97.656 56.211 94.1657 58.2055 89.653 59.9285C87.9192 60.5905 86.0522 61.2057 84.0675 61.7676C82.7183 57.4216 80.9576 52.8525 78.8102 48.1874ZM76.1139 53.6989C75.164 55.5321 74.1572 57.3723 73.0951 59.2119C72.033 61.0516 70.9427 62.8435 69.8301 64.5828C73.2401 64.155 76.4817 63.5935 79.5117 62.9165C78.5829 59.954 77.4484 56.866 76.1139 53.6989ZM80.7946 67.4365C76.3563 68.4411 71.5189 69.2008 66.4051 69.6736C63.4387 73.8659 60.3621 77.6753 57.273 81.0167C58.752 82.4546 60.2183 83.7638 61.6585 84.9343C65.407 87.9809 68.8794 90.0064 71.8545 90.9689C74.83 91.9314 77.0484 91.7593 78.6293 90.8465C80.2103 89.9338 81.4686 88.0987 82.1227 85.0406C82.7767 81.9828 82.7587 77.9628 81.9946 73.1932C81.701 71.3607 81.3003 69.4363 80.7946 67.4365ZM54.0001 77.6457C56.1013 75.3601 58.2083 72.8335 60.2839 70.0943C58.2213 70.1882 56.1243 70.2365 54.0001 70.2365C51.8758 70.2365 49.7788 70.1882 47.7163 70.0943C49.7918 72.8335 51.8988 75.3601 54.0001 77.6457ZM38.17 64.5828C37.0574 62.8435 35.9672 61.0516 34.905 59.2119C33.8429 57.3723 32.8362 55.5321 31.8862 53.6989C30.5518 56.866 29.4172 59.954 28.4884 62.9165C31.5185 63.5935 34.7601 64.155 38.17 64.5828ZM27.2055 67.4365C31.6438 68.4411 36.4812 69.2008 41.595 69.6736C44.5614 73.8659 47.638 77.6753 50.7271 81.0167C49.2481 82.4546 47.7819 83.7638 46.3416 84.9343C42.5931 87.9809 39.1207 90.0064 36.1456 90.9689C33.1702 91.9314 30.9518 91.7593 29.3708 90.8465C27.7899 89.9338 26.5316 88.0987 25.8775 85.0406C25.2234 81.9828 25.2414 77.9628 26.0055 73.1932C26.2991 71.3607 26.6998 69.4363 27.2055 67.4365ZM23.9326 61.7676C21.9479 61.2057 20.0809 60.5905 18.3471 59.9285C13.8345 58.2055 10.3441 56.211 8.02301 54.1157C5.70168 52.0202 4.74158 50.0129 4.74158 48.1874C4.74158 46.3619 5.70168 44.3546 8.02301 42.2591C10.3441 40.1638 13.8345 38.1694 18.3471 36.4464C20.0809 35.7844 21.9479 35.1691 23.9326 34.6072C25.2818 38.9532 27.0425 43.5223 29.1899 48.1874C27.0425 52.8525 25.2818 57.4216 23.9326 61.7676Z" fill="url(#paint1_linear_700_9816)"/>
</g>
</g>
<defs>
<linearGradient id="paint0_linear_700_9816" x1="44.3829" y1="48.1874" x2="63.6172" y2="48.1874" gradientUnits="userSpaceOnUse">
<stop stop-color="#9333EA"/>
<stop offset="1" stop-color="#4F46E5"/>
</linearGradient>
<linearGradient id="paint1_linear_700_9816" x1="0.050293" y1="48.1874" x2="107.95" y2="48.1874" gradientUnits="userSpaceOnUse">
<stop stop-color="#9333EA"/>
<stop offset="1" stop-color="#4F46E5"/>
</linearGradient>
<clipPath id="clip0_700_9816">
<rect width="107.9" height="96" fill="white" transform="translate(0.050293 0.1875)"/>
</clipPath>
<clipPath id="clip1_700_9816">
<rect width="107.9" height="96" fill="white" transform="translate(0.050293 0.1875)"/>
</clipPath>
</defs>
</svg>
