<svg width="48" height="49" viewBox="0 0 48 49" fill="none" xmlns="http://www.w3.org/2000/svg">
<g clip-path="url(#clip0_699_9625)">
<path fill-rule="evenodd" clip-rule="evenodd" d="M12 4.98755C13.3255 4.98755 14.4 6.06207 14.4 7.38755V9.78755H16.8C18.1255 9.78755 19.2 10.8621 19.2 12.1875C19.2 13.513 18.1255 14.5875 16.8 14.5875H14.4V16.9875C14.4 18.313 13.3255 19.3875 12 19.3875C10.6745 19.3875 9.59999 18.313 9.59999 16.9875V14.5875H7.19999C5.8745 14.5875 4.79999 13.513 4.79999 12.1875C4.79999 10.8621 5.8745 9.78755 7.19999 9.78755H9.59999V7.38755C9.59999 6.06207 10.6745 4.98755 12 4.98755ZM12 28.9875C13.3255 28.9875 14.4 30.0621 14.4 31.3875V33.7875H16.8C18.1255 33.7875 19.2 34.8621 19.2 36.1876C19.2 37.513 18.1255 38.5876 16.8 38.5876H14.4V40.9876C14.4 42.313 13.3255 43.3876 12 43.3876C10.6745 43.3876 9.59999 42.313 9.59999 40.9876V38.5876H7.19999C5.8745 38.5876 4.79999 37.513 4.79999 36.1876C4.79999 34.8621 5.8745 33.7875 7.19999 33.7875H9.59999V31.3875C9.59999 30.0621 10.6745 28.9875 12 28.9875Z" fill="url(#paint0_linear_699_9625)"/>
<path fill-rule="evenodd" clip-rule="evenodd" d="M28.7999 4.98755C29.8888 4.98755 30.8413 5.72071 31.12 6.77341L33.9501 17.465L41.9992 22.1087C42.7421 22.5373 43.1999 23.3298 43.1999 24.1875C43.1999 25.0453 42.7421 25.8378 41.9992 26.2664L33.9501 30.9101L31.12 41.6017C30.8413 42.6544 29.8888 43.3876 28.7999 43.3876C27.7109 43.3876 26.7584 42.6544 26.4798 41.6017L23.6496 30.9101L15.6006 26.2664C14.8577 25.8378 14.4 25.0453 14.4 24.1875C14.4 23.3298 14.8577 22.5373 15.6006 22.1087L23.6496 17.465L26.4798 6.77341C26.7584 5.72071 27.7109 4.98755 28.7999 4.98755Z" fill="url(#paint1_linear_699_9625)"/>
</g>
<defs>
<linearGradient id="paint0_linear_699_9625" x1="4.79999" y1="25.3395" x2="43.1999" y2="25.3395" gradientUnits="userSpaceOnUse">
<stop stop-color="#93D8FF"/>
<stop offset="1" stop-color="#85AFFF"/>
</linearGradient>
<linearGradient id="paint1_linear_699_9625" x1="4.79999" y1="25.3395" x2="43.1999" y2="25.3395" gradientUnits="userSpaceOnUse">
<stop stop-color="#93D8FF"/>
<stop offset="1" stop-color="#85AFFF"/>
</linearGradient>
<clipPath id="clip0_699_9625">
<rect width="48" height="48" fill="white" transform="translate(0 0.1875)"/>
</clipPath>
</defs>
</svg>
