<svg width="64" height="64" viewBox="0 0 64 64" fill="none" xmlns="http://www.w3.org/2000/svg">
<path d="M31.5765 8.21527C32.1972 7.90898 32.9334 7.9295 33.5388 8.27709L52.3215 19.0597C53.3211 19.6336 53.6661 20.909 53.0923 21.9086C52.5184 22.9081 51.243 23.2532 50.2434 22.6793L32.5038 12.4955L22.5884 18.236L47.2478 44.8425C47.6791 45.3078 47.8754 45.944 47.7811 46.5714C47.6867 47.1988 47.3118 47.7491 46.7627 48.067L33.5453 55.7192C32.9009 56.0923 32.1065 56.0937 31.4607 55.7229L12.678 44.9403C11.6785 44.3664 11.3335 43.091 11.9073 42.0914C12.4812 41.0919 13.7566 40.7469 14.7562 41.3207L32.4954 51.5042L42.4108 45.7637L17.7517 19.1576C17.3205 18.6922 17.1241 18.056 17.2185 17.4286C17.3128 16.8012 17.6877 16.2509 18.2368 15.933L31.4543 8.28083L31.5765 8.21527Z" fill="url(#paint0_linear_3373_2031)"/>
<path d="M14.7976 44.9158C13.8116 45.5126 12.5286 45.197 11.9318 44.211C11.335 43.225 11.6506 41.942 12.6366 41.3452L23.6635 34.6712L15.8041 26.1912V35.8261C15.8041 36.9787 14.8697 37.9131 13.7171 37.9131C12.5645 37.9131 11.6301 36.9787 11.6301 35.8261V20.8695C11.6301 20.011 12.1559 19.24 12.9552 18.9266C13.7545 18.6132 14.6641 18.8214 15.2477 19.4511L28.4651 33.712C28.8915 34.1721 29.0884 34.7997 29.0011 35.4209C28.9138 36.0421 28.5517 36.591 28.015 36.9158L14.7976 44.9158Z" fill="url(#paint1_linear_3373_2031)"/>
<path d="M50.202 19.0842C51.188 18.4874 52.471 18.803 53.0678 19.789C53.6646 20.7751 53.349 22.0581 52.363 22.6549L41.3361 29.3288L49.1955 37.8088V28.1739C49.1955 27.0213 50.1299 26.0869 51.2825 26.0869C52.4351 26.0869 53.3694 27.0213 53.3694 28.1739V43.1305C53.3694 43.989 52.8436 44.76 52.0444 45.0734C51.2451 45.3869 50.3355 45.1786 49.7519 44.549L36.5344 30.2881C36.108 29.8279 35.9112 29.2004 35.9984 28.5791C36.0857 27.958 36.4479 27.409 36.9845 27.0842L50.202 19.0842Z" fill="url(#paint2_linear_3373_2031)"/>
<path d="M13.7171 44.174C14.2934 44.174 14.7606 43.7068 14.7606 43.1305C14.7606 42.5542 14.2934 42.087 13.7171 42.087C13.1408 42.087 12.6736 42.5542 12.6736 43.1305C12.6736 43.7068 13.1408 44.174 13.7171 44.174Z" fill="#6594ED"/>
<path d="M51.2825 21.913C51.8588 21.913 52.3259 21.4458 52.3259 20.8695C52.3259 20.2932 51.8588 19.8261 51.2825 19.8261C50.7062 19.8261 50.239 20.2932 50.239 20.8695C50.239 21.4458 50.7062 21.913 51.2825 21.913Z" fill="#6594ED"/>
<defs>
<linearGradient id="paint0_linear_3373_2031" x1="2703.05" y1="560.802" x2="1401.58" y2="4942.84" gradientUnits="userSpaceOnUse">
<stop stop-color="#6594ED"/>
<stop offset="1" stop-color="#316BD9"/>
</linearGradient>
<linearGradient id="paint1_linear_3373_2031" x1="2161.9" y1="11.7899" x2="1280.69" y2="3074.53" gradientUnits="userSpaceOnUse">
<stop stop-color="#EC5060"/>
<stop offset="1" stop-color="#EA7480"/>
</linearGradient>
<linearGradient id="paint2_linear_3373_2031" x1="2161.9" y1="11.7898" x2="1279.96" y2="3123.44" gradientUnits="userSpaceOnUse">
<stop stop-color="#EC5060"/>
<stop offset="1" stop-color="#EA7480"/>
</linearGradient>
</defs>
</svg>
