<svg width="64" height="64" viewBox="0 0 64 64" fill="none" xmlns="http://www.w3.org/2000/svg">
<path d="M8 8.16846H56V56.1685H8V8.16846Z" fill="#34BDB2"/>
<path d="M39.5864 24.4886C37.0522 23.0183 34.8026 21.862 31.8596 21.913C30.1758 21.9422 28.7302 22.8574 28.4262 24.5323C28.1433 26.0906 29.5286 26.955 30.9697 27.4856C33.3597 28.3658 35.4404 29.295 37.7889 30.2736C42.0581 32.0528 44.2471 34.9341 43.9884 38.631C43.6591 43.3348 40.8282 46.7085 36.3292 47.8208C30.4503 49.2743 24.7415 47.0603 19.9181 43.9695C21.1355 42.115 22.5479 40.849 23.7581 39.0056C26.5447 40.1918 28.7339 41.7945 31.6492 42.0445C33.7047 42.2207 36.0339 42.1226 36.4957 39.7082C36.9119 37.531 35.0171 36.3638 33.1689 35.7118C30.9686 34.9358 28.7724 33.9865 26.6146 33.1052C22.6259 31.476 21.0029 28.2895 21.2761 24.5355C21.2761 22.3345 23.1024 17.8856 27.5801 16.5019C34.4598 14.3756 38.2503 16.5529 43.2391 19.759C41.9141 21.5113 40.8954 22.7573 39.5864 24.4886Z" fill="white"/>
</svg>
