<svg width="64" height="64" viewBox="0 0 64 64" fill="none" xmlns="http://www.w3.org/2000/svg">
<path d="M46.5373 30.5373C47.787 29.2876 49.8131 29.2876 51.0627 30.5373C52.3124 31.787 52.3124 33.813 51.0627 35.0627L35.0627 51.0627C33.813 52.3124 31.787 52.3124 30.5373 51.0627C29.2876 49.8131 29.2876 47.787 30.5373 46.5373L46.5373 30.5373Z" fill="white"/>
<path d="M43.3373 12.9373C44.587 11.6876 46.6131 11.6876 47.8627 12.9373C49.1124 14.1869 49.1124 16.213 47.8627 17.4627L17.4627 47.8627C16.213 49.1124 14.1869 49.1124 12.9373 47.8627C11.6876 46.6131 11.6876 44.587 12.9373 43.3373L43.3373 12.9373Z" fill="white"/>
</svg>
