<svg width="64" height="64" viewBox="0 0 64 64" fill="none" xmlns="http://www.w3.org/2000/svg">
<path d="M32.5017 16C25.3887 16 20.9452 19.5557 19.165 26.6672C21.833 23.113 24.9433 21.7783 28.499 22.6676C30.5275 23.1735 31.9787 24.6449 33.582 26.2745C36.1972 28.9285 39.2236 32 45.8338 32C52.9452 32 57.3887 28.4443 59.1674 21.3344C56.501 24.8885 53.3891 26.2233 49.8349 25.3324C47.8049 24.8265 46.3537 23.3551 44.7505 21.7255C42.1353 19.073 39.1088 16 32.5017 16ZM19.165 32C12.0567 32 7.6101 35.5557 5.83301 42.6672C8.49942 39.1115 11.6113 37.7783 15.1654 38.6676C17.1955 39.1735 18.6467 40.6449 20.2499 42.2745C22.8651 44.9285 25.8916 48 32.5017 48C39.6132 48 44.0567 44.4458 45.8338 37.3344C43.1674 40.8885 40.0571 42.2233 36.5014 41.334C34.4728 40.8265 33.0217 39.3536 31.4169 37.7255C28.8032 35.0715 25.7752 32 19.165 32Z" fill="#00BCFF"/>
</svg>
