<svg width="64" height="64" viewBox="0 0 64 64" fill="none" xmlns="http://www.w3.org/2000/svg">
<path fill-rule="evenodd" clip-rule="evenodd" d="M14.5 39.5V37H17V34.5H19.5V32H22V19.5H24.5V14.5H29.5V12H42V14.5H44.5V17H47V22H52V24.5H49.5V27H52V29.5H49.5V32H47V37H49.5V39.5H52V47H49.5V49.5H44.5V52H22V49.5H17V47H14.5V44.5H12V39.5H14.5ZM34.5 22H32V24.5H34.5V22ZM42 19.5H39.5V22H42V19.5Z" fill="#ECD20A"/>
<path d="M34.5 22H32V24.5H34.5V22Z" fill="black"/>
<path d="M42 19.5H39.5V22H42V19.5Z" fill="black"/>
</svg>
