<svg width="48" height="48" viewBox="0 0 48 48" fill="none" xmlns="http://www.w3.org/2000/svg">
<g clip-path="url(#clip0_708_10475)">
<g clip-path="url(#clip1_708_10475)">
<mask id="mask0_708_10475" style="mask-type:luminance" maskUnits="userSpaceOnUse" x="0" y="0" width="48" height="48">
<path d="M47.5102 0H0.489746V48H47.5102V0Z" fill="white"/>
</mask>
<g mask="url(#mask0_708_10475)">
<path d="M24 0C11.0106 0 0.489746 10.74 0.489746 24C0.489746 37.26 11.0106 48 24 48C36.9893 48 47.5102 37.26 47.5102 24C47.5102 10.74 36.9893 0 24 0ZM37.2097 19.05C37.2097 19.335 37.2244 19.605 37.2244 19.89C37.2244 28.44 30.8473 38.31 19.1804 38.31C15.5951 38.31 12.2595 37.245 9.45301 35.4C9.9526 35.46 10.4522 35.49 10.9665 35.49C13.9346 35.49 16.6677 34.455 18.8424 32.715C16.0653 32.67 13.7289 30.795 12.9208 28.215C13.3028 28.29 13.6995 28.335 14.111 28.335C14.684 28.335 15.2571 28.26 15.7861 28.11C12.8914 27.51 10.702 24.9 10.702 21.765V21.69C11.5542 22.17 12.5387 22.47 13.582 22.5C11.8775 21.345 10.7608 19.35 10.7608 17.115C10.7608 15.93 11.0693 14.82 11.613 13.86C14.7428 17.775 19.4155 20.355 24.6906 20.625C24.5877 20.145 24.5289 19.65 24.5289 19.155C24.5289 15.585 27.3648 12.675 30.8767 12.675C32.6987 12.675 34.3444 13.455 35.5053 14.715C36.9453 14.43 38.3118 13.89 39.5314 13.14C39.0612 14.655 38.0473 15.915 36.7395 16.725C38.0179 16.575 39.2522 16.215 40.3836 15.705C39.5314 17.01 38.4587 18.15 37.2244 19.05H37.2097Z" fill="#828282"/>
</g>
</g>
</g>
<defs>
<clipPath id="clip0_708_10475">
<rect width="48" height="48" fill="white"/>
</clipPath>
<clipPath id="clip1_708_10475">
<rect width="48" height="48" fill="white"/>
</clipPath>
</defs>
</svg>
