<svg width="48" height="49" viewBox="0 0 48 49" fill="none" xmlns="http://www.w3.org/2000/svg">
<g clip-path="url(#clip0_700_9820)">
<path fill-rule="evenodd" clip-rule="evenodd" d="M4.5 12.1875C4.5 8.87379 7.18629 6.1875 10.5 6.1875H37.5C40.8137 6.1875 43.5 8.87379 43.5 12.1875V36.1875C43.5 39.5012 40.8137 42.1875 37.5 42.1875H10.5C7.18629 42.1875 4.5 39.5012 4.5 36.1875V12.1875ZM40.5 18.1875H7.5V36.1875C7.5 37.8444 8.84315 39.1875 10.5 39.1875H37.5C39.1569 39.1875 40.5 37.8444 40.5 36.1875V18.1875ZM10.5 10.6875C9.67157 10.6875 9 11.3591 9 12.1875V12.2025C9 13.0309 9.67157 13.7025 10.5 13.7025H10.515C11.3434 13.7025 12.015 13.0309 12.015 12.2025V12.1875C12.015 11.3591 11.3434 10.6875 10.515 10.6875H10.5ZM13.5 12.1875C13.5 11.3591 14.1716 10.6875 15 10.6875H15.015C15.8434 10.6875 16.515 11.3591 16.515 12.1875V12.2025C16.515 13.0309 15.8434 13.7025 15.015 13.7025H15C14.1716 13.7025 13.5 13.0309 13.5 12.2025V12.1875ZM19.5 10.6875C18.6716 10.6875 18 11.3591 18 12.1875V12.2025C18 13.0309 18.6716 13.7025 19.5 13.7025H19.515C20.3434 13.7025 21.015 13.0309 21.015 12.2025V12.1875C21.015 11.3591 20.3434 10.6875 19.515 10.6875H19.5Z" fill="url(#paint0_linear_700_9820)"/>
</g>
<defs>
<linearGradient id="paint0_linear_700_9820" x1="4.5" y1="25.2675" x2="43.5" y2="25.2675" gradientUnits="userSpaceOnUse">
<stop stop-color="#93D8FF"/>
<stop offset="1" stop-color="#85AFFF"/>
</linearGradient>
<clipPath id="clip0_700_9820">
<rect width="48" height="48" fill="white" transform="translate(0 0.1875)"/>
</clipPath>
</defs>
</svg>
