<svg width="89" height="64" viewBox="0 0 89 64" fill="none" xmlns="http://www.w3.org/2000/svg">
<path d="M71.0621 24.4528C70.8555 17.809 68.0357 11.5149 63.2149 6.93756C58.3942 2.36017 51.9619 -0.13092 45.3149 0.00530699C39.9388 -0.0584467 34.6765 1.55506 30.2604 4.62126C25.8443 7.68746 22.4941 12.0538 20.6762 17.1127C15.0148 17.8779 9.81545 20.6472 6.02181 24.9178C2.22816 29.1884 0.0916337 34.6773 0 40.3883C0.169526 46.8122 2.88226 52.9062 7.54243 57.3319C12.2026 61.7576 18.4291 64.1531 24.8546 63.9924H67.7762C73.0934 63.8596 78.1631 61.7192 81.9661 58.0016C85.7692 54.2839 88.0235 49.2646 88.2759 43.9529C88.1775 39.192 86.394 34.6201 83.2423 31.0498C80.0906 27.4795 75.7748 25.142 71.0621 24.4528Z" fill="url(#paint0_linear_3561_1930)"/>
<path d="M63.2643 45.2912V28.6202H58.8506V48.8705H70.9149V45.2912H63.2643ZM28.2483 37.1028C27.3368 36.7368 26.4917 36.2233 25.7471 35.5828C25.5495 35.3736 25.3957 35.127 25.2946 34.8576C25.1936 34.5882 25.1473 34.3013 25.1586 34.0138C25.1445 33.7261 25.2048 33.4396 25.3337 33.1819C25.4625 32.9243 25.6556 32.7042 25.8942 32.5428C26.4979 32.1265 27.2215 31.9198 27.954 31.9544C29.7007 31.8759 31.4245 32.3757 32.8582 33.3764V29.1596C31.2914 28.5767 29.6245 28.3101 27.954 28.3751C26.03 28.2731 24.1332 28.8646 22.6084 30.0422C21.9439 30.5544 21.4106 31.2172 21.0525 31.9759C20.6944 32.7346 20.5217 33.5675 20.5486 34.406C20.5486 36.9067 22.118 38.868 25.4528 40.3389C26.5354 40.7996 27.5567 41.3925 28.4935 42.1041C28.723 42.2963 28.9078 42.5362 29.0348 42.8073C29.1619 43.0783 29.2282 43.3738 29.2291 43.6731C29.2288 43.9706 29.1575 44.2638 29.021 44.5282C28.8845 44.7926 28.6868 45.0205 28.4444 45.1931C27.7774 45.585 27.0101 45.7725 26.2375 45.7325C24.265 45.7162 22.3654 44.9844 20.8919 43.6731V48.2331C22.5117 49.0675 24.3184 49.4726 26.1394 49.4099C28.1952 49.5329 30.2328 48.9632 31.9264 47.7918C32.5248 47.2253 32.9826 46.5269 33.2636 45.7523C33.5446 44.9777 33.6408 44.1482 33.5448 43.3299C33.5693 42.0745 33.1331 40.8535 32.3187 39.8976C31.1724 38.6916 29.7857 37.7394 28.2483 37.1028ZM53.9463 44.8989C55.0113 43.1929 55.5759 41.2222 55.5759 39.2112C55.5759 37.2002 55.0113 35.2295 53.9463 33.5234C53.1812 31.992 51.9888 30.7147 50.5134 29.846C49.0186 28.9989 47.3274 28.5593 45.6092 28.5712C43.757 28.531 41.9279 28.9881 40.3126 29.8951C38.798 30.7389 37.5559 31.9977 36.7325 33.5234C35.8653 35.2575 35.4279 37.1746 35.4574 39.1131C35.467 40.8163 35.8698 42.4943 36.6345 44.0164C37.3843 45.5299 38.5606 46.7911 40.0184 47.6447C41.4993 48.5488 43.1885 49.0554 44.9226 49.1157L49.1402 54.0189H55.0743L49.0421 48.6254C51.0734 48.0163 52.8155 46.6926 53.9463 44.8989ZM49.0421 43.6731C48.5953 44.2272 48.0264 44.6704 47.3798 44.9682C46.7332 45.2659 46.0265 45.41 45.3149 45.3893C44.5978 45.414 43.8852 45.2667 43.2367 44.9596C42.5883 44.6525 42.0228 44.1945 41.5877 43.6241C40.5522 42.2075 40.0487 40.4716 40.1655 38.7209C40.0512 36.9704 40.5545 35.2354 41.5877 33.8176C42.0493 33.2488 42.6325 32.7905 43.2945 32.4766C43.9564 32.1626 44.6803 32.001 45.413 32.0034C46.1292 31.9721 46.8418 32.122 47.4847 32.4391C48.1277 32.7562 48.6802 33.2303 49.0912 33.8176C50.0577 35.263 50.5229 36.9856 50.4153 38.7209C50.5869 40.4847 50.0976 42.2494 49.0421 43.6731Z" fill="#F2F2F2"/>
<defs>
<linearGradient id="paint0_linear_3561_1930" x1="48.591" y1="67.5669" x2="36.8647" y2="1.0783" gradientUnits="userSpaceOnUse">
<stop offset="0.15" stop-color="#0078D4"/>
<stop offset="0.8" stop-color="#5EA0EF"/>
<stop offset="1" stop-color="#83B9F9"/>
</linearGradient>
</defs>
</svg>
