<svg width="80" height="80" viewBox="0 0 80 80" fill="none" xmlns="http://www.w3.org/2000/svg">
<path d="M13.1291 23.4046C13.0262 23.4052 12.9242 23.3854 12.829 23.3463C12.7339 23.3072 12.6474 23.2496 12.5746 23.1769C12.5019 23.1041 12.4443 23.0176 12.4052 22.9225C12.3661 22.8273 12.3463 22.7253 12.3469 22.6224C12.3433 20.2554 11.4015 17.9864 9.72775 16.3126C8.05402 14.6389 5.78497 13.6971 3.41796 13.6935C3.21127 13.6935 3.01298 13.6117 2.86642 13.466C2.71985 13.3203 2.63692 13.1224 2.63574 12.9158C2.63574 12.7083 2.71815 12.5093 2.86485 12.3626C3.01154 12.216 3.21051 12.1335 3.41796 12.1335C5.78574 12.13 8.05546 11.1875 9.72931 9.51286C11.4032 7.83817 12.3445 5.56798 12.3469 3.2002C12.3463 3.09732 12.3661 2.99533 12.4052 2.90016C12.4443 2.80499 12.5019 2.71853 12.5746 2.64577C12.6474 2.57302 12.7339 2.51543 12.829 2.47632C12.9242 2.43722 13.0262 2.41739 13.1291 2.41798C13.232 2.41739 13.3339 2.43722 13.4291 2.47632C13.5243 2.51543 13.6108 2.57302 13.6835 2.64577C13.7563 2.71853 13.8139 2.80499 13.853 2.90016C13.8921 2.99533 13.9119 3.09732 13.9113 3.2002C13.9148 5.56721 14.8567 7.83626 16.5304 9.50999C18.2041 11.1837 20.4732 12.1256 22.8402 12.1291C22.9431 12.1285 23.0451 12.1483 23.1402 12.1874C23.2354 12.2265 23.3219 12.2841 23.3946 12.3569C23.4674 12.4296 23.525 12.5161 23.5641 12.6113C23.6032 12.7064 23.623 12.8084 23.6224 12.9113C23.623 13.0142 23.6032 13.1162 23.5641 13.2114C23.525 13.3065 23.4674 13.393 23.3946 13.4657C23.3219 13.5385 23.2354 13.5961 23.1402 13.6352C23.0451 13.6743 22.9431 13.6941 22.8402 13.6935C20.4728 13.6959 18.2031 14.6374 16.5291 16.3113C14.8551 17.9853 13.9137 20.2551 13.9113 22.6224C13.9101 22.8295 13.8273 23.0278 13.6809 23.1743C13.5345 23.3207 13.3362 23.4035 13.1291 23.4046Z" fill="#50E6FF"/>
<path d="M69.3824 77.5821C69.2162 77.5821 69.0568 77.5161 68.9393 77.3985C68.8217 77.281 68.7557 77.1216 68.7557 76.9554C68.7534 75.0619 68.0001 73.2466 66.6612 71.9077C65.3223 70.5688 63.507 69.8155 61.6135 69.8132C61.448 69.8132 61.2893 69.7478 61.1719 69.6312C61.0545 69.5147 60.988 69.3564 60.9868 69.191C60.9868 69.0248 61.0528 68.8654 61.1704 68.7478C61.2879 68.6303 61.4473 68.5643 61.6135 68.5643C63.5074 68.5631 65.3233 67.8103 66.6625 66.4711C68.0017 65.1319 68.7545 63.3159 68.7557 61.4221C68.7557 61.2559 68.8217 61.0965 68.9393 60.979C69.0568 60.8614 69.2162 60.7954 69.3824 60.7954C69.5486 60.7954 69.708 60.8614 69.8255 60.979C69.943 61.0965 70.009 61.2559 70.009 61.4221C70.0102 63.3159 70.7631 65.1319 72.1023 66.4711C73.4414 67.8103 75.2574 68.5631 77.1513 68.5643C77.3175 68.5643 77.4769 68.6303 77.5944 68.7478C77.7119 68.8654 77.7779 69.0248 77.7779 69.191C77.7779 69.3572 77.7119 69.5166 77.5944 69.6341C77.4769 69.7516 77.3175 69.8176 77.1513 69.8176C75.2577 69.82 73.4425 70.5732 72.1035 71.9121C70.7646 73.2511 70.0114 75.0663 70.009 76.9599C70.0079 77.1253 69.9413 77.2835 69.8239 77.4001C69.7065 77.5167 69.5478 77.5821 69.3824 77.5821Z" fill="#50E6FF"/>
<path d="M66.5287 33.4665C67.7822 38.7135 67.4517 44.2143 65.5789 49.2734C63.7061 54.3325 60.3752 58.7226 56.0073 61.8886C51.6395 65.0547 46.4309 66.8544 41.0402 67.0602C35.6495 67.2659 30.3189 65.8686 25.7224 63.0448C21.1258 60.221 17.4699 56.0976 15.2169 51.196C12.9638 46.2944 12.2149 40.8348 13.0647 35.5075C13.9146 30.1803 16.3251 25.2247 19.9913 21.2674C23.6576 17.3101 28.415 14.5289 33.662 13.2754C40.6979 11.5946 48.1133 12.7775 54.277 16.5641C60.4407 20.3507 64.8478 26.4306 66.5287 33.4665Z" fill="url(#paint0_radial_3561_1937)"/>
<mask id="mask0_3561_1937" style="mask-type:luminance" maskUnits="userSpaceOnUse" x="12" y="12" width="56" height="56">
<path d="M66.5287 33.4665C67.7822 38.7135 67.4517 44.2143 65.5789 49.2734C63.7061 54.3325 60.3752 58.7226 56.0073 61.8886C51.6395 65.0547 46.4309 66.8544 41.0402 67.0602C35.6495 67.2659 30.3189 65.8686 25.7224 63.0448C21.1258 60.221 17.4699 56.0976 15.2169 51.196C12.9638 46.2944 12.2149 40.8348 13.0647 35.5075C13.9146 30.1803 16.3251 25.2247 19.9913 21.2674C23.6576 17.3101 28.415 14.5289 33.662 13.2754C40.6979 11.5946 48.1133 12.7775 54.277 16.5641C60.4407 20.3507 64.8478 26.4306 66.5287 33.4665Z" fill="white"/>
</mask>
<g mask="url(#mask0_3561_1937)">
<path d="M25.3732 58.2889C26.344 58.3143 27.3101 58.1452 28.2146 57.7916C29.119 57.438 29.9436 56.9071 30.6398 56.2299C31.3359 55.5528 31.8895 54.7433 32.2681 53.849C32.6466 52.9546 32.8424 51.9936 32.8438 51.0225C32.8453 50.0513 32.6525 49.0897 32.2767 48.1943C31.9009 47.2988 31.3497 46.4875 30.6557 45.8083C29.9616 45.1291 29.1386 44.5956 28.2352 44.2392C27.3319 43.8829 26.3663 43.7108 25.3954 43.7333C25.4169 43.5266 25.4273 43.3189 25.4265 43.1111C25.4089 41.1688 24.622 39.3128 23.2382 37.9498C21.8544 36.5869 19.9866 35.8281 18.0443 35.84H12.5865C12.0526 39.8726 12.4108 43.9733 13.6357 47.8524C14.8606 51.7314 16.9224 55.2942 19.6754 58.2889H25.3732Z" fill="#F2F2F2"/>
<path d="M66.8664 34.7334C66.8664 34.6667 66.8664 34.6 66.8353 34.5378C65.9562 29.7819 63.7956 25.3562 60.5864 21.7378C60.1701 21.5691 59.7404 21.4353 59.302 21.3378C58.1341 21.0046 56.9059 20.9407 55.7097 21.1511C54.5136 21.3614 53.3808 21.8403 52.3967 22.5519C51.4125 23.2635 50.6027 24.1892 50.0281 25.2591C49.4536 26.3291 49.1293 27.5155 49.0797 28.7289C48.7846 28.6948 48.4879 28.6755 48.1908 28.6711C46.3704 28.671 44.6085 29.3142 43.2163 30.487C41.8241 31.6599 40.8911 33.287 40.5822 35.081C40.2733 36.8751 40.6083 38.7205 41.528 40.2915C42.4477 41.8625 43.893 43.0579 45.6086 43.6667C46.3744 43.9668 47.1906 44.1177 48.0131 44.1111H57.0353C60.658 41.3689 63.9563 38.2227 66.8664 34.7334Z" fill="#F2F2F2"/>
</g>
<path d="M76.4043 17.031C73.6087 12.3777 67.071 10.5644 57.9376 11.9244C54.8084 12.3678 51.7157 13.0393 48.6843 13.9333C51.0891 14.7635 53.3728 15.9098 55.4754 17.3421C56.5465 17.1066 57.6221 16.8266 58.6532 16.671C60.2753 16.4185 61.9138 16.2863 63.5554 16.2755C65.1602 16.0441 66.7974 16.2177 68.3181 16.7805C69.8387 17.3433 71.1945 18.2773 72.2621 19.4977C73.9643 22.3333 72.5287 27.1821 68.3243 32.831C62.4811 40.104 55.3208 46.2119 47.2176 50.8355C39.296 55.7796 30.5152 59.19 21.3332 60.8888C14.3821 61.9288 9.41317 60.8888 7.71095 58.0621C6.00873 55.2355 7.44428 50.3733 11.6487 44.751C12.1687 44.0533 12.2976 43.711 12.8887 43.0088C12.6109 40.5993 12.6497 38.1638 13.0043 35.7644C11.1147 37.6584 9.37609 39.6972 7.80428 41.8621C2.29761 49.2266 0.804281 55.8488 3.59539 60.5021C5.06983 62.4747 7.0363 64.0256 9.29815 64.9998C11.56 65.9739 14.038 66.3372 16.4843 66.0533C18.3461 66.0434 20.2046 65.8948 22.0443 65.6088C31.8455 63.8199 41.2222 60.2013 49.6843 54.9421C58.3264 49.9964 65.9577 43.4644 72.1776 35.6888C77.7021 28.3066 79.1954 21.6888 76.4043 17.031Z" fill="#50E6FF"/>
<defs>
<radialGradient id="paint0_radial_3561_1937" cx="0" cy="0" r="1" gradientUnits="userSpaceOnUse" gradientTransform="translate(39.7899 39.7952) scale(27.4149 27.1767)">
<stop offset="0.183" stop-color="#5EA0EF"/>
<stop offset="1" stop-color="#0078D4"/>
</radialGradient>
</defs>
</svg>
