<svg width="254" height="64" viewBox="0 0 254 64" fill="none" xmlns="http://www.w3.org/2000/svg">
<path d="M18.9646 6.59438C16.4798 3.6482 14.3401 0.655987 13.903 0.0345256C13.857 -0.0115085 13.7879 -0.0115085 13.7419 0.0345256C13.3048 0.655987 11.1651 3.6482 8.68025 6.59438C-12.6477 33.7774 12.0394 52.1222 12.0394 52.1222L12.2464 52.2603C12.4305 55.0912 12.8906 59.1654 12.8906 59.1654H13.8109H14.7312C14.7312 59.1654 15.1914 55.1143 15.3755 52.2603L15.5825 52.0991C15.6055 52.1222 40.2926 33.7774 18.9646 6.59438ZM13.8109 51.7308C13.8109 51.7308 12.7066 50.7871 12.4075 50.3037V50.2579L13.7419 20.6578C13.7419 20.5657 13.88 20.5657 13.88 20.6578L15.2144 50.2579V50.3037C14.9153 50.7871 13.8109 51.7308 13.8109 51.7308Z" fill="#00684A"/>
<path d="M60.0117 45.4879L49.7244 20.5581L49.7013 20.4893H41.6974V22.165H42.9891C43.3812 22.165 43.7502 22.3257 44.0271 22.6012C44.3038 22.8766 44.4422 23.244 44.4422 23.6342L44.2116 48.7245C44.2116 49.5049 43.5659 50.1477 42.7815 50.1707L41.4668 50.1937V51.8464H49.2632V50.1937L48.4557 50.1707C47.6715 50.1477 47.0256 49.5049 47.0256 48.7245V25.0804L58.2358 51.8464C58.3971 52.2367 58.7661 52.4892 59.1815 52.4892C59.5966 52.4892 59.9656 52.2367 60.1271 51.8464L71.0835 25.6772L71.2449 48.7245C71.2449 49.5279 70.599 50.1707 69.7918 50.1937H68.9613V51.8464H78.0954V50.1937H76.8498C76.0656 50.1937 75.4197 49.5279 75.3966 48.7475L75.3275 23.657C75.3275 22.8537 75.9733 22.2109 76.7577 22.188L78.0954 22.165V20.4893H70.2991L60.0117 45.4879Z" fill="#00684A"/>
<path d="M131.741 49.758C131.486 49.5057 131.348 49.1618 131.348 48.7492V36.4592C131.348 34.1204 130.654 32.2861 129.266 30.9791C127.902 29.6722 126.006 29.0073 123.647 29.0073C120.34 29.0073 117.727 30.3373 115.9 32.9511C115.877 32.997 115.807 33.02 115.738 33.02C115.668 33.02 115.622 32.9739 115.622 32.9053L114.766 29.6264H113.333L109.656 31.713V32.8593H110.604C111.043 32.8593 111.413 32.9739 111.668 33.2032C111.922 33.4325 112.061 33.7765 112.061 34.2581V48.7262C112.061 49.139 111.922 49.4829 111.668 49.735C111.413 49.9873 111.067 50.1248 110.65 50.1248H109.725V51.7987H118.189V50.1248H117.264C116.848 50.1248 116.501 49.9873 116.247 49.735C115.992 49.4829 115.853 49.139 115.853 48.7262V39.1419C115.853 37.9266 116.131 36.7115 116.64 35.5192C117.172 34.3497 117.958 33.3639 118.999 32.6072C120.039 31.8505 121.288 31.4838 122.722 31.4838C124.341 31.4838 125.566 31.9882 126.329 32.997C127.093 34.0058 127.486 35.3127 127.486 36.8719V48.7032C127.486 49.116 127.347 49.4599 127.093 49.7122C126.838 49.9643 126.491 50.102 126.075 50.102H125.15V51.7756H133.614V50.102H132.689C132.342 50.1478 132.018 50.0101 131.741 49.758Z" fill="#00684A"/>
<path d="M209.07 22.3798C206.731 21.1348 204.116 20.4893 201.294 20.4893H190.285V22.1723H191.363C191.776 22.1723 192.143 22.3337 192.51 22.7026C192.854 23.0483 193.037 23.4404 193.037 23.8552V48.6628C193.037 49.0776 192.854 49.4697 192.51 49.8155C192.166 50.1613 191.776 50.3457 191.363 50.3457H190.285V52.0288H201.294C204.116 52.0288 206.731 51.3833 209.07 50.1382C211.41 48.8932 213.314 47.0488 214.69 44.6973C216.066 42.3457 216.777 39.5099 216.777 36.282C216.777 33.0544 216.066 30.2416 214.69 27.867C213.291 25.4693 211.41 23.6248 209.07 22.3798ZM212.35 36.236C212.35 39.1871 211.823 41.6769 210.79 43.6828C209.758 45.6886 208.382 47.1871 206.685 48.1554C204.987 49.1239 203.107 49.6081 201.088 49.6081H198.863C198.45 49.6081 198.083 49.4467 197.716 49.0776C197.372 48.7319 197.189 48.34 197.189 47.925V24.524C197.189 24.1089 197.349 23.7401 197.716 23.3711C198.06 23.0253 198.45 22.8409 198.863 22.8409H201.088C203.107 22.8409 204.987 23.3251 206.685 24.2933C208.382 25.2616 209.758 26.7603 210.79 28.7662C211.823 30.7718 212.35 33.2849 212.35 36.236Z" fill="#00684A"/>
<path d="M242.801 37.9191C241.783 36.7432 239.818 35.7519 237.508 35.2214C240.698 33.6306 242.338 31.3943 242.338 28.5125C242.338 26.9447 241.924 25.5383 241.09 24.3394C240.258 23.1406 239.079 22.1723 237.577 21.5037C236.072 20.8351 234.315 20.4893 232.327 20.4893H219.864V22.1723H220.858C221.274 22.1723 221.644 22.3337 222.014 22.7025C222.361 23.0483 222.546 23.4404 222.546 23.8552V48.6628C222.546 49.0776 222.361 49.4697 222.014 49.8155C221.668 50.1613 221.274 50.3457 220.858 50.3457H219.771V52.0288H233.299C235.356 52.0288 237.275 51.683 239.01 50.9912C240.744 50.2996 242.131 49.2853 243.126 47.948C244.142 46.6109 244.651 44.9738 244.651 43.0833C244.628 41.0544 244.027 39.3253 242.801 37.9191ZM227.286 49.1007C226.939 48.7549 226.754 48.3631 226.754 47.948V36.8125H233.184C235.448 36.8125 237.183 37.3887 238.385 38.5414C239.588 39.6943 240.189 41.1928 240.189 43.0373C240.189 44.1439 239.91 45.2275 239.403 46.2188C238.871 47.2334 238.083 48.0403 237.021 48.6628C235.98 49.2853 234.686 49.6081 233.184 49.6081H228.442C228.026 49.6311 227.656 49.4467 227.286 49.1007ZM226.778 34.4376V24.547C226.778 24.132 226.939 23.7632 227.309 23.3941C227.656 23.0483 228.049 22.8639 228.466 22.8639H231.518C233.713 22.8639 235.333 23.4174 236.351 24.4777C237.367 25.5614 237.876 26.9447 237.876 28.6509C237.876 30.403 237.39 31.8094 236.443 32.87C235.494 33.9074 234.061 34.4376 232.165 34.4376H226.778Z" fill="#00684A"/>
<path d="M99.519 30.4777C97.7521 29.5129 95.7788 29.0073 93.6448 29.0073C91.5109 29.0073 89.5146 29.4899 87.7707 30.4777C86.0038 31.4428 84.604 32.8443 83.5715 34.6135C82.539 36.3827 82.0112 38.4508 82.0112 40.7483C82.0112 43.0459 82.539 45.1139 83.5715 46.8831C84.604 48.6523 86.0038 50.0539 87.7707 51.0189C89.5376 51.9838 91.5109 52.4893 93.6448 52.4893C95.7788 52.4893 97.7751 52.0068 99.519 51.0189C101.286 50.0539 102.686 48.6523 103.718 46.8831C104.751 45.1139 105.278 43.0459 105.278 40.7483C105.278 38.4508 104.751 36.3827 103.718 34.6135C102.686 32.8443 101.286 31.4658 99.519 30.4777ZM101.217 40.7483C101.217 43.5744 100.529 45.872 99.1518 47.5263C97.7982 49.1806 95.9396 50.0308 93.6448 50.0308C91.3504 50.0308 89.4915 49.1806 88.1379 47.5263C86.761 45.872 86.0726 43.5744 86.0726 40.7483C86.0726 37.9222 86.761 35.6246 88.1379 33.9703C89.4915 32.316 91.3504 31.4658 93.6448 31.4658C95.9396 31.4658 97.7982 32.316 99.1518 33.9703C100.529 35.6474 101.217 37.9222 101.217 40.7483Z" fill="#00684A"/>
<path d="M180.839 30.4777C179.072 29.5129 177.099 29.0073 174.965 29.0073C172.831 29.0073 170.835 29.4899 169.091 30.4777C167.324 31.4428 165.924 32.8443 164.892 34.6135C163.859 36.3827 163.332 38.4508 163.332 40.7483C163.332 43.0459 163.859 45.1139 164.892 46.8831C165.924 48.6523 167.324 50.0539 169.091 51.0189C170.858 51.9838 172.831 52.4893 174.965 52.4893C177.099 52.4893 179.095 52.0068 180.839 51.0189C182.606 50.0539 184.006 48.6523 185.038 46.8831C186.071 45.1139 186.599 43.0459 186.599 40.7483C186.599 38.4508 186.071 36.3827 185.038 34.6135C184.006 32.8443 182.583 31.4658 180.839 30.4777ZM182.537 40.7483C182.537 43.5744 181.849 45.872 180.472 47.5263C179.118 49.1806 177.26 50.0308 174.965 50.0308C172.67 50.0308 170.812 49.1806 169.458 47.5263C168.081 45.872 167.393 43.5744 167.393 40.7483C167.393 37.8992 168.081 35.6246 169.458 33.9703C170.812 32.316 172.67 31.4658 174.965 31.4658C177.26 31.4658 179.118 32.316 180.472 33.9703C181.826 35.6474 182.537 37.9222 182.537 40.7483Z" fill="#00684A"/>
<path d="M148.044 29.0073C146.195 29.0073 144.508 29.3996 142.983 30.1844C141.458 30.9692 140.256 32.0312 139.401 33.3929C138.546 34.7316 138.107 36.2322 138.107 37.8248C138.107 39.2558 138.43 40.5715 139.101 41.7488C139.748 42.8799 140.626 43.8261 141.735 44.6109L138.43 49.089C138.014 49.6429 137.968 50.3815 138.269 50.9816C138.592 51.6048 139.193 51.9743 139.886 51.9743H140.834C139.909 52.5975 139.17 53.336 138.661 54.2132C138.061 55.2058 137.76 56.2443 137.76 57.3061C137.76 59.2913 138.638 60.9302 140.371 62.1535C142.082 63.3769 144.485 64.0001 147.512 64.0001C149.615 64.0001 151.626 63.6538 153.451 62.9844C155.3 62.3151 156.802 61.3224 157.911 60.03C159.044 58.7374 159.622 57.1677 159.622 55.3672C159.622 53.4746 158.928 52.1357 157.31 50.8433C155.924 49.7583 153.752 49.1813 151.048 49.1813H141.804C141.781 49.1813 141.758 49.1581 141.758 49.1581C141.758 49.1581 141.735 49.112 141.758 49.089L144.162 45.8575C144.809 46.1575 145.409 46.3421 145.941 46.4574C146.495 46.573 147.119 46.619 147.813 46.619C149.754 46.619 151.51 46.2268 153.035 45.4419C154.561 44.6571 155.785 43.5954 156.664 42.2334C157.542 40.8947 157.981 39.3944 157.981 37.8018C157.981 36.0936 157.149 32.9774 154.884 31.3848C154.884 31.3617 154.907 31.3617 154.907 31.3617L159.876 31.9156V29.6305H151.926C150.678 29.215 149.384 29.0073 148.044 29.0073ZM150.817 43.4338C149.939 43.8954 148.991 44.1493 148.044 44.1493C146.496 44.1493 145.132 43.5954 143.977 42.5104C142.821 41.4256 142.243 39.833 142.243 37.8018C142.243 35.7704 142.821 34.1777 143.977 33.093C145.132 32.008 146.496 31.4541 148.044 31.4541C149.014 31.4541 149.939 31.685 150.817 32.1696C151.695 32.6311 152.411 33.3469 152.989 34.2931C153.544 35.2395 153.844 36.4168 153.844 37.8018C153.844 39.2098 153.567 40.3869 152.989 41.3103C152.435 42.2565 151.695 42.9722 150.817 43.4338ZM144.554 51.9511H150.817C152.55 51.9511 153.659 52.2973 154.399 53.0361C155.138 53.7746 155.508 54.7671 155.508 55.9214C155.508 57.6063 154.838 58.9913 153.498 60.03C152.157 61.0687 150.355 61.5996 148.136 61.5996C146.195 61.5996 144.577 61.1611 143.399 60.33C142.22 59.4991 141.619 58.2295 141.619 56.6138C141.619 55.5981 141.897 54.6517 142.451 53.8209C143.006 52.9898 143.676 52.3896 144.554 51.9511Z" fill="#00684A"/>
<path d="M249.34 51.6437C248.884 51.3943 248.54 51.0318 248.266 50.6013C248.015 50.1482 247.877 49.6723 247.877 49.1511C247.877 48.6299 248.015 48.1315 248.266 47.701C248.517 47.2477 248.884 46.9079 249.34 46.6586C249.798 46.4095 250.3 46.2734 250.872 46.2734C251.443 46.2734 251.945 46.4095 252.404 46.6586C252.86 46.9079 253.203 47.2705 253.477 47.701C253.728 48.1541 253.867 48.6299 253.867 49.1511C253.867 49.6723 253.728 50.1708 253.477 50.6013C253.226 51.0546 252.86 51.3943 252.404 51.6437C251.945 51.8928 251.443 52.0288 250.872 52.0288C250.323 52.0288 249.798 51.8928 249.34 51.6437ZM252.153 51.3036C252.54 51.0999 252.816 50.7827 253.044 50.4201C253.249 50.0349 253.364 49.6042 253.364 49.1286C253.364 48.6527 253.249 48.2222 253.044 47.8368C252.837 47.4517 252.54 47.1572 252.153 46.9533C251.763 46.7493 251.351 46.636 250.872 46.636C250.393 46.636 249.98 46.7493 249.591 46.9533C249.204 47.1572 248.927 47.4745 248.699 47.8368C248.494 48.2222 248.379 48.6527 248.379 49.1286C248.379 49.6042 248.494 50.0349 248.699 50.4201C248.907 50.8052 249.204 51.0999 249.591 51.3036C249.98 51.5076 250.393 51.6209 250.872 51.6209C251.351 51.6209 251.786 51.5076 252.153 51.3036ZM249.637 50.5108V50.3068L249.683 50.284H249.821C249.865 50.284 249.911 50.2615 249.934 50.2387C249.98 50.1935 249.98 50.1708 249.98 50.1254V48.0182C249.98 47.9729 249.957 47.9275 249.934 47.905C249.888 47.8596 249.865 47.8596 249.821 47.8596H249.683L249.637 47.8368V47.6331L249.683 47.6103H250.872C251.215 47.6103 251.466 47.6782 251.671 47.8368C251.878 47.9954 251.968 48.1994 251.968 48.4713C251.968 48.6753 251.901 48.8792 251.74 49.0151C251.581 49.1737 251.397 49.2644 251.169 49.2872L251.443 49.3777L251.968 50.2161C252.014 50.284 252.06 50.3068 252.13 50.3068H252.265L252.289 50.3294V50.5333L252.265 50.5559H251.558L251.512 50.5333L250.78 49.3097H250.598V50.1254C250.598 50.1708 250.621 50.2161 250.644 50.2387C250.69 50.284 250.713 50.284 250.757 50.284H250.895L250.941 50.3068V50.5108L250.895 50.5333H249.683L249.637 50.5108ZM250.803 49.0379C250.987 49.0379 251.146 48.9925 251.238 48.8792C251.328 48.7885 251.397 48.6299 251.397 48.4487C251.397 48.2673 251.351 48.1315 251.261 48.0182C251.169 47.905 251.031 47.8596 250.872 47.8596H250.78C250.734 47.8596 250.69 47.8822 250.667 47.905C250.621 47.9501 250.621 47.9729 250.621 48.0182V49.0379H250.803Z" fill="#00684A"/>
</svg>
