<svg width="203" height="60" viewBox="0 0 203 60" fill="none" xmlns="http://www.w3.org/2000/svg">
<path d="M83.0176 12.975C79.8197 30.38 75.6257 43.0143 70.3832 50.878C66.3046 56.9593 61.838 59.9999 56.9625 59.9999C55.6676 59.9999 54.0687 59.6083 52.1709 58.8308V54.6369C53.0988 54.7732 54.184 54.8455 55.437 54.8455C57.707 54.8455 59.5366 54.2164 60.9416 52.9635C62.6087 51.4327 63.4422 49.7131 63.4422 47.8101C63.4422 46.51 62.7922 43.8363 61.4973 39.7891L52.8996 12.9477H60.606L66.7922 33.0264C68.1814 37.5821 68.7633 40.7852 68.5274 42.5677C71.9088 33.4982 74.2941 23.6424 75.6047 12.9477H83.049M48.973 47.6528H41.1093C40.833 34.3894 40.0661 21.8599 38.8184 10.1692H38.7492L26.7963 47.6528H20.8199L8.91953 10.1692H8.84928C7.96855 21.3881 7.41285 33.9176 7.18218 47.6528H0C0.462385 30.9294 1.61992 15.2544 3.47051 0.62793H13.2215L24.5452 35.1758H24.6149L35.9911 0.62793H45.3227C47.362 17.7708 48.5678 33.4458 48.9347 47.6528" fill="#00758F"/>
<path d="M187.867 47.6802H165.586V0.655308H173.083V41.9135H187.867V47.6802ZM131.772 38.2962C129.875 35.2294 128.92 30.3277 128.92 23.5125C128.92 11.6645 132.511 5.7405 139.667 5.7405C143.421 5.7405 146.168 7.15596 147.951 9.9869C149.848 13.0537 150.802 17.9554 150.802 24.6134C150.802 36.5662 147.211 42.5426 140.055 42.5426C136.302 42.5426 133.555 41.1271 131.772 38.291M159.715 48.8283L151.117 44.5662C151.882 43.9371 152.616 43.2556 153.272 42.464C156.931 38.1494 158.776 31.7693 158.776 23.329C158.776 7.75885 152.695 0 140.48 0C134.504 0 129.838 1.97117 126.535 5.92399C122.871 10.2438 121.03 16.6186 121.03 25.0066C121.03 33.2897 122.65 39.3185 125.895 43.1979C128.852 46.6789 133.34 48.4246 139.316 48.4246C141.549 48.4246 143.594 48.1489 145.45 47.5963L156.669 54.1494L159.73 48.8545M117.791 34.6999C117.791 38.6894 116.328 41.9869 113.413 44.5033C110.498 47.0564 106.598 48.3303 101.67 48.3303C97.0829 48.3303 92.653 46.8572 88.3018 43.9371L90.3149 39.8952C94.0213 41.751 97.3922 42.6789 100.38 42.6789C103.206 42.6789 105.418 42.0498 107.038 40.8021C108.632 39.5492 109.591 37.7982 109.591 35.5806C109.591 32.7864 107.646 30.4011 104.087 28.3984C100.795 26.5898 94.231 22.789 94.231 22.789C90.6661 20.1835 88.8837 17.3893 88.8837 12.7759C88.8837 8.96462 90.2153 5.90826 92.8784 3.54915C95.5468 1.20052 98.9597 0.0262122 103.206 0.0262122C107.563 0.0262122 111.542 1.19004 115.106 3.51245L113.293 7.54915C110.241 6.25426 107.211 5.59895 104.276 5.59895C101.869 5.59895 100.013 6.18087 98.7185 7.34469C97.4184 8.49804 96.6163 9.9869 96.6163 11.8008C96.6163 14.5845 98.6032 17.0013 102.278 19.0354C105.607 20.8493 112.344 24.6973 112.344 24.6973C116.008 27.2975 117.848 30.097 117.848 34.6579" fill="#F29111"/>
<path d="M192.061 47.6803H193.303V42.8939H194.929V41.9188H190.368V42.8939H192.056L192.061 47.6803ZM201.55 47.6803H202.724V41.9136H200.963L199.526 45.8402L197.964 41.9136H196.265V47.6803H197.377V43.2923H197.44L199.075 47.6803H199.919L201.555 43.2923V47.6803" fill="#F29111"/>
</svg>
