<svg xmlns="http://www.w3.org/2000/svg" width="92" height="60" viewBox="0 0 1153616 750745" shape-rendering="geometricPrecision" text-rendering="geometricPrecision" image-rendering="optimizeQuality" fill-rule="evenodd" clip-rule="evenodd"><path d="M471666 738952c-13755 7859-31440 11793-53065 11793-27513 0-49134-7856-64850-25552-15727-17684-25551-41267-25551-68780 0-31442 9824-55025 27512-74678 17685-19657 41268-27513 70749-27513 17685 0 33411 1968 45197 7856v23583c-13754-7856-29481-11793-45197-11793-21614 0-39309 7859-53064 21614-13758 13758-19653 35380-19653 58963s5895 41267 19653 56994c13755 13754 29481 21614 51096 21614 19653 0 35379-3930 51095-13754v19653h-3922zm92366 11786c-19653 0-37341-5895-49134-19653-11797-13755-17688-29482-17688-51096 0-23583 5898-41271 19656-55026 13755-13758 29482-19653 51096-19653 19653 0 37338 5895 47166 19653 11797 11797 17685 29482 17685 53065 0 21614-5895 39309-17685 53064-13755 11797-29481 19653-51096 19653v-7zm1969-125775c-13758 0-25552 3930-33411 13755-7860 9828-11794 23587-11794 39310 0 15726 3927 29481 11794 39309 7859 9825 19653 13755 33411 13755 13754 0 25551-3930 33411-13755 7856-9828 11793-21614 11793-39309 0-17685-3930-29482-11793-39310-7860-9825-19657-13755-33411-13755zm174909 5899c-3927-3930-9825-3930-15724-3930-9828 0-17684 3930-23583 13755-5898 9828-9828 21618-9828 35379v70745h-23583V609240h21622v27513c3930-9828 7860-17688 13758-23586 5898-5895 13755-7857 21614-7857 5899 0 9829 0 13755 1969v23583h1969zm133644 53057h-96303c0 15723 3930 27513 11796 35380 7857 7856 19653 11793 33408 11793 15727 0 29481-5899 43240-15723v21614c-11797 7860-27513 13755-47166 13755-19657 0-35380-5895-45201-19653-11793-11797-15723-29482-15723-53064 0-21615 5898-39310 17684-53065 11797-13758 27513-19653 45198-19653 17688 0 31442 5895 41271 17685 9828 11797 15723 27513 15723 49134v11797h-3927zm-21625-19657c0-11793-3930-23583-9824-29477-5899-7860-13759-9829-25552-9829-9828 0-19656 3930-25555 11797-5895 7856-11793 17685-13754 29478h74685v-1969zM1153616 0H864726v45197l117918 7v391092h51096V45204h117915V0h1961zM809693 45204V0H589584v436296h220109v-45200l-169014-8V239763h151330v-47166H640679V45204h169014zM70749 414675c0 21614-15723 37338-35380 37338C15716 452013 0 434328 0 414675c0-21618 15723-37341 35380-37341 19653 0 35376 15723 35376 37341h-7zM481494 0h-51096v343923L200453 0h-51096v436296h51096V92370l231906 343926h51096V0h-1961z" fill="#c6c6c6"/></svg>