<svg width="308" height="40" viewBox="0 0 308 40" fill="none" xmlns="http://www.w3.org/2000/svg">
<path d="M133.148 26.0027H153.444L142.723 8.68927L123.013 39.96H114.05L138.022 2.44312C138.545 1.69448 139.239 1.08198 140.047 0.656933C140.855 0.231885 141.753 0.00666699 142.666 0.000145772C143.579 -0.00637545 144.48 0.20599 145.294 0.619452C146.108 1.03291 146.811 1.63543 147.345 2.37653L171.384 39.96H162.421L158.199 32.968H137.662L133.188 26.0027M226.321 32.968V0.378823H218.703V36.1777C218.701 36.6752 218.801 37.1677 218.995 37.6256C219.19 38.0834 219.476 38.497 219.835 38.8413C220.195 39.2102 220.626 39.5029 221.102 39.7019C221.578 39.901 222.089 40.0023 222.605 40H257.232L261.746 33.008H226.281M100.372 27.1481C103.922 27.1481 107.326 25.7379 109.836 23.2278C112.346 20.7177 113.757 17.3133 113.757 13.7634C113.757 10.2136 112.346 6.80919 109.836 4.29909C107.326 1.78898 103.922 0.378823 100.372 0.378823H67.0769V39.96H74.6815V7.38411H99.9058C101.605 7.38411 103.234 8.05902 104.436 9.26037C105.637 10.4617 106.312 12.0911 106.312 13.7901C106.312 15.489 105.637 17.1184 104.436 18.3198C103.234 19.5211 101.605 20.1961 99.9058 20.1961H78.4505L101.171 39.96H112.212L96.9492 27.1481H100.372ZM20.3039 39.96H43.3042C48.4623 39.8262 53.3643 37.6831 56.9652 33.9874C60.5662 30.2918 62.5814 25.336 62.5814 20.1761C62.5814 15.0162 60.5662 10.0603 56.9652 6.3647C53.3643 2.66909 48.4623 0.525983 43.3042 0.392141H20.3039C17.6627 0.323606 15.0344 0.784644 12.5742 1.74807C10.114 2.71149 7.87157 4.15779 5.97922 6.00168C4.08687 7.84557 2.58289 10.0497 1.55597 12.4841C0.529057 14.9185 0 17.5339 0 20.1761C0 22.8182 0.529057 25.4336 1.55597 27.868C2.58289 30.3024 4.08687 32.5066 5.97922 34.3505C7.87157 36.1944 10.114 37.6407 12.5742 38.6041C15.0344 39.5675 17.6627 40.0285 20.3039 39.96ZM42.7848 32.9947H20.81C17.4853 32.8874 14.3327 31.4913 12.0188 29.1016C9.70486 26.7118 8.4111 23.5158 8.4111 20.1894C8.4111 16.863 9.70486 13.6669 12.0188 11.2772C14.3327 8.88745 17.4853 7.49134 20.81 7.38411H42.7848C44.5011 7.32875 46.2111 7.619 47.8131 8.23761C49.415 8.85622 50.8763 9.79056 52.11 10.9851C53.3437 12.1797 54.3247 13.61 54.9946 15.1912C55.6645 16.7724 56.0097 18.4721 56.0097 20.1894C56.0097 21.9066 55.6645 23.6064 54.9946 25.1876C54.3247 26.7688 53.3437 28.1991 52.11 29.3937C50.8763 30.5882 49.415 31.5226 47.8131 32.1412C46.2111 32.7598 44.5011 33.05 42.7848 32.9947ZM187.272 39.96H210.752L215.2 32.9947H187.791C186.075 33.05 184.365 32.7598 182.763 32.1412C181.161 31.5226 179.7 30.5882 178.466 29.3937C177.233 28.1991 176.252 26.7688 175.582 25.1876C174.912 23.6064 174.567 21.9066 174.567 20.1894C174.567 18.4721 174.912 16.7724 175.582 15.1912C176.252 13.61 177.233 12.1797 178.466 10.9851C179.7 9.79056 181.161 8.85622 182.763 8.23761C184.365 7.619 186.075 7.32875 187.791 7.38411H210.099L214.601 0.392141H187.272C184.631 0.323606 182.003 0.784644 179.542 1.74807C177.082 2.71149 174.84 4.15779 172.947 6.00168C171.055 7.84557 169.551 10.0497 168.524 12.4841C167.497 14.9185 166.968 17.5339 166.968 20.1761C166.968 22.8182 167.497 25.4336 168.524 27.868C169.551 30.3024 171.055 32.5066 172.947 34.3505C174.84 36.1944 177.082 37.6407 179.542 38.6041C182.003 39.5675 184.631 40.0285 187.272 39.96ZM280.325 32.9947C277.535 32.9957 274.82 32.0858 272.594 30.4031C270.368 28.7204 268.753 26.357 267.993 23.6721H300.515L304.99 16.6934H267.993C268.751 14.0074 270.366 11.6427 272.592 9.95969C274.819 8.27666 277.534 7.36753 280.325 7.37079H302.646L307.108 0.378823H279.806C274.648 0.512665 269.746 2.65577 266.145 6.35138C262.544 10.047 260.528 15.0029 260.528 20.1628C260.528 25.3227 262.544 30.2785 266.145 33.9741C269.746 37.6697 274.648 39.8128 279.806 39.9467H303.285L307.747 32.9814H280.312" fill="#C74634"/>
</svg>
