<svg width="80" height="82" viewBox="0 0 80 82" fill="none" xmlns="http://www.w3.org/2000/svg">
<path d="M58.8803 58.8794C59.3917 54.6402 59.2385 54.0185 62.4119 54.7052L63.2176 54.7756C65.6578 54.8861 68.8498 54.3851 70.7251 53.5183C74.7621 51.6545 77.1558 48.5428 73.1752 49.3604C64.0953 51.2241 63.4711 48.165 63.4711 48.165C73.059 34.0104 77.067 16.0424 73.6074 11.6442C64.1713 -0.352493 47.8377 5.32047 47.5644 5.46776L47.4774 5.48374C45.6833 5.11336 43.6755 4.89207 41.42 4.85579C37.3111 4.78861 34.1932 5.92758 31.8281 7.71248C31.8281 7.71248 2.68982 -4.23194 4.04538 22.7338C4.33368 28.4702 12.3093 66.14 21.8218 54.762C25.2985 50.6014 28.6585 47.0835 28.6585 47.0835C30.3269 48.1864 32.3244 48.749 34.4194 48.5469L34.5813 48.4095C34.5306 48.9261 34.553 49.4314 34.6461 50.0295C32.196 52.7538 32.916 53.2321 28.0167 54.2355C23.06 55.252 25.9721 57.0616 27.8728 57.5346C30.1778 58.1081 35.51 58.9205 39.1138 53.9019L38.9703 54.4746C39.9316 55.2398 39.8666 59.9744 40.0029 63.3572C40.1394 66.7401 40.367 69.897 41.0601 71.7582C41.7531 73.6191 42.5709 78.4132 49.0097 77.0401C54.391 75.8927 58.5053 74.2415 58.8803 58.8794Z" fill="black" stroke="black" stroke-width="8"/>
<path d="M73.176 49.3598C64.0952 51.2236 63.471 48.1644 63.471 48.1644C73.0589 34.0089 77.0669 16.0405 73.608 11.6429C64.172 -0.353083 47.8376 5.32024 47.565 5.46753L47.4773 5.48315C45.6832 5.1126 43.6754 4.89184 41.4188 4.8552C37.3099 4.7882 34.1931 5.927 31.828 7.71153C31.828 7.71153 2.68917 -4.23235 4.04438 22.7332C4.33268 28.4699 12.3081 66.1398 21.8209 54.7617C25.2979 50.6012 28.6573 47.0833 28.6573 47.0833C30.3259 48.1862 32.3234 48.7487 34.4175 48.5467L34.5802 48.4093C34.5296 48.9259 34.5527 49.4311 34.6453 50.0293C32.1947 52.7536 32.9148 53.2319 28.0159 54.2353C23.0588 55.2517 25.9709 57.0614 27.8722 57.5344C30.1771 58.1079 35.5097 58.9203 39.1128 53.9017L38.9691 54.4743C39.9293 55.2395 40.6036 59.4518 40.4906 63.2702C40.3776 67.0887 40.3021 69.7103 41.0587 71.758C41.8153 73.8057 42.5693 78.4129 49.0094 77.0399C54.3907 75.8925 57.1793 72.919 57.5672 67.9592C57.8425 64.433 58.4655 64.9543 58.5049 61.8018L59.0046 60.3093C59.5808 55.5294 59.0961 53.9874 62.4115 54.7046L63.2172 54.775C65.6573 54.8855 68.851 54.3845 70.7254 53.5177C74.7616 51.6539 77.1554 48.5422 73.1757 49.3598H73.176Z" fill="#336791"/>
<path d="M39.5027 52.0996C39.2527 60.9937 39.5656 69.9498 40.4402 72.1264C41.3154 74.3031 43.1884 78.5367 49.629 77.1639C55.0097 76.0161 56.9675 73.7949 57.8171 68.8922C58.4428 65.285 59.6491 55.2672 59.8038 53.2147" stroke="white" stroke-width="2" stroke-linecap="round" stroke-linejoin="round"/>
<path d="M31.7831 7.51297C31.7831 7.51297 2.62435 -4.34487 3.97992 22.6207C4.26822 28.3574 12.2442 66.0285 21.7568 54.6499C25.2331 50.4888 28.3769 47.2253 28.3769 47.2253" stroke="white" stroke-width="2" stroke-linecap="round" stroke-linejoin="round"/>
<path d="M47.5332 5.34862C46.5239 5.66349 63.7531 -0.918166 73.5446 11.5306C77.0033 15.9285 72.9953 33.8968 63.4075 48.0527" stroke="white" stroke-width="2" stroke-linecap="round" stroke-linejoin="round"/>
<path d="M63.4074 48.0527C63.4074 48.0527 64.0322 51.1127 73.1132 49.2477C77.092 48.4301 74.6975 51.5422 70.6622 53.4068C67.3505 54.9361 59.9256 55.328 59.8043 53.2148C59.4922 47.7624 63.712 49.4189 63.4074 48.0527ZM63.4074 48.0527C63.1321 46.8223 61.2451 45.6147 59.9967 42.6034C58.9069 39.975 45.0499 19.8187 63.8396 22.8122C64.5279 22.6705 58.939 5.02941 41.3546 4.74255C23.774 4.4557 24.3508 26.2543 24.3508 26.2543" stroke="white" stroke-width="2" stroke-linecap="round" stroke-linejoin="bevel"/>
<path d="M34.5811 49.9176C32.1301 52.6417 32.8509 53.12 27.9516 54.1238C22.9946 55.1404 25.907 56.9497 27.8078 57.4225C30.1127 57.9964 35.4453 58.8088 39.0484 53.7889C40.1456 52.2606 39.0419 49.8218 37.5347 49.2002C36.8064 48.9 35.8327 48.5239 34.5811 49.9176Z" stroke="white" stroke-width="2" stroke-linecap="round" stroke-linejoin="round"/>
<path d="M34.4209 49.8697C34.174 48.2681 34.9499 46.3621 35.7814 44.1323C37.031 40.7867 39.9141 37.4405 37.6077 26.8278C35.8886 18.9193 24.3579 25.182 24.3506 26.2543C24.3436 27.3263 24.8722 31.6896 24.158 36.7707C23.2261 43.4011 28.3982 49.0086 34.3539 48.4349" stroke="white" stroke-width="2" stroke-linecap="round" stroke-linejoin="round"/>
<path d="M31.6769 26.0936C31.625 26.4598 32.3508 27.4371 33.2973 27.5677C34.2422 27.6988 35.051 26.9351 35.1022 26.5692C35.1535 26.203 34.4285 25.7995 33.4817 25.6684C32.5362 25.5371 31.7271 25.7282 31.6771 26.0936H31.6769Z" fill="white" stroke="white" stroke-width="2"/>
<path d="M60.4573 25.3469C60.5086 25.7132 59.7836 26.6905 58.8369 26.8211C57.8913 26.9522 57.0826 26.1884 57.0308 25.8225C56.9808 25.4563 57.7059 25.0529 58.6517 24.9217C59.5975 24.7906 60.4061 24.9816 60.4573 25.3471V25.3469Z" fill="white" stroke="white" stroke-width="2"/>
<path d="M63.8394 22.812C63.9952 25.6849 63.2175 27.6417 63.1194 30.6999C62.9743 35.1451 65.2495 40.2331 61.8213 45.3273" stroke="white" stroke-width="2" stroke-linecap="round" stroke-linejoin="round"/>
</svg>
