<svg width="160" height="50" viewBox="0 0 160 50" fill="none" xmlns="http://www.w3.org/2000/svg">
<mask id="mask0_3561_1902" style="mask-type:luminance" maskUnits="userSpaceOnUse" x="0" y="0" width="160" height="50">
<path d="M159.78 0H0V50H159.78V0Z" fill="white"/>
</mask>
<g mask="url(#mask0_3561_1902)">
<path fill-rule="evenodd" clip-rule="evenodd" d="M141.529 25.9642C141.529 20.3857 145.661 17.1488 150.827 17.1488C154.683 17.1488 158.127 19.0084 159.78 23.6226C159.298 25.9642 156.405 28.5812 155.166 28.9946C154.132 26.7908 152.962 25.4821 151.86 25.4821C150.482 25.4821 150.413 26.4464 150.413 27.6859C150.413 28.5639 150.665 29.857 150.967 31.4131C151.424 33.7634 151.997 36.7135 151.997 39.7384C151.997 45.248 148.141 49.3114 142.218 49.3114C136.794 49.3114 133.797 45.7561 132.46 40.0762C128.918 46.4249 123.737 49.3114 119.766 49.3114C113.558 49.3114 112.097 44.7231 112.245 40.0692C109.75 44.4774 104.949 49.3114 100.345 49.3114C95.644 49.3114 93.9836 45.2201 94.3645 40.4553C91.5482 45.7012 86.4539 49.3114 81.5428 49.3114C76.2135 49.3114 73.5758 45.0778 74.4294 39.8303C70.8441 44.237 64.1702 49.3114 57.2314 49.3114C49.3199 49.3114 45.8762 45.0451 45.4681 39.6993C41.6495 45.8192 36.5026 49.518 30.3719 49.518C21.522 49.518 18.3566 41.6482 17.8959 35.2108C14.616 39.603 10.9285 44.16 6.40497 49.2425C5.92287 49.7246 5.50964 50 5.02756 50C3.44354 50 0.206612 42.9753 0 40.3581C1.35925 38.249 9.92738 28.8352 16.8256 21.2562C19.2505 18.5921 21.469 16.1547 23.0953 14.3409C18.8708 15.6157 14.5149 18.158 9.02205 22.1075C8.05787 22.7963 5.37191 16.5289 5.44079 11.708C11.7769 7.02481 21.4188 4.06337 29.2012 4.06337C40.0827 4.06337 46.3499 10.124 46.3499 18.5262C46.3499 25.5511 40.4959 33.2645 31.956 33.54C27.5154 33.6553 24.6694 31.1627 23.2139 28.0846C23.3878 32.8451 25.8631 38.7053 32.5069 38.7053C39.7498 38.7053 43.228 34.3331 48.415 27.8126C48.752 27.3889 49.0962 26.9564 49.449 26.5152C53.8569 21.0744 58.9533 16.2535 66.3913 16.2535C70.9368 16.2535 74.036 19.0771 74.036 23.3472C74.036 28.5124 67.9752 35.6749 59.5043 35.6749C58.0574 35.6749 56.7386 35.4843 55.6254 35.1076C55.5974 35.3247 55.5786 35.5384 55.5786 35.7439C55.5786 38.1543 56.4739 39.6006 60.3996 39.6006C66.1848 39.6006 71.6254 36.1571 78.237 28.0993C84.711 20.1791 89.6006 16.7356 94.766 16.7356C98.2528 16.7356 100.899 18.6253 102.065 21.8079C108.988 11.8097 114.861 4.7255 119.835 0C124.725 2.06612 128.237 6.12949 127.273 6.95593C123.623 10.2617 111.433 23.5538 106.612 31.4738C105.372 33.54 104.201 35.8127 104.201 36.9146C104.201 37.9477 104.821 38.2921 105.51 38.2921C108.819 38.2921 115.451 30.4798 121.178 23.7326C123.317 21.2122 125.331 18.8405 126.997 17.0799C130.854 18.6639 134.78 22.0385 133.816 23.2094C128.719 29.27 124.862 34.2288 124.862 37.0524C124.862 37.8099 125.138 38.2921 126.171 38.2921C128.099 38.2921 129.89 36.5702 132.851 32.9201C133.471 32.1626 134.229 32.1626 134.711 33.3335C136.019 36.5014 137.948 38.2233 139.463 38.2233C141.254 38.2233 142.149 36.6392 142.149 34.2288C142.149 32.5814 141.948 30.6661 141.775 29.017C141.644 27.7703 141.529 26.6757 141.529 25.9642ZM30.4409 25.0689C34.091 25.0689 38.0855 23.0716 38.0855 19.0083C38.0855 16.5424 36.555 14.269 32.465 13.5767C32.2492 13.9139 32.0349 14.2489 31.8219 14.5821C29.7437 17.8311 27.7836 20.8954 25.8056 23.8908C26.9908 24.5565 28.4897 25.0689 30.4409 25.0689ZM67.3555 26.3086C67.3555 25.2067 66.6667 24.4491 65.5648 24.4491C62.8017 24.4491 58.6341 28.3267 56.673 32.0712C57.3969 32.3509 58.2467 32.5069 59.1599 32.5069C64.0497 32.5069 67.3555 28.788 67.3555 26.3086ZM85.4685 36.2948C85.4685 37.5345 86.1571 38.3609 87.6033 38.3609C92.08 38.3609 97.6586 30.2343 97.6586 26.9284C97.6586 25.5511 96.901 24.7245 95.6613 24.7245C91.598 24.7245 85.4685 32.4381 85.4685 36.2948ZM142.975 11.4328C141.39 14.0499 138.98 17.0114 138.085 17.9067C133.952 16.1849 130.096 12.7414 130.647 11.7772C132.162 9.09125 134.641 6.19867 135.537 5.30336C139.669 7.02513 143.526 10.5375 142.975 11.4328Z" fill="#FF4438"/>
</g>
</svg>
