<svg width="133" height="33" viewBox="0 0 133 33" fill="none" xmlns="http://www.w3.org/2000/svg">
<path d="M132.759 2.42103C132.294 1.74971 131.765 1.30216 129.49 1.12634C128.897 1.07839 126.926 1.01445 123.626 1.01445C114.941 1.01445 109.045 3.65178 106.033 8.8625C106.866 3.61981 101.755 0.998467 90.7152 0.998467C77.7529 0.998467 69.6615 6.22517 66.4409 16.6946C65.2553 19.7635 65.1271 23.1201 66.0724 26.2689L63.0121 26.4767C60.6247 26.6525 57.4683 26.8283 55.5455 26.8283C50.8028 26.8283 47.8547 26.0291 46.7171 24.4307C45.6916 22.9922 45.8038 20.3389 46.9894 16.4548C48.9602 10.0293 53.8632 7.13625 61.6982 7.13625C65.752 7.13625 69.7096 7.56781 69.7096 7.56781C70.1902 7.48789 70.5267 7.04035 70.4466 6.54485C70.4466 6.52886 70.4466 6.51288 70.4306 6.4969L70.3505 5.88951L70.0781 3.7317C69.9018 2.30914 68.8443 1.47798 66.9216 1.20626C65.1591 1.09437 63.8613 0.998467 61.9225 0.998467H61.8104C51.5719 1.01445 44.4418 4.38703 40.4041 11.1162C41.8782 4.37105 37.1355 0.998467 26.176 0.998467C21.8018 0.918548 17.4277 1.09437 13.0695 1.52593C11.4192 1.50995 9.92906 2.51693 9.35224 4.05137L8.48702 6.83256C8.32679 7.34404 8.56713 7.59978 9.22406 7.59978H9.24008C9.72076 7.53584 11.5794 7.36002 14.7519 7.10428C18.9498 6.76862 22.0422 6.5928 24.0931 6.5928C30.1336 6.5928 32.6652 8.11126 31.7199 11.1322C31.5436 11.7716 31.0149 12.2671 30.3579 12.3789C24.6539 13.322 20.1195 14.0093 16.7707 14.4249C7.33338 15.6236 1.88568 18.5807 0.427619 23.2639C-1.57521 29.7054 3.4559 32.9341 15.553 32.9341C20.6322 32.998 25.7114 32.6464 30.7425 31.8952C33.0978 31.4956 34.2995 30.8882 34.7642 29.3697L37.0233 22.193C36.799 29.3537 41.8141 32.9661 52.1167 32.9661C55.6897 33.03 59.2468 32.8702 62.7878 32.4706C64.9028 32.103 65.9122 31.6394 66.3768 30.041L66.8255 27.7873C69.0206 31.2079 73.8274 32.9181 81.2619 32.9181C89.097 32.9181 93.6634 32.6944 94.9613 32.2628C95.8745 32.071 96.6276 31.4316 96.9641 30.5685C97.0122 30.4247 97.0442 30.2648 97.0602 30.121L98.0056 27.0681C98.1658 26.5406 97.9254 26.2849 97.2845 26.3008L92.2694 26.5406C88.9207 26.7324 86.309 26.8283 84.4184 26.8123C81.9509 26.9402 79.4834 26.7004 77.08 26.0771C75.1572 25.4217 73.9716 23.5037 74.244 21.5057L90.1224 19.4598C97.2365 18.5487 102.011 16.3429 104.415 12.8744L99.031 31.6714C98.9188 31.9591 98.9669 32.2788 99.1432 32.5185C99.4316 32.7903 99.8001 32.9181 100.185 32.8702H106.754C107.507 32.9821 108.244 32.5185 108.452 31.7833L114.253 11.4998C115.022 8.83053 117.457 7.53584 121.735 7.53584C125.597 7.53584 128.497 7.56781 130.355 7.64773C130.403 7.64773 130.451 7.64773 130.499 7.64773C131.124 7.64773 131.685 7.23215 131.845 6.62477L132.871 3.84359C133.079 3.38006 133.031 2.8366 132.759 2.42103ZM26.8169 26.8123C23.8848 27.1799 20.9206 27.3398 17.9724 27.2918C11.291 27.2918 8.37486 25.9332 9.22406 23.2319C9.83292 21.2979 11.5794 20.1311 14.4795 19.7315L29.669 17.6856L26.8169 26.8123ZM97.0442 10.381C96.4033 12.4589 93.4391 13.8814 88.1356 14.6486L75.4777 16.4548L75.7982 15.4159C76.423 12.6347 77.9933 10.1732 80.2685 8.43094C82.1912 7.20018 85.3156 6.57682 89.6738 6.57682C95.3618 6.56083 97.8293 7.83954 97.0442 10.381Z" fill="#9CA3AF"/>
</svg>
