<svg width="139" height="33" viewBox="0 0 139 33" fill="none" xmlns="http://www.w3.org/2000/svg">
<path fill-rule="evenodd" clip-rule="evenodd" d="M20.212 16.4044C21.4631 15.9195 22.5365 15.0632 23.2885 13.9503C24.0405 12.8373 24.4353 11.5208 24.4199 10.1769C24.4199 4.57221 20.4511 1.79379 14.9999 1.79379H0.702637V32.2702H16.2432C21.0249 32.2702 25.711 28.9169 25.711 23.7912C25.711 17.6978 20.212 16.4619 20.212 16.4044ZM8.1621 8.11709H13.7089C14.0641 8.09503 14.4201 8.14336 14.7566 8.25932C15.0931 8.37527 15.4035 8.55657 15.67 8.79284C15.9365 9.02911 16.1538 9.31571 16.3096 9.63623C16.4654 9.95676 16.5566 10.3049 16.5779 10.6608C16.5779 10.7694 16.5779 10.8795 16.5779 10.9913C16.5628 11.7405 16.2528 12.4535 15.7155 12.9748C15.1781 13.4961 14.4569 13.7835 13.7089 13.7745H8.11428L8.1621 8.11709ZM13.7567 25.8894H8.20992V19.9014H13.6132C16.3388 19.9014 17.6299 21.099 17.6299 22.8714C17.6299 25.0846 16.0041 25.8894 13.7567 25.8894Z" fill="#9CA3AF"/>
<path fill-rule="evenodd" clip-rule="evenodd" d="M42.16 1.02739C33.3617 1.02739 28.1975 8.06925 28.1975 16.9793C28.1975 25.8894 33.3617 32.9313 42.16 32.9313C50.9584 32.9313 56.1226 25.9373 56.1226 16.9793C56.1226 8.02134 51.0062 1.02739 42.16 1.02739ZM42.16 25.6499C37.8565 25.6499 35.7047 21.7697 35.7047 16.9793C35.7047 12.189 37.8565 8.35667 42.16 8.35667C46.4636 8.35667 48.6632 12.2369 48.6632 16.9793C48.6632 21.8176 46.4636 25.6499 42.16 25.6499Z" fill="#9CA3AF"/>
<path fill-rule="evenodd" clip-rule="evenodd" d="M72.3326 13.77L71.2806 13.5305C68.6985 13.0036 66.6424 12.3329 66.6424 10.4647C66.6424 8.45272 68.6029 7.63836 70.3243 7.63836C71.4987 7.65588 72.657 7.91592 73.7265 8.40223C74.7961 8.88853 75.7541 9.59065 76.5405 10.4647L81.2744 5.77011C79.1226 3.32702 75.632 0.979736 70.1808 0.979736C63.7734 0.979736 58.896 4.57252 58.896 10.5605C58.896 16.0215 62.817 18.7041 67.5987 19.7101L68.6507 19.9496C72.6195 20.764 74.1018 21.3867 74.1018 23.3029C74.1018 25.1232 72.4761 26.3208 69.9896 26.3208C67.0249 26.3208 64.3472 25.0274 62.291 22.3927L57.4615 27.1831C60.1393 30.3926 63.5343 32.8836 70.0852 32.8836C75.7754 32.8836 81.8482 29.6262 81.8482 22.9676C81.9438 16.0215 76.684 14.6802 72.3326 13.77Z" fill="#9CA3AF"/>
<path fill-rule="evenodd" clip-rule="evenodd" d="M98.8711 25.6505C95.5239 25.6505 92.0332 22.872 92.0332 16.7883C92.0332 11.3751 95.2848 8.3572 98.6798 8.3572C101.358 8.3572 102.936 9.6027 104.179 11.7584L110.299 7.68655C107.239 3.03988 103.605 1.07583 98.5842 1.07583C89.4033 1.07583 84.4303 8.21349 84.4303 16.8362C84.4303 25.89 89.9293 32.9797 98.4885 32.9797C104.513 32.9797 107.383 30.872 110.491 26.369L104.322 22.211C103.079 24.2133 101.74 25.6505 98.8711 25.6505Z" fill="#9CA3AF"/>
<path fill-rule="evenodd" clip-rule="evenodd" d="M130.717 1.79379V13.0033H121.488V1.79379H113.503V32.2606H121.488V20.2367H130.717V32.2606H138.703V1.79379H130.717Z" fill="#9CA3AF"/>
</svg>
