<svg width="147" height="40" viewBox="0 0 147 40" fill="none" xmlns="http://www.w3.org/2000/svg">
<g clip-path="url(#clip0_3528_489)">
<path d="M77.1811 9.57812H76.6345V10.1208V29.5591V30.1018H77.1811H81.701H82.2476V29.5591V10.1208V9.57812H81.701H77.1811Z" fill="#9CA3AF"/>
<path d="M104.161 9.57812H103.793L103.656 9.91458L98.2177 23.0987L92.7495 9.91458L92.6101 9.57812H92.2439H87.284H86.4478L86.7839 10.3379L95.3866 29.7789L95.5287 30.1018H95.8867H100.407H100.762L100.907 29.7816L109.619 10.3406L109.96 9.57812H109.119H104.161Z" fill="#9CA3AF"/>
<path d="M114.732 9.57812H114.185V10.1208V29.5591V30.1018H114.732H119.254H119.801V29.5591V10.1208V9.57812H119.254H114.732Z" fill="#9CA3AF"/>
<path d="M139.034 19.84L146.322 10.4518L147 9.57812H145.891H140.127H139.857L139.693 9.78977L135.462 15.2381L131.232 9.78977L131.068 9.57812H130.798H125.034H123.925L124.603 10.4518L131.891 19.84L124.603 29.2281L123.925 30.1018H125.034H130.798H131.068L131.232 29.8929L135.462 24.4418L139.693 29.8929L139.857 30.1018H140.127H145.891H147L146.322 29.2281L139.034 19.84Z" fill="#9CA3AF"/>
<path d="M63.2905 30.8806C60.296 30.8883 57.4114 29.7605 55.2261 27.7277C54.1534 26.7428 53.2975 25.5482 52.7121 24.219C52.1267 22.8899 51.8245 21.4549 51.8245 20.0042C51.8245 18.5535 52.1267 17.1185 52.7121 15.7893C53.2975 14.4602 54.1534 13.2656 55.2261 12.2807C59.7461 8.05058 66.9578 8.06957 71.3002 12.3241L67.4743 16.1879C65.1979 13.9575 61.3912 13.9765 58.9837 16.2313C58.4534 16.7087 58.0296 17.291 57.7396 17.9408C57.4496 18.5906 57.2998 19.2934 57.2998 20.0042C57.2998 20.7149 57.4496 21.4178 57.7396 22.0676C58.0296 22.7173 58.4534 23.2997 58.9837 23.7771C61.3448 25.9857 65.2335 26.002 67.4798 23.8151L71.3056 27.6897C69.1596 29.7572 66.2806 30.9033 63.2905 30.8806Z" fill="#9CA3AF"/>
<path d="M20.1433 25.5054C21.6134 25.5039 23.0229 24.9234 24.0624 23.8913C25.102 22.8591 25.6866 21.4597 25.688 20H40.2891C40.2891 23.9555 39.1078 27.8222 36.8946 31.1111C34.6814 34.4 31.5356 36.9635 27.8551 38.4773C24.1746 39.9912 20.1246 40.3874 16.2173 39.6159C12.31 38.8444 8.72085 36.9399 5.90368 34.1431C3.08651 31.3463 1.16785 27.7829 0.390316 23.9035C-0.387218 20.024 0.0112922 16.0028 1.53546 12.3482C3.05962 8.69364 5.64098 5.56988 8.95314 3.37193C12.2653 1.17397 16.1595 0.000536632 20.1433 0V14.4974C18.6735 14.4974 17.2638 15.0771 16.2245 16.109C15.1852 17.141 14.6013 18.5406 14.6013 20C14.6013 21.4594 15.1852 22.859 16.2245 23.891C17.2638 24.9229 18.6735 25.5026 20.1433 25.5026V25.5054Z" fill="#9CA3AF"/>
<path d="M40.2261 0.00292969H25.6086V14.5166H40.2261V0.00292969Z" fill="#9CA3AF"/>
</g>
<defs>
<clipPath id="clip0_3528_489">
<rect width="147" height="40" fill="white"/>
</clipPath>
</defs>
</svg>
