<svg width="105" height="37" viewBox="0 0 105 37" fill="none" xmlns="http://www.w3.org/2000/svg">
<path d="M19.3872 18.9584C19.3872 14.9211 16.7179 12.6277 12.939 12.6277H10.6262V25.2935H12.8732C16.3869 25.2935 19.3872 23.377 19.3872 18.9584ZM60.5267 23.5154L43.4887 36.9797L27.9168 24.6759C25.6698 30.0932 20.2401 33.8559 13.9872 33.8559H0.660156V4.06101H13.9872C20.9743 4.06101 26.0093 8.52002 27.9125 13.2708L43.4887 0.979736L49.2579 5.5367L34.9824 16.7971L37.7259 18.9521L51.9971 7.69806L57.7748 12.2422L43.5014 23.5154L46.2407 25.6746L60.5267 14.3994V4.06101H70.8832V25.1593H81.2143V33.8921H60.5267V23.5154ZM94.3334 25.1636H104.66V33.8921H83.9662V4.06101H94.3334V25.1636Z" fill="#9CA3AF"/>
</svg>
