<svg width="111" height="40" viewBox="0 0 111 40" fill="none" xmlns="http://www.w3.org/2000/svg">
<path d="M110.363 16.2329C95.6197 6.39308 76.3876 0.433472 55.3511 0.433472C34.311 0.433472 15.0825 6.39308 0.339355 16.2329C15.0018 11.3625 32.1435 8.33316 55.3511 8.33316C78.5588 8.33316 95.7004 11.3625 110.363 16.2329ZM46.916 21.3489C45.8341 21.3489 45.2803 22.2218 45.1336 23.3C44.9759 24.4809 44.3561 28.5885 44.2167 29.6301C44.1324 30.2572 44.0884 30.91 43.4833 31.1777C42.8745 31.4454 42.1373 31.0347 41.5102 30.4992L31.5714 22.0348C31.0575 21.5892 30.3994 21.3455 29.7193 21.3489C28.3147 21.3489 26.9577 22.2218 26.9577 24.3563V37.5737C26.9577 38.608 27.6875 39.2681 28.5567 39.2681C29.5176 39.2681 30.1374 38.6336 30.2731 37.7021C30.2731 37.7021 31.2963 31.4014 31.421 30.6936C31.5677 29.8794 31.6961 29.2376 32.4846 28.9956C33.1997 28.7719 33.8745 29.1863 34.8794 30.0665C35.8696 30.9283 44.2534 38.5053 44.2534 38.5053C44.8952 39.0481 45.3647 39.2644 46.2742 39.2644C47.0957 39.2644 48.5957 38.9307 48.5957 36.4075V23.2377C48.5957 22.0164 47.8365 21.3489 46.916 21.3489ZM106.908 35.4393C99.5989 37.009 91.2408 35.3293 91.2408 30.1582C91.2408 26.256 94.8643 24.6643 97.7175 24.4369C100.71 24.1986 103.05 24.8257 104.26 26.0763C105.012 26.8575 104.799 27.921 103.325 28.009C101.964 28.0934 99.4082 28.1704 97.2848 28.2511C96.0745 28.2951 95.4327 28.9442 95.4327 29.8134C95.4327 30.4992 95.9535 31.2877 97.3398 31.2951L106.886 31.3427C108.544 31.3464 109.358 30.4186 109.358 28.5151C109.358 25.4968 106.622 20.9199 98.6234 20.9199C91.3728 20.9199 86.1247 24.5323 86.1247 30.4332C86.1247 38.8023 98.4473 41.3622 107.469 38.2449C108.327 37.9515 109.105 37.339 108.859 36.3818C108.639 35.5383 107.946 35.2156 106.908 35.4393ZM22.1277 35.4393C14.8185 37.009 6.45666 35.3293 6.45666 30.1582C6.45666 26.256 10.0801 24.6643 12.9334 24.4369C15.9334 24.1986 18.2732 24.8257 19.4761 26.0763C20.2316 26.8575 20.0189 27.921 18.5409 28.009C17.1803 28.0934 14.6277 28.1704 12.5006 28.2511C11.2977 28.2951 10.6486 28.9442 10.6486 29.8134C10.6486 30.4992 11.1693 31.2877 12.5556 31.2951L22.1093 31.3427C23.7597 31.3464 24.5775 30.4186 24.5775 28.5151C24.5775 25.4968 21.8453 20.9199 13.8392 20.9199C6.59236 20.9199 1.3479 24.5323 1.3479 30.4332C1.3479 38.8023 13.6705 41.3622 22.6925 38.2449C23.547 37.9515 24.3208 37.339 24.0751 36.3818C23.8551 35.5383 23.1656 35.2156 22.1277 35.4393ZM78.7275 27.3929C78.8888 31.9552 79.3216 35.74 79.4389 37.064C79.5966 38.7767 80.4805 39.2681 81.368 39.2681C82.2189 39.2681 83.1247 38.817 83.2788 37.0786C83.4108 35.619 83.8472 31.1007 84.0563 26.6337C84.0673 26.4064 83.9096 26.3037 83.7189 26.3403L78.9622 27.1105C78.8228 27.1399 78.7201 27.2499 78.7275 27.3929ZM81.3827 20.9162C79.1969 20.9162 78.5661 22.6252 78.5881 23.6778C78.5881 23.8758 78.6138 24.4113 78.6468 25.0824C78.6504 25.2328 78.7861 25.3758 78.9695 25.3538L83.9316 24.547C83.9983 24.5381 84.0597 24.5054 84.1041 24.4548C84.1486 24.4042 84.1733 24.3393 84.1736 24.2719C84.1883 24.0409 84.1956 23.7988 84.1993 23.6851C84.2286 22.6802 83.5795 20.9162 81.3827 20.9162ZM74.0845 28.1961C72.4304 28.1961 67.3254 28.2327 64.054 28.2474C62.4697 28.2474 62.0736 29.1019 62.0736 29.8061C62.0736 30.4186 62.499 31.2144 63.9806 31.2877C66.2325 31.4051 69.1004 31.5445 70.4244 31.6068C72.2031 31.6985 72.2287 32.6117 71.6273 33.4039C70.417 34.9735 67.4721 36.0077 64.4171 36.0077C60.4269 36.0077 56.0333 33.7339 56.0333 30.1362C56.0333 26.7621 59.7961 23.0396 70.9635 24.6056C71.9427 24.7523 72.9072 24.569 73.1529 23.6631C73.4097 22.6986 72.7862 22.0751 71.5136 21.7414C69.213 21.1572 66.8454 20.8797 64.4721 20.9162C56.9538 20.9162 50.9245 24.5066 50.9245 30.3049C50.9245 36.4955 56.9281 39.5248 64.4207 39.5248C72.7789 39.5248 76.8534 34.9735 76.8534 30.9943C76.8534 28.9699 75.8155 28.1961 74.0845 28.1961Z" fill="#9CA3AF"/>
</svg>
