<svg width="248" height="89" viewBox="0 0 248 89" fill="none" xmlns="http://www.w3.org/2000/svg">
<g clip-path="url(#clip0_3530_511)">
<path fill-rule="evenodd" clip-rule="evenodd" d="M112.06 26.637C112.06 26.637 118.489 23.422 124.46 20.207C130.43 16.993 135.022 13.319 135.022 13.319C135.022 13.319 154.312 23.857 187.837 21.802C221.363 19.748 248 0 248 0C248 0 222.74 25.26 174.978 38.119C127.215 50.978 83.585 37.2 83.585 37.2L93.23 33.985C93.23 33.985 107.007 38.578 132.726 39.496C158.444 40.415 176.815 34.444 176.815 34.444C176.815 34.444 160.281 37.2 143.289 34.904C126.296 32.607 112.06 26.637 112.06 26.637ZM8.03602 84.733C7.64602 85.198 6.42902 86.111 5.06402 86.111C1.37702 86.111 -0.000976562 83.585 -0.000976562 80.371C-0.000976562 77.615 1.38902 75.089 5.06402 75.089C9.19702 75.089 9.64402 78.363 9.64402 78.977H7.11802C7.11802 78.557 6.65802 77.156 5.06402 77.156C2.52402 77.156 2.06602 79.751 2.06602 80.37C2.06602 80.37 2.06602 84.274 5.06402 84.274C7.57702 84.274 7.57702 81.978 7.57702 81.978H5.28002V80.37H9.64302V85.881H8.03702L8.03602 84.733ZM11.48 86.111V75.32H19.518V77.386H14.006V79.682H19.058V81.29H14.006V84.045H19.747V86.112L11.48 86.111ZM27.555 86.111H25.258V75.32H27.555V79.453H31.688V75.32H33.984V86.11H31.69V81.29H27.557V86.112L27.555 86.111ZM39.728 86.111C38.651 86.111 37.73 85.773 36.967 85.097C36.203 84.421 35.821 83.417 35.821 82.087C35.821 80.76 36.203 79.76 36.967 79.086C37.73 78.411 38.651 78.074 39.727 78.074C40.805 78.074 41.725 78.411 42.487 79.086C43.247 79.76 43.629 80.76 43.629 82.087C43.629 83.417 43.248 84.421 42.486 85.097C41.725 85.773 40.806 86.111 39.728 86.111ZM39.725 84.274C40.277 84.274 40.721 84.064 41.058 83.642C41.394 83.22 41.562 82.664 41.562 81.974C41.562 81.286 41.394 80.732 41.058 80.312C40.721 79.892 40.278 79.682 39.725 79.682C39.173 79.682 38.729 79.892 38.392 80.312C38.056 80.732 37.888 81.286 37.888 81.974C37.888 82.664 38.056 83.22 38.392 83.642C38.729 84.063 39.172 84.274 39.725 84.274ZM47.303 85.881H45.236V78.304H47.303V79.222C47.59 78.797 48.221 78.074 49.599 78.074C52.125 78.074 52.355 79.971 52.355 80.83V85.881H50.288V81.748C50.288 81.05 50.288 79.681 48.91 79.681C47.532 79.681 47.303 81.001 47.303 81.748V85.881ZM59.473 75.319H61.54V85.869H59.703V84.963C59.703 84.963 59.243 86.111 57.648 86.111C54.651 86.111 53.732 84.274 53.732 81.978C53.732 79.452 55.11 78.074 57.177 78.074C59.014 78.074 59.473 78.993 59.473 78.993V75.319ZM59.473 81.978C59.473 80.6 58.784 79.681 57.636 79.681C56.488 79.681 55.799 80.6 55.799 81.978C55.799 83.356 56.476 84.504 57.636 84.504C58.784 84.504 59.473 83.356 59.473 81.978ZM68.2 85.88V85.192C67.74 85.422 67.51 85.732 67.052 85.88C66.593 86.03 66.095 86.11 65.674 86.11C64.969 86.11 64.296 85.88 63.837 85.421C63.377 84.962 63.148 84.464 63.148 83.814C63.148 83.08 63.351 82.359 64.067 81.96C64.782 81.56 65.444 81.288 67.052 81.058C67.052 81.058 68.2 81.058 68.2 80.369C68.2 79.904 67.74 79.451 66.822 79.451C65.904 79.451 65.457 79.856 65.457 80.165V80.599H63.377V80.165C63.377 79.827 63.403 79.381 63.734 79.023C64.065 78.665 64.435 78.484 64.985 78.303C65.535 78.121 66.168 78.073 66.822 78.073C67.468 78.073 68.128 78.13 68.659 78.303C69.19 78.475 69.563 78.699 69.807 78.992C70.052 79.284 70.267 79.91 70.267 81.058C70.267 81.058 70.247 84.147 70.267 84.503C70.286 84.859 70.267 85.421 70.497 85.88H68.2ZM67.97 82.206C67.97 82.206 67.725 82.365 67.511 82.436C66.822 82.666 65.978 82.648 65.674 82.896C65.37 83.143 65.214 83.355 65.214 83.814C65.214 84.274 65.674 84.732 66.134 84.732C67.281 84.732 67.579 84.117 67.741 83.814C67.903 83.51 67.971 83.068 67.971 82.666L67.97 82.206ZM76.467 85.88H74.85L79.221 75.088H80.6L84.963 85.88H83.373L81.978 82.666H77.844L76.467 85.88ZM78.074 81.518H81.748L79.907 76.695L78.074 81.518ZM90.474 83.584H92.081V84.044C92.081 84.962 90.704 86.11 89.066 86.11C87.831 86.11 86.877 85.735 86.203 84.984C85.529 84.234 85.193 83.286 85.193 82.141C85.193 80.971 85.628 79.762 86.341 78.991C87.053 78.221 87.948 78.073 88.867 78.073C89.785 78.073 90.185 78.198 90.686 78.447C91.186 78.696 91.561 79.15 91.852 79.68C92.143 80.211 92.312 80.802 92.312 81.747V82.436H86.57C86.57 83.25 87.03 84.962 88.637 84.962C89.235 84.962 90.474 84.732 90.474 84.043V83.584ZM86.57 81.29H90.933C90.933 81.29 90.838 80.62 90.647 80.264C90.4726 79.926 90.1967 79.6511 89.858 79.478C89.523 79.308 89.132 79.223 88.686 79.223C88.158 79.223 87.671 79.423 87.224 79.825C86.777 80.225 86.712 80.561 86.57 81.29ZM153.622 83.586H155.23V84.046C155.23 84.964 153.852 86.112 152.215 86.112C150.98 86.112 150.025 85.737 149.351 84.986C148.678 84.236 148.341 83.288 148.341 82.143C148.341 80.973 148.776 79.764 149.489 78.993C150.202 78.223 151.096 78.075 152.015 78.075C152.933 78.075 153.333 78.2 153.834 78.449C154.335 78.698 154.709 79.152 155 79.682C155.291 80.213 155.46 80.804 155.46 81.749V82.438H149.719C149.719 83.252 150.178 84.964 151.785 84.964C152.383 84.964 153.622 84.734 153.622 84.045V83.586ZM149.719 81.29H154.081C154.081 81.29 153.986 80.62 153.795 80.264C153.621 79.926 153.345 79.6511 153.006 79.478C152.671 79.308 152.28 79.223 151.834 79.223C151.306 79.223 150.819 79.423 150.372 79.825C149.925 80.225 149.861 80.561 149.719 81.29ZM95.067 85.88H93.689V78.073H95.067V79.451C95.067 79.221 95.526 78.073 97.133 78.073H97.823V79.451H96.903C96.444 79.451 96.189 79.701 95.756 80.14C95.322 80.578 95.066 81.32 95.066 82.436L95.067 85.88ZM102.039 86.103C101.025 86.103 100.159 85.765 99.439 85.089C98.721 84.413 98.362 83.409 98.362 82.079C98.362 80.753 98.722 79.752 99.44 79.078C100.158 78.404 101.025 78.066 102.039 78.066C103.053 78.066 103.918 78.404 104.635 79.078C105.352 79.752 105.71 80.753 105.71 82.079C105.71 83.409 105.352 84.413 104.635 85.089C103.918 85.765 103.053 86.103 102.039 86.103ZM102.011 84.962C102.717 84.962 103.286 84.688 103.716 84.14C104.146 83.592 104.362 82.87 104.362 81.971C104.362 81.077 104.147 80.357 103.716 79.811C103.286 79.265 102.717 78.991 102.011 78.991C101.304 78.991 100.735 79.265 100.305 79.811C99.875 80.357 99.659 81.077 99.659 81.971C99.659 82.869 99.874 83.592 100.305 84.141C100.735 84.688 101.304 84.962 102.011 84.962ZM111.141 85.88V75.32H118.719V76.697H112.978V79.68L118.259 79.682V81.06H112.978V84.505H118.718V85.882H111.141V85.88ZM121.474 85.88H120.096V78.285H121.474V79.68C121.474 79.45 121.704 78.073 123.922 78.073C126.526 78.073 126.526 80.253 126.526 81.058V85.88H125.148V80.83C125.148 80.151 125.148 79.222 123.77 79.222C121.933 79.222 121.474 80.563 121.474 81.289V85.88ZM141.681 85.88H140.304V78.285H141.681V79.68C141.681 79.45 141.911 78.073 144.129 78.073C146.733 78.073 146.733 80.253 146.733 81.058V85.88H145.356V80.83C145.356 80.151 145.356 79.222 143.978 79.222C142.141 79.222 141.681 80.563 141.681 81.289V85.88ZM133.644 84.732C133.377 85.256 132.726 85.88 131.119 85.88C129.97 85.88 129.432 85.43 128.822 84.732C128.212 84.035 128.133 83.355 128.133 81.977C128.133 80.599 128.823 78.073 131.348 78.073C131.842 78.073 132.105 78.117 132.496 78.303C132.888 78.488 133.249 78.658 133.644 79.221V78.303H135.022V84.383C135.022 85.917 134.902 86.998 134.563 87.488C134.224 87.978 133.705 88.398 133.185 88.636C132.665 88.873 132.095 88.866 131.395 88.866C130.744 88.866 130.255 88.82 129.741 88.636C129.227 88.452 128.861 88.266 128.593 87.947C128.323 87.628 128.133 87.141 128.133 86.799V86.569H129.511V86.799C129.511 87.488 130.43 87.718 131.348 87.718C132.726 87.718 133.644 87.258 133.644 85.421V84.732ZM133.644 81.747C133.644 80.931 133.618 80.414 133.185 79.91C132.752 79.406 132.496 79.221 131.578 79.221C129.741 79.221 129.281 81.056 129.281 81.977C129.281 83.584 130.2 84.732 131.578 84.732C132.241 84.732 132.773 84.38 133.185 83.814C133.598 83.248 133.645 82.639 133.645 81.747H133.644ZM136.859 78.303H138.237V85.88H136.859V78.303ZM136.859 77.053V75.547H138.237V77.053H136.859ZM156.149 83.355H157.515V83.814C157.515 84.141 157.715 84.286 157.985 84.503C158.379 84.8076 158.865 84.9694 159.363 84.962C159.929 84.962 160.389 84.982 160.741 84.728C161.092 84.473 161.2 84.159 161.2 83.814C161.2 83.344 160.969 83.092 160.281 82.895L157.985 82.206C156.901 81.839 156.378 81.224 156.378 80.369C156.378 79.769 156.542 79.216 157.067 78.762C157.591 78.308 158.555 78.073 159.593 78.073C160.614 78.073 161.297 78.268 161.729 78.656C162.161 79.046 162.349 79.438 162.349 79.91V80.599H160.97V79.91C160.97 79.656 160.511 79.221 159.593 79.221C159.043 79.221 158.506 79.236 158.213 79.447C157.921 79.657 157.756 79.831 157.756 80.14C157.756 80.376 157.775 80.599 157.986 80.829C158.196 81.059 161.037 81.674 161.2 81.747C161.363 81.82 162.578 82.207 162.578 83.558C162.578 84.278 162.447 84.93 161.888 85.421C161.331 85.912 160.432 86.111 159.363 86.111C158.683 86.111 158.059 86.017 157.613 85.829C157.198 85.6646 156.831 85.3984 156.546 85.055C156.283 84.733 156.142 84.3286 156.148 83.913V83.355H156.149Z" fill="#9CA3AF"/>
</g>
<defs>
<clipPath id="clip0_3530_511">
<rect width="248" height="89" fill="white"/>
</clipPath>
</defs>
</svg>
