<svg width="123" height="41" viewBox="0 0 123 41" fill="none" xmlns="http://www.w3.org/2000/svg">
<path d="M105.491 14.6556V18.0695H105.754V14.8111L111.239 18.083L116.92 14.6556L111.239 11.235L105.491 14.6556Z" fill="#9CA3AF"/>
<path d="M111.239 18.083V24.9311L116.92 21.5037V14.6556L111.239 18.083Z" fill="#9CA3AF"/>
<path d="M111.171 4.38689V7.77374H111.435V4.54237L116.92 7.80754L122.6 4.38689L116.92 0.959473L111.171 4.38689Z" fill="#9CA3AF"/>
<path d="M116.92 7.80754V14.6556L122.6 11.235V4.38689L116.92 7.80754Z" fill="#9CA3AF"/>
<path d="M3.4505 12.9723V34.4291H0.600098V12.9723H3.4505Z" fill="#9CA3AF"/>
<path d="M21.5796 12.9723V34.4291H18.9183V31.7927C17.6958 33.6652 15.7302 34.828 13.1297 34.828C8.87437 34.828 5.38229 31.3059 5.38229 26.7699C5.38229 22.2338 8.87437 18.705 13.1297 18.705C15.7302 18.705 17.6958 19.8677 18.9183 21.7403V12.9723H21.5796ZM18.9183 26.7631C18.9183 23.6399 16.561 21.2738 13.4674 21.2738C10.3739 21.2738 8.04357 23.6331 8.04357 26.7631C8.04357 29.8931 10.4009 32.2524 13.4674 32.2524C16.534 32.2524 18.9183 29.8931 18.9183 26.7631Z" fill="#9CA3AF"/>
<path d="M31.502 32.3132C33.6162 32.3132 35.1494 31.333 35.9127 30.0756L38.1822 31.36C36.8313 33.4422 34.5077 34.8212 31.4412 34.8212C26.5104 34.8212 23.2345 31.36 23.2345 26.7631C23.2345 22.1662 26.4834 18.6982 31.2588 18.6982C36.0343 18.6982 38.8847 22.4974 38.8847 26.7901C38.8847 27.189 38.8509 27.5878 38.7901 27.9867H25.9565C26.4766 30.7448 28.6516 32.3064 31.502 32.3064V32.3132ZM25.9565 25.6612H36.1829C35.7236 22.6259 33.5486 21.2197 31.2521 21.2197C28.3746 21.2197 26.3821 22.9977 25.9565 25.6612Z" fill="#9CA3AF"/>
<path d="M55.7304 19.1038V34.4291H53.0691V31.7927C51.8466 33.6652 49.881 34.828 47.2805 34.828C43.0252 34.828 39.5331 31.3059 39.5331 26.7699C39.5331 22.2338 43.0252 18.705 47.2805 18.705C49.881 18.705 51.8466 19.8677 53.0691 21.7403V19.1038H55.7304ZM53.0691 26.7699C53.0691 23.6466 50.7118 21.2806 47.6183 21.2806C44.5247 21.2806 42.1944 23.6399 42.1944 26.7699C42.1944 29.8998 44.5517 32.2591 47.6183 32.2591C50.6848 32.2591 53.0691 29.8998 53.0691 26.7699Z" fill="#9CA3AF"/>
<path d="M73.5826 19.1038V33.7869C73.5826 38.5664 69.7528 40.9595 65.7744 40.9595C62.3431 40.9595 59.7696 39.6412 58.5132 37.2211L60.8435 35.9029C61.5461 37.3428 62.8362 38.4785 65.8352 38.4785C69.0233 38.4785 70.9483 36.6735 70.9483 33.7869V31.6101C69.7258 33.4827 67.7602 34.6725 65.1935 34.6725C60.8435 34.6725 57.3852 31.1505 57.3852 26.6752C57.3852 22.2 60.8435 18.705 65.1935 18.705C67.767 18.705 69.7258 19.8677 70.9483 21.7403V19.1038H73.5826ZM70.9483 26.6752C70.9483 23.6128 68.591 21.2468 65.4974 21.2468C62.4039 21.2468 60.0465 23.6061 60.0465 26.6752C60.0465 29.7443 62.4039 32.1307 65.4974 32.1307C68.591 32.1307 70.9483 29.7714 70.9483 26.6752Z" fill="#9CA3AF"/>
<path d="M83.505 32.3132C85.6191 32.3132 87.1524 31.333 87.9157 30.0756L90.1852 31.36C88.8343 33.4422 86.5107 34.8212 83.4442 34.8212C78.5134 34.8212 75.2375 31.36 75.2375 26.7631C75.2375 22.1662 78.4864 18.6982 83.2618 18.6982C88.0372 18.6982 90.8877 22.4974 90.8877 26.7901C90.8877 27.189 90.8539 27.5878 90.7931 27.9867H77.9595C78.4796 30.7448 80.6546 32.3064 83.505 32.3064V32.3132ZM77.9595 25.6612H88.1858C87.7265 22.6259 85.5516 21.2197 83.2551 21.2197C80.3776 21.2197 78.3851 22.9977 77.9595 25.6612Z" fill="#9CA3AF"/>
<path d="M105.984 25.019V34.4291H103.316V25.1744C103.316 22.6597 101.877 21.2535 99.5199 21.2535C97.1626 21.2535 95.0822 22.6935 95.0822 26.3102V34.4359H92.4209V19.1106H95.0822V21.3144C96.217 19.5027 97.8988 18.7117 100.047 18.7117C103.633 18.7117 105.991 21.1048 105.991 25.0257L105.984 25.019Z" fill="#9CA3AF"/>
</svg>
