<svg width="77" height="30" viewBox="0 0 77 30" fill="none" xmlns="http://www.w3.org/2000/svg">
<g clip-path="url(#clip0_3530_498)">
<path d="M59.4296 0.0893555V14.9886L59.2361 15.1456L59.0426 15.3026L58.8571 15.4675L58.6798 15.6323L58.5105 15.7972L58.3412 15.9699L58.1799 16.1426L58.0187 16.3153V0.0893555H41.0638V13.6541H39.661V0.0893555H22.7061V13.6777H21.3033V0.0893555H4.34847V15.5774L0.019043 29.621H3.82442L5.73517 23.4038H6.2834L9.44379 29.621H14.0392L10.9756 23.4038H17.9252L15.9983 29.621H20.1504L22.0531 23.4195H22.9722V23.4038H24.2782H24.3831H32.2276L30.3894 29.6053H34.5818L36.3635 23.4038H38.2501L38.2984 29.6053H41.8136L45.8527 23.4038H48.4971L47.1266 29.6053H51.2544L52.6008 23.4038H54.9872L54.9711 23.7571L54.9797 24.1182L54.9958 24.4635L55.028 24.809L55.0522 24.9738L55.0763 25.1387L55.1085 25.3035L55.1408 25.4684L55.181 25.6332L55.2213 25.7902L55.2697 25.9472L55.318 26.1042L55.3745 26.2612L55.431 26.4104L55.4954 26.5595L55.56 26.7008L55.6326 26.85L55.7051 26.9913L55.7858 27.1247L55.8665 27.266L55.9552 27.3995L56.0519 27.5251L56.1487 27.6585L56.2535 27.7763L56.3583 27.9019L56.4631 28.0196L56.584 28.1374L56.705 28.2473L56.8581 28.3729L57.0113 28.4985L57.1726 28.6162L57.3419 28.7261L57.5112 28.836L57.6805 28.9381L57.8579 29.0244L58.0433 29.1186L58.2207 29.1971L58.4061 29.2755L58.5915 29.3462L58.785 29.4169L58.9785 29.4797L59.172 29.5347L59.3655 29.5896L59.559 29.6367L59.946 29.723L60.341 29.7859L60.728 29.8408L61.115 29.8879L61.4939 29.9193L61.8648 29.935L62.2276 29.9508H62.5742L63.0419 29.9433L63.5095 29.9359L63.9851 29.9123L64.4608 29.8887L64.9365 29.8495L65.4122 29.8102L65.8878 29.7631L66.3635 29.7081L66.8472 29.6453L67.331 29.5746L67.8147 29.4961L68.2984 29.4176L68.7822 29.3313L69.2659 29.2371L69.7496 29.1429L70.2414 29.033L71.6765 23.4046H76.3849V0.0900817L59.4296 0.0893555ZM5.92059 22.8229L5.94476 22.7366L6.00125 22.8229H5.92059ZM20.6906 14.4705L20.4487 15.2634L18.1913 22.5639L18.1026 22.8229H10.6853L10.1129 21.6297L18.1026 13.6777H12.9669L6.71874 20.2324L8.74235 13.6777H4.95311V0.678112H20.6905L20.6906 14.4705ZM25.0683 20.6406L24.9474 20.6481L24.8345 20.6555L24.7136 20.663H24.5846H24.4153H24.2702L24.1331 20.6704H24.0041L22.9964 20.663L23.464 18.9831L23.6816 18.151L24.2138 16.1963H24.3831H24.5604L24.7297 16.1889H24.891H25.673L26.1487 16.1963L26.584 16.2121L26.7775 16.2195L26.963 16.2352L27.1403 16.2588L27.3016 16.2824L27.4467 16.3059L27.5838 16.3452L27.7128 16.3845L27.8256 16.4316L27.9224 16.4787L28.0111 16.5416L28.0917 16.6044L28.1562 16.6829L28.1965 16.7458L28.2287 16.8086L28.2609 16.8793L28.2851 16.9578L28.3012 17.0441L28.3097 17.1304V17.2246V17.3266L28.3012 17.4365L28.2936 17.5464L28.2694 17.672L28.2453 17.7976L28.1727 18.0645L28.084 18.3628L27.9953 18.614L27.8985 18.8574L27.7937 19.085L27.6808 19.297L27.6243 19.3912L27.5679 19.4854L27.5033 19.5796L27.4307 19.6659L27.3581 19.7522L27.2855 19.8307L27.2049 19.9092L27.1242 19.9798L27.0355 20.0427L26.9468 20.1134L26.8501 20.1683L26.7452 20.2311L26.6404 20.2861L26.5276 20.3332L26.4147 20.3803L26.2938 20.4196L26.1648 20.4667L26.0277 20.4981L25.8826 20.5295L25.7375 20.5608L25.5762 20.5844L25.415 20.608L25.2457 20.6237L25.0683 20.6394V20.6406ZM36.5328 22.8229L38.1856 17.0924L38.2501 22.8229H36.5328ZM39.0483 13.6541H35.1139L32.405 22.8229H28.2287L28.4222 22.7445L28.6157 22.666L28.8012 22.5875L28.9866 22.5012L29.164 22.4148L29.3333 22.3128L29.5026 22.2186L29.6638 22.1165L29.8251 22.0066L29.9782 21.8967L30.1234 21.7869L30.2685 21.6612L30.4055 21.5435L30.5345 21.41L30.6635 21.2844L30.7845 21.1431L30.9054 21.0097L31.0183 20.8605L31.1231 20.7192L31.2279 20.5622L31.3246 20.4052L31.4133 20.2483L31.5021 20.0834L31.5827 19.9107L31.6634 19.738L31.736 19.5653L31.8004 19.3847L31.8649 19.1963L31.9133 19.0079L31.9698 18.8195L32.01 18.6154L32.0503 18.4192L32.1068 18.1052L32.1551 17.8069L32.1874 17.5243L32.2115 17.2574L32.2201 16.9905L32.2115 16.7471L32.204 16.5038L32.1717 16.2761L32.1395 16.0642L32.083 15.8522L32.0265 15.656L31.9459 15.4676L31.8572 15.287L31.7604 15.1065L31.6476 14.9416L31.5186 14.7846L31.4137 14.6747L31.3089 14.5648L31.1961 14.4706L31.0751 14.3843L30.9461 14.298L30.8171 14.2195L30.6801 14.1489L30.543 14.086L30.3979 14.0232L30.2528 13.9761L30.0996 13.9289L29.9464 13.8818L29.7852 13.8425L29.6239 13.8112L29.4627 13.7798L29.2934 13.7562L28.9467 13.7091L28.6 13.6856L28.2453 13.662L27.8825 13.6546H27.1569H26.4394H26.2136H25.8105H25.3106H24.7543H24.2142H23.7546H23.4321H23.3112V0.678531H39.0487L39.0483 13.6541ZM48.61 22.8229H46.2478L49.8274 17.3279L48.61 22.8229ZM57.4059 13.9132L57.3974 17.0924L57.1959 17.3672L57.0104 17.6498L56.825 17.9324L56.6557 18.215L56.4944 18.4976L56.3332 18.788L56.1961 19.0706L56.0591 19.3532L55.9301 19.628L55.8172 19.9106L55.7043 20.1853L55.6076 20.4522L55.5189 20.7191L55.4382 20.9782L55.3656 21.2294L55.3011 21.4806L55.2608 21.6454L55.2205 21.8181L55.1803 21.983L55.148 22.1557L55.1158 22.3205L55.0916 22.4854L55.0675 22.6502L55.0514 22.8229H52.7375L54.7128 13.6777L48.0534 13.6702L42.0954 22.8233H41.66V0.678512H57.4055L57.4059 13.9132ZM66.484 26.5674L66.1535 26.6223L65.8148 26.6694L65.4762 26.7165L65.1457 26.7558L64.8151 26.7872L64.4846 26.8108L64.1621 26.8265H63.8396H63.63L63.4204 26.8191L63.2188 26.8033L63.0173 26.7798L62.8238 26.7484L62.6383 26.717L62.4529 26.6777L62.2755 26.6306L62.1062 26.5757L61.9369 26.5207L61.7757 26.4501L61.6225 26.3794L61.4693 26.2931L61.3242 26.2068L61.1871 26.1126L61.0581 26.0184L60.9291 25.9085L60.8163 25.7907L60.7034 25.673L60.5986 25.5395L60.5018 25.4061L60.4131 25.2569L60.3325 25.1078L60.2518 24.9508L60.1873 24.7859L60.1308 24.6054L60.0825 24.4248L60.0341 24.2364L60.0019 24.0402L59.9777 23.8361L59.9616 23.6241L59.9531 23.4043H67.2897L66.484 26.5674ZM75.7878 22.8229H71.8212L72.4742 20.2638H64.5249L63.8718 22.8229H60.0262V22.297L60.0745 22.0772L60.1148 21.8574L60.1631 21.6219L60.2114 21.3864L60.284 21.1273L60.3566 20.8683L60.4373 20.6092L60.526 20.358L60.6227 20.1068L60.7276 19.8556L60.8404 19.6123L60.9533 19.3689L61.0823 19.1256L61.2113 18.8979L61.3484 18.6624L61.5015 18.4426L61.6547 18.2228L61.8079 18.0109L61.9772 17.8068L62.1546 17.6105L62.34 17.4221L62.5254 17.2494L62.727 17.0767L62.9285 16.9119L63.1382 16.7627L63.3639 16.6214L63.5897 16.4958L63.8235 16.3781L64.0653 16.2682L64.3152 16.174L64.5732 16.0955L64.8393 16.0326L65.1134 15.9777L65.3956 15.9384L65.6858 15.9149L65.9841 15.9074L66.2179 15.9149L66.4517 15.9306L66.6855 15.962L66.9113 16.0091L67.0242 16.0405L67.129 16.0718L67.2338 16.1032L67.3305 16.1503L67.4273 16.1896L67.524 16.2446L67.6127 16.2995L67.7014 16.3544L67.7821 16.4251L67.8627 16.4958L67.9353 16.5664L68.0079 16.6527L68.0725 16.7312L68.129 16.8254L68.1773 16.9275L68.2256 17.0295L68.2659 17.1394L68.2981 17.2572L68.3223 17.3749L68.3465 17.5084L68.355 17.6418V17.7831V17.9323L68.3389 18.0893H73.0795L73.1521 17.7674L73.2166 17.3985L73.2488 17.2022L73.265 16.9903L73.2811 16.7783V16.5585L73.2735 16.3309L73.2493 16.0954L73.2252 15.9855L73.209 15.8677L73.1768 15.75L73.1446 15.6322L73.1043 15.5066L73.064 15.3889L73.0157 15.2711L72.9592 15.1534L72.9027 15.0356L72.8301 14.9179L72.7575 14.8001L72.6769 14.6824L72.5801 14.5568L72.4753 14.439L72.3705 14.3213L72.2576 14.2114L72.1367 14.1015L72.0077 13.9994L71.8787 13.9052L71.7417 13.811L71.5965 13.7168L71.4514 13.6383L71.2982 13.5599L71.137 13.4814L70.9758 13.4107L70.8064 13.34L70.6291 13.2772L70.4517 13.2143L70.2743 13.1594L70.0808 13.1123L69.8954 13.0652L69.6939 13.0181L69.4923 12.9788L69.2907 12.9395L69.0811 12.9081L68.8634 12.8845L68.42 12.8374L67.9685 12.7981L67.4929 12.7824L67.0091 12.775L66.6463 12.7824L66.2674 12.7899L65.8724 12.8134L65.4612 12.8448L65.0339 12.8919L64.5985 12.9468L64.1551 13.0175L63.7036 13.1117L63.4779 13.1588L63.2441 13.2137L63.0183 13.2766L62.7845 13.3394L62.5507 13.4101L62.3169 13.4886L62.0831 13.5671L61.8574 13.6534L61.6236 13.7476L61.3898 13.8496L61.164 13.9517L60.9302 14.0616L60.7045 14.1793L60.4787 14.3049L60.253 14.4305L60.0272 14.5718V0.677376H75.7889V22.8222L75.7878 22.8229Z" fill="#9CA3AF"/>
</g>
<defs>
<clipPath id="clip0_3530_498">
<rect width="77" height="30" fill="white"/>
</clipPath>
</defs>
</svg>
