<svg width="190" height="41" viewBox="0 0 190 41" fill="none" xmlns="http://www.w3.org/2000/svg">
<g clip-path="url(#clip0_3530_513)">
<path fill-rule="evenodd" clip-rule="evenodd" d="M159.855 8.30914C161.866 7.00123 163.87 5.68288 165.867 4.35414C170.08 1.28914 171.23 0.140137 173.528 0.140137C175.827 0.140137 176.976 0.906137 176.976 0.906137L181.573 4.35414L167.783 13.9301C167.783 13.9301 166.633 14.6961 164.335 14.6961C162.036 14.6961 159.738 13.1641 159.738 13.1641L155.939 10.8841L151.31 13.9301C151.31 13.9301 150.161 14.6961 148.246 14.6961C146.331 14.6961 145.181 13.9301 145.181 13.9301L140.585 10.8661C140.585 10.8661 145.181 7.80114 149.395 4.73614C153.61 1.67314 155.141 0.140137 157.44 0.140137C159.738 0.140137 160.887 0.906137 160.887 0.906137L165.867 4.35414L159.855 8.30914ZM181.573 4.35414L190 10.1001L184.254 13.9301C184.254 13.9301 183.104 14.6961 181.573 14.6961C180.627 14.6848 179.701 14.4204 178.891 13.9301L172.762 10.4831L181.572 4.35314L181.573 4.35414ZM0 39.9791L3.065 21.5921H4.98C4.98 21.5921 8.044 18.9101 11.109 18.9101C14.173 18.9101 16.089 21.2081 16.089 21.2081C16.089 21.2081 17.238 18.9101 21.452 18.9101C28.347 18.9101 26.815 26.5711 26.815 26.5711L24.899 39.9801H19.919L22.218 24.6571C22.218 24.6571 22.218 22.3591 19.919 22.3591C17.621 22.3591 17.238 24.2741 17.238 24.2741L14.94 39.9791H9.96L12.258 24.2731C12.258 24.2731 12.641 22.3581 10.343 22.3581C8.044 22.3581 7.278 24.2731 7.278 24.2731L5.363 39.9791H0ZM43.67 34.6161C43.67 34.6161 42.903 40.3621 35.625 40.3621C28.347 40.3621 28.347 34.6161 28.347 34.6161L29.496 24.6561C29.496 24.6561 30.646 18.9101 37.54 18.9101C44.435 18.9101 44.819 24.2731 44.819 24.2731L44.435 31.1681H33.327L32.944 33.8501C32.944 33.8501 32.56 36.9141 35.625 36.9141C38.69 36.9141 39.073 34.6161 39.073 34.6161H43.67ZM34.093 28.1041H39.839L40.222 25.8051C40.222 25.8051 40.988 22.3581 37.923 22.3581C34.859 22.3581 34.476 25.8051 34.476 25.8051L34.093 28.1041ZM92.51 24.6561C92.51 24.6561 93.085 18.7191 100.746 18.7191C108.407 18.7191 108.024 25.0391 108.024 25.0391L106.492 35.0001C106.492 35.0001 105.342 40.3631 98.065 40.3631C90.786 40.3631 90.786 34.6171 90.786 34.6171L92.51 24.6561ZM97.298 25.0391L96.149 33.8491C96.149 33.8491 95.575 36.9141 98.639 36.9141C101.704 36.9141 101.704 34.2331 101.704 34.2331L103.044 25.8051C103.044 25.8051 103.81 22.1661 100.746 22.1661C97.681 22.1661 97.298 25.0391 97.298 25.0391ZM141.351 35.0001C141.351 35.0001 140.585 40.3631 133.306 40.3631C126.028 40.3631 126.22 34.6171 126.22 34.6171L127.177 24.6571C127.177 24.6571 128.518 18.9111 135.987 18.9111C142.883 18.9111 142.5 24.2741 142.5 24.2741L142.117 31.1691H131.008L130.817 33.8511C130.817 33.8511 130.242 36.9151 133.307 36.9151C136.371 36.9151 136.754 35.0001 136.754 35.0001H141.351ZM131.774 28.1051H137.52L137.903 25.8061C137.903 25.8061 138.669 22.3591 135.605 22.3591C132.54 22.3591 132.157 25.8061 132.157 25.8061L131.774 28.1051ZM66.654 20.0601H71.634L68.569 39.9801H63.589L66.654 20.0601ZM69.718 18.5281C68.237 18.5281 67.036 17.2421 67.036 15.6551C67.036 14.0681 68.236 12.7821 69.718 12.7821C71.198 12.7821 72.399 14.0681 72.399 15.6551C72.399 17.2421 71.199 18.5281 69.718 18.5281ZM59.758 13.1651H64.738L61.673 33.4681C61.673 33.4681 61.29 40.3631 53.246 40.3631C45.202 40.3631 46.351 33.0841 46.351 33.0841L47.117 24.2741C47.117 24.2741 47.883 18.9111 52.48 18.9111C57.46 18.9111 58.609 21.2091 58.609 21.2091L59.758 13.1651ZM52.097 25.4231L50.947 34.2331C50.947 34.2331 50.565 36.9151 53.629 36.9151C56.31 36.9151 56.502 34.2341 56.502 34.2341L57.842 25.8061C57.842 25.8061 58.417 22.3591 55.516 22.3591C52.096 22.3591 52.097 25.4231 52.097 25.4231ZM90.212 21.9761L87.339 39.7881H85.04C85.04 39.7881 84.274 39.5971 83.891 39.2131C83.508 38.8301 83.125 37.8731 83.125 37.8731C83.125 37.8731 81.975 40.1711 76.613 40.1711C72.016 40.1711 72.591 34.2341 72.591 34.2341L74.123 23.8911C74.123 23.8911 75.081 18.9111 80.827 18.9111C86.573 18.9111 88.105 21.9761 88.105 21.9761H90.212ZM78.72 25.0391L77.57 33.8491C77.57 33.8491 77.379 36.7231 80.06 36.7231C82.742 36.7231 83.125 34.2331 83.125 34.2331L84.465 25.8051C84.465 25.8051 85.232 22.1661 82.167 22.1661C79.103 22.1661 78.72 25.0391 78.72 25.0391ZM161.845 21.7831L158.972 39.9791H156.29C156.29 39.9791 155.716 39.5961 155.333 39.2121C154.95 38.8291 154.758 37.8721 154.758 37.8721C154.758 37.8721 153.418 40.1701 148.821 40.1701C143.458 40.1701 143.841 33.8501 143.841 33.8501L145.181 24.4641C145.181 24.4641 146.905 18.7191 152.651 18.7191C157.823 18.7191 159.355 21.4001 159.355 21.4001L161.845 21.7831ZM150.353 24.6561L149.013 33.8501C149.013 33.8501 148.629 36.9141 151.502 36.9141C154.375 36.9141 154.758 34.2331 154.758 34.2331L156.098 25.4231C156.098 25.4231 156.865 22.3581 153.8 22.3581C150.544 22.3581 150.353 24.6561 150.353 24.6561ZM120.665 26.1881L120.857 24.2731C120.857 24.2731 120.857 22.1661 118.175 22.1661C115.494 22.1661 115.111 24.6561 115.111 24.6561L113.771 33.8501C113.771 33.8501 113.196 36.9141 116.261 36.9141C119.325 36.9141 119.516 33.4671 119.516 33.4671H124.496L123.73 36.1481C123.73 36.1481 122.58 40.3621 115.685 40.3621C108.79 40.3621 108.79 34.2321 108.79 34.2321L110.323 23.8901C110.323 23.8901 110.706 18.9101 117.983 18.9101C125.263 18.9101 125.645 23.5071 125.645 23.5071V26.1881H120.665ZM164.335 21.5921L167.016 21.2081C167.016 21.2081 170.081 18.7181 174.677 18.9101C180.037 19.1331 179.657 25.4221 179.657 25.4221L177.742 39.9791H172.379L174.486 26.5711C174.486 26.5711 175.636 22.3581 172.571 22.3581C168.931 22.3581 168.548 25.8051 168.548 25.8051L166.633 39.9791H161.27L164.335 21.5921Z" fill="#9CA3AF"/>
</g>
<defs>
<clipPath id="clip0_3530_513">
<rect width="190" height="41" fill="white"/>
</clipPath>
</defs>
</svg>
