<svg width="136" height="40" viewBox="0 0 136 40" fill="none" xmlns="http://www.w3.org/2000/svg">
<path d="M130.214 25.8561C128.836 25.7751 128.026 25.4914 127.337 24.8024C126.81 24.1945 126.486 23.1408 126.486 21.8845V14.8734H129.971C130.133 14.8734 130.255 14.7518 130.255 14.5897V11.2259C130.255 11.0638 130.133 10.9422 129.971 10.9422H126.486V6.32219C126.486 6.16008 126.364 6.0385 126.202 6.0385H121.704C121.541 6.0385 121.42 6.16008 121.42 6.32219V21.8845C121.42 24.6403 122.23 26.6667 123.933 28.0851C125.229 29.2199 127.337 29.8278 129.809 29.8278H130.255C130.417 29.8278 130.538 29.7062 130.538 29.5441V26.1803C130.498 25.9777 130.376 25.8561 130.214 25.8561ZM73.8414 25.7751H73.5982C72.3014 25.7751 71.4908 25.4914 70.9234 24.8835C70.3966 24.2351 70.1129 23.2219 70.1129 21.7224V3.24215C70.1129 3.08004 69.9913 2.95846 69.8292 2.95846H65.3307C65.1686 2.95846 65.0471 3.08004 65.0471 3.24215V21.7629C65.0471 24.6403 65.8576 26.7477 67.5192 28.1662C68.735 29.2199 70.6398 29.7872 72.8687 29.7872C73.1929 29.7872 73.5172 29.7872 73.8819 29.7467C74.044 29.7467 74.1656 29.5846 74.1656 29.463V26.0588C74.1656 25.9777 74.1251 25.8967 74.0845 25.8561C74.0035 25.8156 73.9224 25.7751 73.8414 25.7751ZM21.2375 10.4154C19.1301 10.4154 17.6306 11.3475 16.3338 12.4417L16.2527 11.1449C16.2527 10.9828 16.1312 10.8612 15.969 10.8612H11.9164C11.7543 10.8612 11.6327 10.9828 11.6327 11.1449V29.2199C11.6327 29.382 11.7543 29.5035 11.9164 29.5035H16.4148C16.5769 29.5035 16.6985 29.382 16.6985 29.2199V16.8186C18.3601 14.9544 19.0896 14.6707 20.1433 14.6707C21.6428 14.6707 23.2639 15.6839 23.2639 18.5613V29.3009C23.2639 29.463 23.3855 29.5846 23.5476 29.5846H28.046C28.2082 29.5846 28.3297 29.463 28.3297 29.3009V17.6292C28.4513 12.8875 24.8039 10.4154 21.2375 10.4154ZM48.35 18.845C48.5526 16.0486 50.0116 14.4276 52.2811 14.4276C54.7938 14.4276 55.9285 15.7244 55.9285 18.6018V18.845H48.35ZM52.2 10.4154C46.04 10.4154 43.2841 15.3191 43.2841 20.1824C43.2841 25.0456 46.0805 29.9493 52.3216 29.9493C55.1585 29.9493 57.7522 28.9767 59.4138 27.234C59.5354 27.1125 59.5354 26.9504 59.4544 26.8288L57.6712 24.3972C57.5901 24.2756 57.3875 24.2351 57.2659 24.3161C55.8069 25.3698 54.2669 25.9372 52.8079 25.9372H52.4432C50.3358 25.8561 48.9579 24.4782 48.4716 21.9656H60.3865C60.5486 21.9656 60.6702 21.844 60.6702 21.7224C60.7917 20.8308 60.8323 20.0608 60.8323 19.5745C60.7512 13.8602 57.5496 10.4154 52.2 10.4154ZM88.0663 10.4154C85.9589 10.4154 84.4594 11.3475 83.1626 12.4417L83.0815 11.1449C83.0815 10.9828 82.9599 10.8612 82.7978 10.8612H78.7451C78.583 10.8612 78.4614 10.9828 78.4614 11.1449V29.2199C78.4614 29.382 78.583 29.5035 78.7451 29.5035H83.2436C83.4057 29.5035 83.5273 29.382 83.5273 29.2199V16.8186C85.1889 14.9544 85.9184 14.6707 86.9721 14.6707C88.4716 14.6707 90.0926 15.6839 90.0926 18.5613V29.3009C90.0926 29.463 90.2142 29.5846 90.3763 29.5846H94.8748C95.0369 29.5846 95.1585 29.463 95.1585 29.3009V17.6292C95.2801 12.8875 91.6732 10.4154 88.0663 10.4154ZM104.682 18.845C104.885 16.0486 106.344 14.4276 108.613 14.4276C111.126 14.4276 112.261 15.7244 112.261 18.6018V18.845H104.682ZM108.532 10.4154C102.372 10.4154 99.6165 15.3191 99.6165 20.1824C99.6165 25.0456 102.413 29.9493 108.654 29.9493C111.491 29.9493 114.085 28.9767 115.746 27.234C115.868 27.1125 115.868 26.9504 115.787 26.8288L114.003 24.3972C113.922 24.2756 113.72 24.2351 113.598 24.3161C112.139 25.3698 110.599 25.9372 109.14 25.9372H108.776C106.668 25.8561 105.29 24.4782 104.804 21.9656H116.719C116.881 21.9656 117.002 21.844 117.002 21.7224C117.124 20.8308 117.165 20.0608 117.165 19.5745C117.043 13.8602 113.882 10.4154 108.532 10.4154ZM133.294 27.7204H133.821C133.902 27.7204 133.943 27.7204 133.983 27.6798C134.024 27.6393 134.064 27.6393 134.105 27.5988C134.145 27.5583 134.145 27.4772 134.145 27.3962C134.145 27.3151 134.145 27.2746 134.105 27.234C134.064 27.1935 134.064 27.153 134.024 27.153C133.983 27.1125 133.943 27.1125 133.902 27.1125H133.294V27.7204ZM133.294 28.8146H133.051V26.8693H133.821C134.024 26.8693 134.186 26.9098 134.307 26.9909C134.388 27.0719 134.429 27.234 134.429 27.3962C134.429 27.4772 134.429 27.5583 134.388 27.6393C134.348 27.7204 134.307 27.7609 134.267 27.8014C134.226 27.8419 134.186 27.8825 134.105 27.923C134.064 27.9635 133.983 27.9635 133.902 27.9635L134.47 28.8146H134.186L133.618 27.9635H133.254V28.8146H133.294ZM132.241 27.8419C132.241 28.0446 132.281 28.2472 132.362 28.4093C132.443 28.5714 132.524 28.7335 132.686 28.8551C132.808 28.9767 132.97 29.0983 133.132 29.1793C133.294 29.2604 133.497 29.3009 133.7 29.3009C133.902 29.3009 134.105 29.2604 134.267 29.1793C134.429 29.0983 134.591 29.0172 134.713 28.8551C134.834 28.7335 134.956 28.5714 135.037 28.4093C135.118 28.2472 135.159 28.0446 135.159 27.8419C135.159 27.6393 135.118 27.4367 135.037 27.2746C134.956 27.1125 134.875 26.9504 134.713 26.8288C134.591 26.7072 134.429 26.5856 134.267 26.5046C134.105 26.4235 133.902 26.383 133.7 26.383C133.497 26.383 133.294 26.4235 133.132 26.5046C132.97 26.5856 132.808 26.6667 132.686 26.8288C132.565 26.9504 132.443 27.1125 132.362 27.2746C132.281 27.4367 132.241 27.6393 132.241 27.8419ZM131.997 27.8419C131.997 27.5988 132.038 27.3962 132.119 27.1935C132.2 26.9909 132.322 26.8288 132.484 26.6667C132.646 26.5046 132.808 26.383 133.011 26.3019C133.213 26.2209 133.416 26.1803 133.659 26.1803C133.902 26.1803 134.105 26.2209 134.307 26.3019C134.51 26.383 134.672 26.5046 134.834 26.6667C134.996 26.8288 135.118 26.9909 135.199 27.1935C135.28 27.3962 135.321 27.5988 135.321 27.8419C135.321 28.0851 135.28 28.2877 135.199 28.4904C135.118 28.693 134.996 28.8551 134.834 29.0172C134.672 29.1793 134.51 29.3009 134.307 29.382C134.105 29.463 133.902 29.5035 133.659 29.5035C133.416 29.5035 133.213 29.463 133.011 29.382C132.808 29.3009 132.646 29.1793 132.484 29.0172C132.322 28.8551 132.2 28.693 132.119 28.4904C132.038 28.2877 131.997 28.0446 131.997 27.8419Z" fill="#9CA3AF"/>
<path d="M20.0217 0C8.99842 0 0.0419922 8.95643 0.0419922 19.9797C0.0419922 31.003 8.99842 39.9595 20.0217 39.9595C31.045 39.9595 40.0015 31.003 40.0015 19.9797C40.042 8.95643 31.045 0 20.0217 0ZM35.9083 19.9797C35.9083 28.7335 28.7755 35.8663 20.0217 35.8663C11.2679 35.8663 4.1352 28.7335 4.1352 19.9797C4.1352 11.2259 11.2679 4.09321 20.0217 4.09321C28.7755 4.13374 35.9083 11.2259 35.9083 19.9797Z" fill="#9CA3AF"/>
</svg>
