<svg width="221" height="37" viewBox="0 0 221 37" fill="none" xmlns="http://www.w3.org/2000/svg">
<path d="M22.2002 17.0877L22.1108 17.3184C23.6003 17.9733 26.9443 20.5708 26.9443 25.803C26.9443 30.73 22.7886 35.6942 16.2571 35.6942C8.13181 35.6942 5.33154 30.9458 5.33154 26.5844C5.33154 20.995 9.2415 17.2737 9.2415 12.183C9.2202 10.3825 8.58839 8.64247 7.44935 7.24732C6.31031 5.85217 4.7314 4.88439 2.97068 4.50216L2.83662 4.73289C3.47514 5.35204 3.98178 6.09385 4.32606 6.9137C4.67034 7.73355 4.84516 8.61451 4.84001 9.50361C4.84001 15.0037 0.200195 18.9111 0.200195 25.2224C0.200195 31.0351 4.26655 36.9595 16.0411 36.9595C26.5347 36.9595 32.0682 31.8241 32.0682 26.3612C32.0607 21.6723 28.7019 17.7054 22.2002 17.0877Z" fill="#9CA3AF"/>
<path d="M68.3004 36.0217L54.3512 18.0477V34.2504L57.1961 34.9276V35.6719H50.7093V34.9276L53.033 34.2504V16.5964C52.4674 16.0696 51.7865 15.6822 51.0445 15.4652C50.7615 15.4056 50.3816 15.3386 50.3816 15.3386V14.5944H55.8854L67.8014 30.075V16.0308L64.9565 15.3461V14.6018H71.4433V15.3461L69.1196 16.0308V32.0994C69.1196 33.588 69.2239 35.7538 69.2462 36.0291L68.3004 36.0217ZM97.4649 24.5749C97.4649 32.0176 92.2516 36.3343 86.5543 36.3343C80.8569 36.3343 75.6213 31.958 75.6213 25.1555C75.6213 18.3529 80.8346 13.932 86.5022 13.932C87.9288 13.8849 89.3503 14.1259 90.6815 14.6406C92.0128 15.1553 93.2264 15.9331 94.2499 16.9274C95.2734 17.9217 96.0857 19.1121 96.6381 20.4275C97.1905 21.7428 97.4717 23.1559 97.4649 24.5824V24.5749ZM93.838 25.6913C93.838 20.221 90.5611 14.9144 86.1074 14.9144C81.3708 14.9144 79.2334 19.4916 79.2334 24.3889C79.2334 29.2861 81.9368 35.3593 87.0235 35.3593C91.8048 35.3593 93.838 30.5216 93.838 25.6913ZM101.971 16.0159L99.7364 15.3312V14.5869H108.294V15.3312L105.613 16.0159L111.518 32.1069L117.424 16.0159L114.743 15.3312V14.5869H121.074V15.3312L118.839 16.0159L111.444 36.0738H109.552L101.971 16.0159ZM152.539 24.9099H151.184V15.6959C155.652 15.6959 158.311 16.723 158.311 20.3698C158.289 23.079 155.965 24.9099 152.539 24.9099ZM190.827 34.9276L193.806 34.2504V16.0234L190.827 15.3386V14.5944H200.114V15.3386L197.135 16.0234V34.2504L200.114 34.9276V35.6719H190.827V34.9276ZM205.804 29.8815H206.392L208.366 34.4215C209.539 35.0105 210.829 35.3308 212.142 35.3593C214.704 35.3593 217.042 33.8708 217.042 31.2063C217.042 29.1819 215.732 27.9762 213.609 26.8673L211.509 25.7806C208.999 24.4782 206.489 22.6324 206.489 19.6628C206.489 16.4327 208.724 13.9394 213.505 13.9394C215.185 13.9565 216.853 14.23 218.45 14.7507L218.949 19.633H218.316L216.491 15.7182C215.547 15.191 214.483 14.9143 213.401 14.9144C210.98 14.9144 209.334 16.4029 209.334 18.4645C209.334 20.3326 210.578 21.5086 212.708 22.6101L215.195 23.9051C218.592 25.6616 220.2 27.2915 220.2 30.3058C220.2 34.0271 216.707 36.3417 212.365 36.3417C210.321 36.3728 208.286 36.0686 206.34 35.4412L205.804 29.8815ZM119.711 34.9276L122.101 34.2504L129.482 14.5795L131.947 13.9469L139.566 34.2429L141.956 34.9276V35.6719H132.915V34.9276L135.976 34.2429L133.816 28.4079H125.698L123.554 34.2429L126.615 34.9202V35.6645H119.711V34.9276ZM126.265 26.8524H133.288L129.802 17.4449L126.265 26.8524ZM156.799 25.3639C157.544 25.1778 161.722 24.1135 161.722 20.154C161.722 16.976 159.287 14.5125 153.284 14.5125C149.56 14.5125 145.837 14.5944 145.367 14.6093V15.3535L147.818 16.0382V34.2429L145.367 34.9276V35.6719H154.036V34.9276L151.191 34.2429V26.0114H153.642L159.905 35.6868H165.453V34.9425L162.646 34.1983L156.799 25.3639ZM175.105 15.6884V34.2504L172.126 34.9276V35.6719H181.413V34.9276L178.434 34.2504V15.6959H183.447L185.1 19.2535H185.74L185.264 14.6167H168.276L167.799 19.2535H168.44L170.078 15.7331L175.105 15.6884ZM16.1826 29.0852L19.1616 0.959473H12.9802L15.9592 29.0852H16.1826Z" fill="#9CA3AF"/>
</svg>
