<svg width="304" height="60" viewBox="0 0 304 60" fill="none" xmlns="http://www.w3.org/2000/svg">
<g clip-path="url(#clip0_3543_1700)">
<mask id="mask0_3543_1700" style="mask-type:luminance" maskUnits="userSpaceOnUse" x="0" y="0" width="304" height="60">
<path d="M303.941 0H0.0588379V60H303.941V0Z" fill="white"/>
</mask>
<g mask="url(#mask0_3543_1700)">
<path d="M106.173 26.6127C106.173 29.631 105.749 32.2557 104.338 34.4866C102.96 36.6848 101.205 38.276 99.0724 39.2602C96.9727 40.2444 94.6925 40.7366 92.2319 40.7366C89.8041 40.7366 87.5239 40.2444 85.3914 39.2602C83.2917 38.2431 81.5365 36.6355 80.1257 34.4374C78.7478 32.2393 78.0588 29.631 78.0588 26.6127C78.0588 24.3161 78.4689 22.2492 79.2891 20.412C80.1093 18.5419 81.1756 17.0492 82.4879 15.9337C83.833 14.7854 85.3422 13.8996 87.0154 13.2763C88.7214 12.6529 90.4603 12.3576 92.2319 12.3904C94.0363 12.3904 95.7752 12.7021 97.4484 13.3255C99.1544 13.916 100.664 14.7854 101.976 15.9337C103.321 17.082 104.404 18.5747 105.224 20.412C106.044 22.2492 106.173 24.3161 106.173 26.6127ZM85.8343 26.6127C85.8343 28.3187 86.2772 29.7459 87.1631 30.8941C88.0489 32.0424 89.1151 32.7642 90.3618 33.0595C91.6085 33.3219 92.8552 33.3219 94.102 33.0595C95.3815 32.797 96.4641 32.0916 97.3499 30.9434C98.2358 29.7623 98.6787 28.3187 98.6787 26.6127C98.6787 25.366 98.4326 24.2669 97.9405 23.3155C97.4812 22.3313 96.8742 21.5931 96.1196 21.101C95.3651 20.576 94.5285 20.1987 93.6098 19.9691C92.6912 19.7394 91.7726 19.7394 90.854 19.9691C89.9681 20.1987 89.1479 20.576 88.3934 21.101C87.6388 21.5931 87.0154 22.3313 86.5233 23.3155C86.064 24.2669 85.8343 25.366 85.8343 26.6127Z" fill="black"/>
<path d="M123.863 40.343C120.976 40.343 118.68 39.3751 116.974 37.4394V47.6755H109.297V13.2764H116.974V15.9338C118.581 13.9325 120.911 12.9319 123.962 12.9319C127.997 12.9319 131.147 14.3098 133.411 17.0657C135.674 19.8215 136.79 23.1516 136.757 27.0557C136.691 30.9271 135.56 34.1094 133.361 36.6028C131.163 39.0963 127.997 40.343 123.863 40.343ZM123.027 20.3629C121.354 20.3629 119.927 20.9862 118.745 22.2329C117.564 23.4796 116.974 24.9888 116.974 26.7604C116.974 28.5321 117.564 30.0576 118.745 31.3372C119.927 32.5839 121.354 33.2072 123.027 33.2072C124.897 33.2072 126.34 32.5839 127.358 31.3372C128.407 30.0905 128.949 28.5977 128.982 26.8589C129.014 25.12 128.489 23.6109 127.407 22.3314C126.357 21.019 124.897 20.3629 123.027 20.3629Z" fill="black"/>
<path d="M155.557 39.9492C153.917 40.2116 152.506 40.3429 151.325 40.3429C148.241 40.3757 145.879 39.6211 144.239 38.0791C142.598 36.5371 141.778 34.0765 141.778 30.6973V20.2151H138.284V13.5715H141.778V8.50269L149.504 7.81372V13.5715H155.065V20.2151H149.504V30.6973C149.504 32.7642 150.702 33.7977 153.097 33.7977C153.819 33.7977 154.557 33.7156 155.311 33.5516L155.557 39.9492Z" fill="black"/>
<path d="M167.258 13.2763H159.384V39.8999H167.258V13.2763ZM158.646 7.42002C158.646 6.00928 159.089 4.91021 159.975 4.12282C160.861 3.33543 161.911 2.92533 163.124 2.89252C164.404 2.85971 165.519 3.25341 166.471 4.07361C167.455 4.861 167.947 5.97647 167.947 7.42002C167.947 8.76515 167.504 9.81501 166.619 10.5696C165.733 11.3242 164.683 11.7179 163.469 11.7507C162.189 11.7835 161.058 11.4226 160.073 10.668C159.122 9.88062 158.646 8.79796 158.646 7.42002Z" fill="black"/>
<path d="M171.66 13.2763H179.485V15.9337C181.158 13.834 183.783 12.8169 187.359 12.8826C190.18 13.0138 192.264 14.1949 193.609 16.4258C194.462 15.2447 195.725 14.3589 197.398 13.7684C199.071 13.145 200.744 12.8662 202.418 12.9318C205.141 13.0302 207.322 14.0636 208.963 16.0321C210.603 17.9678 211.407 20.9205 211.374 24.8903V39.8999H203.55V24.9395C203.55 22.0524 202.45 20.576 200.252 20.5104C199.137 20.4776 198.054 20.8385 197.004 21.5931C195.987 22.3477 195.462 23.3975 195.43 24.7426V39.8999H187.605V24.9395C187.605 22.0524 186.506 20.576 184.308 20.5104C183.225 20.4776 182.208 20.8549 181.256 21.6423C180.338 22.3969 179.879 23.4631 179.879 24.8411V39.8999H171.66V13.2763Z" fill="black"/>
<path d="M227.471 12.8333C230.391 12.8333 232.687 13.8996 234.36 16.0321V13.2763H242.087V39.8999H234.36V37.2425C232.753 39.2438 230.423 40.2444 227.372 40.2444C223.337 40.2444 220.187 38.8665 217.924 36.1106C215.66 33.3547 214.544 30.0247 214.577 26.1206C214.643 22.2492 215.775 19.0669 217.973 16.5735C220.171 14.08 223.337 12.8333 227.471 12.8333ZM228.307 32.8134C229.981 32.8134 231.408 32.1901 232.589 30.9434C233.77 29.6967 234.36 28.1875 234.36 26.4159C234.36 24.6442 233.77 23.1351 232.589 21.8884C231.408 20.6088 229.981 19.9691 228.307 19.9691C226.437 19.9691 224.977 20.5924 223.927 21.8391C222.91 23.0858 222.386 24.5786 222.353 26.3174C222.32 28.0563 222.828 29.5818 223.878 30.8941C224.961 32.1737 226.437 32.8134 228.307 32.8134Z" fill="black"/>
<path d="M254.103 41.0319V13.2764H246.377V40.8843C246.377 42.3606 245.803 43.3449 244.655 43.837C243.506 44.3291 242.194 44.4111 240.718 44.0831L240.422 50.4806C244.294 51.3008 247.542 50.8907 250.166 49.2503C252.791 47.6427 254.103 44.9033 254.103 41.0319ZM245.639 7.51855C245.639 6.04219 246.098 4.91031 247.017 4.12292C247.968 3.30272 249.084 2.90902 250.363 2.94183C251.577 2.97464 252.627 3.40114 253.513 4.22134C254.431 5.00873 254.891 6.1078 254.891 7.51855C254.891 8.92929 254.448 10.012 253.562 10.7665C252.709 11.5211 251.659 11.9148 250.412 11.9476C249.133 11.9804 248.018 11.6195 247.066 10.865C246.115 10.0776 245.639 8.9621 245.639 7.51855Z" fill="black"/>
<path d="M284.837 26.5143C284.837 27.5641 284.739 28.5812 284.542 29.5654H265.448C265.907 30.7465 266.662 31.6651 267.711 32.3213C268.761 32.9446 269.91 33.2727 271.156 33.3055C273.026 33.3055 274.519 32.6986 275.634 31.4847H284.05C283.066 34.3062 281.343 36.4879 278.882 38.0299C276.422 39.5391 273.715 40.2608 270.763 40.1952C267.088 40.1296 263.922 38.8993 261.265 36.5043C258.64 34.0765 257.328 30.7465 257.328 26.5143C257.328 24.3161 257.721 22.3313 258.509 20.5596C259.296 18.7552 260.346 17.3116 261.658 16.229C263.003 15.1463 264.48 14.3261 266.087 13.7684C267.728 13.1778 269.434 12.8826 271.205 12.8826C274.913 12.9154 278.111 14.1293 280.802 16.5242C283.492 18.9192 284.837 22.2492 284.837 26.5143ZM265.743 23.5123H276.373C276.012 22.2328 275.339 21.265 274.355 20.6088C273.404 19.9527 272.272 19.6246 270.959 19.6246C269.745 19.6246 268.663 19.9691 267.711 20.6581C266.793 21.3142 266.137 22.2656 265.743 23.5123Z" fill="black"/>
<path d="M303.941 40.1912C302.301 40.4536 300.89 40.5848 299.709 40.5848C296.625 40.6177 294.263 39.8631 292.622 38.3211C290.982 36.7791 290.162 34.3185 290.162 30.9393V20.4571H286.668V13.8135H290.162V8.74463L297.888 8.05566V13.8135H303.449V20.4571H297.888V30.9393C297.888 33.0062 299.086 34.0396 301.481 34.0396C302.202 34.0396 302.941 33.9576 303.695 33.7936L303.941 40.1912Z" fill="black"/>
<path d="M30.0588 60C46.6274 60 60.0588 46.5685 60.0588 30C60.0588 13.4315 46.6274 0 30.0588 0C13.4903 0 0.0588379 13.4315 0.0588379 30C0.0588379 46.5685 13.4903 60 30.0588 60Z" fill="url(#paint0_linear_3543_1700)"/>
<path d="M37.5588 22.5C37.5588 10.0736 47.6324 0 60.0588 0V30C60.0588 46.5685 46.6274 60 30.0588 60C13.4903 60 0.0588379 46.5685 0.0588379 30C0.0588379 40.3553 8.4535 48.75 18.8088 48.75C29.1642 48.75 37.5588 40.3553 37.5588 30V22.5Z" fill="#4286F4"/>
</g>
</g>
<defs>
<linearGradient id="paint0_linear_3543_1700" x1="13.8588" y1="8.1" x2="51.5838" y2="33.525" gradientUnits="userSpaceOnUse">
<stop stop-color="#4286F4"/>
<stop offset="1" stop-color="#373B44"/>
</linearGradient>
<clipPath id="clip0_3543_1700">
<rect width="304" height="60" fill="white"/>
</clipPath>
</defs>
</svg>
