<svg width="153" height="29" viewBox="0 0 153 29" fill="none" xmlns="http://www.w3.org/2000/svg">
<path fill-rule="evenodd" clip-rule="evenodd" d="M144 6.26462C146.74 6.26462 149.609 6.85904 151.634 7.6464V2.31307C149.585 1.6464 146.74 0.979736 143.048 0.979736C136.02 0.979736 131.255 3.59395 131.255 9.07578C131.255 18.5216 144.834 16.6101 144.834 20.9957C144.834 22.6823 143.238 23.6464 140.022 23.6464C137.164 23.6464 133.763 23.5499 131.143 22.3131V27.6464C133.763 28.5465 137.568 28.9797 140.427 28.9797C147.693 28.9797 153 26.7879 153 20.0408C153 11.0449 139.339 13.6464 139.339 8.31307C139.339 6.31307 141.499 6.26462 144 6.26462ZM115.357 21.6754H112.929V28.9797H104.429V0.979736C104.623 0.979736 111.182 1.11366 114.143 0.979736C122.893 1.11366 128.714 3.91621 128.714 10.7189C128.714 18.6972 123.013 21.6751 115.357 21.6754ZM114.143 5.8493C113.72 5.86119 113.407 5.83444 112.929 5.8493V16.8058H114.143C118.422 16.8058 120.214 15.5046 120.214 10.7189C120.214 7.75461 118.197 5.86119 114.143 5.8493ZM91.0714 0.979736H99.5714V28.9797H91.0714V0.979736ZM70.4286 28.9797V0.979736H78.9286V22.8928H87.4286L86.2143 28.9797H70.4286ZM57.0714 0.979736H65.5714V28.9797H57.0714V0.979736ZM43.7143 18.0232H35.2143V28.9797H26.7143V0.979736H35.2143V11.9363H43.7143V0.979736H52.2143V28.9797H43.7143V18.0232ZM10.9286 21.6754H8.5V28.9797H0V0.979736C0.194295 0.979736 6.75298 1.11366 9.71429 0.979736C18.4641 1.11366 24.2857 3.91621 24.2857 10.7189C24.2857 18.6972 18.5844 21.6751 10.9286 21.6754ZM9.71429 5.8493C9.29171 5.86119 8.97843 5.83444 8.5 5.8493V16.8058H9.71429C13.9922 16.8058 15.7857 15.5046 15.7857 10.7189C15.7857 7.75461 13.7688 5.86119 9.71429 5.8493Z" fill="#9CA3AF"/>
</svg>
