<svg width="142" height="33" viewBox="0 0 142 33" fill="none" xmlns="http://www.w3.org/2000/svg">
<g clip-path="url(#clip0_3528_459)">
<path fill-rule="evenodd" clip-rule="evenodd" d="M0 32.9997C0 32.9997 40.4005 14.3546 65.4047 6.78384C90.4091 -0.787262 112.62 -2.11356 115.809 3.27114C118.998 8.65634 108.352 17.2771 106.052 19.237C103.752 21.1968 91.4545 29.0528 91.4545 29.0528C91.4545 29.0528 106.281 14.8226 104.094 9.81884C101.906 4.81514 88.1669 5.55894 63.7493 11.9649C39.3322 18.3713 0 32.9997 0 32.9997Z" fill="#9CA3AF"/>
<path fill-rule="evenodd" clip-rule="evenodd" d="M31.9395 23.594C31.9395 20.0323 29.2055 17.1455 25.8328 17.1455C22.4604 17.1455 19.7261 20.0323 19.7261 23.594C19.7261 27.1557 22.4604 30.0428 25.8328 30.0428C29.2055 30.0428 31.9395 27.1557 31.9395 23.594ZM30.377 23.5937C30.377 20.8237 28.3744 18.5784 25.9037 18.5784C23.433 18.5784 21.4303 20.8237 21.4303 23.5937C21.4303 26.3637 23.433 28.6094 25.9037 28.6094C28.3744 28.6094 30.377 26.3637 30.377 23.5937Z" fill="#9CA3AF"/>
<path fill-rule="evenodd" clip-rule="evenodd" d="M0 32.9997C0 32.9997 40.4005 14.3546 65.4047 6.78384C90.4091 -0.787262 112.62 -2.11356 115.809 3.27114C118.998 8.65634 108.352 17.2771 106.052 19.237C103.752 21.1968 91.4545 29.0528 91.4545 29.0528C91.4545 29.0528 106.281 14.8226 104.094 9.81884C101.906 4.81514 88.1669 5.55894 63.7493 11.9649C39.3322 18.3713 0 32.9997 0 32.9997Z" fill="#9CA3AF"/>
<path fill-rule="evenodd" clip-rule="evenodd" d="M0.411865 29.7181H2.10297V20.7841H4.27236C4.27236 20.7841 6.90066 20.961 8.69776 19.4646C9.67806 18.6485 10.357 17.4151 10.3519 15.1987C10.3473 13.2873 9.64766 12.1659 8.81546 11.2143C7.49446 9.7038 4.58926 9.8401 4.58926 9.8401H0.414365L0.411865 29.7181ZM2.11887 11.4249H4.35056C4.35056 11.4249 6.25436 11.3697 7.49446 12.5152C8.09236 13.0676 8.53566 14.0422 8.53736 15.2934C8.53906 16.6679 8.27886 17.4372 7.71556 18.0413C6.40716 19.4453 4.08726 19.1842 4.08726 19.1842H2.13387L2.11887 11.4249Z" fill="#9CA3AF"/>
<path fill-rule="evenodd" clip-rule="evenodd" d="M12.359 17.6732H13.9262V20.0452C13.9262 20.0452 14.6386 18.3974 15.9476 17.6684C17.2564 16.9393 18.9186 17.4558 18.9186 17.4558L18.4013 19.012C18.4013 19.012 16.9792 18.2804 15.3773 19.7595C13.776 21.2389 13.9401 23.1477 13.9401 23.1477V29.6632H12.3403L12.359 17.6732Z" fill="#9CA3AF"/>
<path fill-rule="evenodd" clip-rule="evenodd" d="M44.1932 19.7149V17.8908C44.1932 17.8908 43.1089 17.0957 40.2729 17.0957C37.4362 17.0957 34.4443 19.3076 34.4443 23.4198C34.4443 27.532 36.7803 30.1705 40.3724 30.1759C43.1427 30.1801 44.3355 29.1078 44.3355 29.1078V27.2502C44.3355 27.2502 42.9255 28.6642 40.5053 28.6642C38.0851 28.6642 35.9909 26.649 35.9909 23.3903C35.9909 20.1313 38.3878 18.4917 40.5385 18.4917C42.6897 18.4917 44.1932 19.7149 44.1932 19.7149Z" fill="#9CA3AF"/>
<path fill-rule="evenodd" clip-rule="evenodd" d="M55.6139 25.673L57.0757 26.5266C57.0757 26.5266 55.8721 30.0923 51.9153 30.0923C47.9587 30.0923 46.2868 27.1822 46.2854 23.2432C46.2842 20.1225 48.4454 17.0208 51.8756 17.0293C57.2518 17.0424 56.9935 23.5371 56.9935 23.5371H48.0227C48.0227 23.5371 47.8983 28.5998 51.8163 28.6347C54.511 28.6585 55.6139 25.673 55.6139 25.673ZM48.0893 22.1224C48.0893 22.1224 48.3751 18.6068 51.79 18.6743C55.2052 18.7415 55.1468 22.1346 55.1468 22.1346L48.0893 22.1224Z" fill="#9CA3AF"/>
<path fill-rule="evenodd" clip-rule="evenodd" d="M75.5314 20.34L76.9702 19.4803C76.9702 19.4803 76.257 17.0054 73.2818 17.0054C70.3063 17.0054 69.5341 19.2546 69.5395 20.3956C69.5579 24.3482 75.5101 23.8644 75.5059 26.6894C75.5036 28.1211 74.2892 28.5594 73.2313 28.5809C70.9021 28.6283 70.4914 26.5505 70.4914 26.5505L69.0222 27.4397C69.0222 27.4397 69.6665 30.1006 73.1471 30.1006C76.6281 30.1006 77.0816 27.5369 77.0768 26.4941C77.0541 21.7358 71.183 23.3433 71.2284 20.2785C71.2468 19.0284 72.3707 18.5565 73.3147 18.563C75.1768 18.5757 75.5314 20.34 75.5314 20.34Z" fill="#9CA3AF"/>
<path fill-rule="evenodd" clip-rule="evenodd" d="M78.4917 29.6814H85.15L86.2535 18.3513L89.2665 29.6726H93.32L96.4393 18.3187L97.4833 29.644H104.205L101.184 9.5874H94.1117L91.3718 20.5014L88.7398 9.6606H81.7167L78.4917 29.6814Z" fill="#9CA3AF"/>
<path fill-rule="evenodd" clip-rule="evenodd" d="M125.17 29.662L118.552 9.65186H110.977L104.247 29.6274H111.519L112.091 27.1697H117.241L117.841 29.6529L125.17 29.662ZM113.202 22.3936H116.074L114.613 15.7183L113.202 22.3936Z" fill="#9CA3AF"/>
<path fill-rule="evenodd" clip-rule="evenodd" d="M125.604 29.6289V9.6491H134.591C134.591 9.6491 137.98 9.5037 140.173 11.6187C141.218 12.6261 141.993 14.2577 142 16.4557C142.008 19.1503 141.357 20.8517 140.303 21.9235C138.232 24.0282 135.009 23.7033 135.009 23.7033H132.389V29.6207L125.604 29.6289ZM132.458 15.2634H133.84C133.84 15.2634 135.568 15.4202 135.551 16.9699C135.534 18.5199 133.876 18.527 133.876 18.527H132.476L132.458 15.2634Z" fill="#9CA3AF"/>
<path fill-rule="evenodd" clip-rule="evenodd" d="M65.5905 20.34L67.0293 19.4803C67.0293 19.4803 66.3161 17.0054 63.3406 17.0054C60.3654 17.0054 59.5932 19.2546 59.5986 20.3956C59.617 24.3482 65.5692 23.8644 65.5649 26.6894C65.5627 28.1211 64.3483 28.5594 63.2904 28.5809C60.9612 28.6283 60.5505 26.5505 60.5505 26.5505L59.0813 27.4397C59.0813 27.4397 59.7256 30.1006 63.2062 30.1006C66.6872 30.1006 67.1407 27.5369 67.1359 26.4941C67.1132 21.7358 61.2418 23.3433 61.2875 20.2785C61.3059 19.0284 62.4298 18.5565 63.3738 18.563C65.2358 18.5757 65.5905 20.34 65.5905 20.34Z" fill="#9CA3AF"/>
</g>
<defs>
<clipPath id="clip0_3528_459">
<rect width="142" height="33" fill="white"/>
</clipPath>
</defs>
</svg>
