<svg width="132" height="33" viewBox="0 0 132 33" fill="none" xmlns="http://www.w3.org/2000/svg">
<path d="M14.567 14.2928C13.1947 13.8389 7.28349 12.0517 7.28349 9.52685C7.28349 8.27862 8.55018 7.17224 11.3475 7.17224C13.2739 7.17224 15.0948 7.79635 15.4642 7.9382V11.7964H21.5338V3.82472L21.481 3.79635C21.4546 3.76798 17.3115 0.959473 11.3475 0.959473C4.22231 0.959473 0 5.10132 0 10.1793C0 14.1226 2.34866 17.1864 8.04878 19.1155C9.92243 19.7396 15.3323 21.1864 15.3323 23.7964C15.3323 25.4701 13.8017 26.7183 10.5822 26.7183C8.20712 26.7183 6.80848 26.151 6.17513 25.8673V21.8956H0.105558V30.0375C0.976409 30.6332 4.64454 32.9311 10.0544 32.9311C11.9808 32.9311 22.6158 32.619 22.6158 23.1722C22.6158 21.1864 22.0352 16.7893 14.567 14.2928Z" fill="#9CA3AF"/>
<path d="M32.6701 27.1155C30.1367 27.1155 29.6617 25.6403 29.8728 24.5339C30.4006 21.4985 35.8105 22.0942 37.2883 22.4063V23.6829C37.3147 25.1013 35.8896 27.1155 32.6701 27.1155ZM43.437 12.7893C43.437 12.7893 42.8828 11.1155 41.9064 10.0659C41.0356 9.12969 39.2147 7.71125 35.1771 7.71125C29.1867 7.71125 25.2019 9.95238 25.2019 9.95238L26.8117 15.5694C26.8117 15.5694 30.0048 13.5836 34.0424 13.5836C36.998 13.5836 37.3411 15.002 37.3411 16.5339C37.3411 16.5339 37.3411 17.6687 37.3147 17.8105C37.3147 17.8105 23.8033 15.3708 23.8033 25.4417C23.8033 29.6403 26.6006 32.619 31.2979 32.619C35.6521 32.619 37.4202 30.3212 38.0008 29.5552L38.5022 32.2503H43.8856V16.4205C43.912 15.1439 43.7537 13.8105 43.437 12.7893Z" fill="#9CA3AF"/>
<path d="M68.2431 17.5268V32.2786H61.6985V18.7467C61.6985 15.7396 60.511 13.9524 57.9248 13.9524C56.2623 13.9524 54.3095 15.0304 53.6233 16.9878V32.2503H47.0788V8.36373H52.3567L52.9108 10.9737C53.597 10.1793 55.9192 7.71125 60.1679 7.71125C64.1791 7.71125 68.2431 9.44174 68.2431 17.5268Z" fill="#9CA3AF"/>
<path d="M85.8449 31.229L85.5018 31.4276C83.6809 32.4205 81.7545 32.9595 79.8281 32.9595C72.3862 32.9595 71.1196 28.2219 71.1196 24.4488L71.1459 3.51266V3.28571L77.6905 1.32827V8.42047L84.0504 8.44883V14.4063L77.6641 14.4347V24.1368C77.6641 26.0091 78.7725 26.7183 80.9628 26.7183C82.6781 26.7183 84.2351 25.6687 84.2351 25.6687L85.8449 31.229Z" fill="#9CA3AF"/>
<path d="M97.6937 26.8886C94.1311 26.8886 92.4422 23.6829 92.4422 20.307C92.4422 13.6971 96.7965 13.7254 97.6937 13.7254C101.599 13.7254 102.945 17.0162 102.945 20.307C102.945 24.7042 101.045 26.8886 97.6937 26.8886ZM97.6937 7.71125C92.0992 7.71125 85.7129 10.8602 85.7129 20.307C85.7129 25.1297 87.8769 32.9027 97.6937 32.9027C103.526 32.9027 109.675 29.5552 109.675 20.307C109.675 10.5765 103.024 7.71125 97.6937 7.71125Z" fill="#9CA3AF"/>
<path d="M127.989 19.1155C125.719 17.9524 122.13 17.1581 121.048 16.846C119.28 16.3354 117.697 16.0517 117.697 14.9169C117.697 13.4701 120.732 13.2715 121.339 13.2715C121.919 13.2715 123.661 13.2715 125.007 13.9524V16.3637H130.681V10.5481C130.681 10.5481 127.408 7.71125 120.943 7.71125C115.454 7.71125 111.152 10.3212 111.152 15.1722C111.152 18.1793 112.92 19.9666 115.084 21.1297C117.354 22.3779 120.943 23.1155 122.051 23.4276C123.054 23.7112 125.403 24.3637 125.403 25.4985C125.403 26.4914 124.294 27.1439 122.473 27.1439C119.28 27.1439 117.591 26.2361 117.011 25.8956V23.6545H111.337V29.3566C112.155 30.0659 115.823 32.9311 121.972 32.9311C127.751 32.9311 132 30.5198 132 24.9595C131.947 22.0375 130.232 20.2786 127.989 19.1155Z" fill="#9CA3AF"/>
</svg>
