<svg width="188" height="46" viewBox="0 0 188 46" fill="none" xmlns="http://www.w3.org/2000/svg">
<g clip-path="url(#clip0_3530_509)">
<path fill-rule="evenodd" clip-rule="evenodd" d="M11.394 45.576H9.115L0 34.752V33.612L9.115 23.358H11.394L2.279 34.182L11.394 45.576ZM12.534 45.576L21.648 34.182L12.533 23.358H14.813L23.927 33.612V34.752L14.812 45.576H12.533H12.534ZM11.394 22.218H9.115L0 11.394V10.254L9.115 0H11.394L2.279 10.824L11.394 22.218ZM12.534 22.218L21.648 10.824L12.533 0H14.813L23.927 10.255V11.394L14.812 22.218H12.533H12.534ZM24.497 33.612L33.612 22.218L24.497 11.394H26.776L35.891 21.648V22.788L26.776 33.612H24.497ZM43.297 15.952H45.007V21.648H55.26V23.358H45.006V27.915C45.066 30.56 45.129 31.332 45.576 31.903C46.142 32.594 47.51 33.043 49.596 33.043C51.534 33.043 54.691 33.043 54.691 31.903C54.691 31.333 54.794 31.333 54.794 31.333H56.97V31.903C56.97 32.51 56.97 32.473 55.83 33.613C54.69 34.752 52.19 34.752 49.596 34.752C45.576 34.752 44.672 33.585 43.866 32.472C43.27 31.632 43.297 30.648 43.297 28.454L43.277 23.358H41.587V21.648H43.297V15.952ZM74.63 30.194H76.31C76.34 33.6 73.944 34.752 68.364 34.752C63.793 34.752 61.974 34.435 60.757 33.6C59.361 32.65 58.679 30.808 58.679 27.958C58.679 24.792 59.451 22.921 61.113 21.971C62.27 21.309 63.873 21.079 67.286 21.079C72.006 21.079 73.698 21.482 74.944 22.863C75.984 24.015 76.25 24.749 76.31 27.915H60.388C60.388 30.764 60.875 31.251 61.528 31.903C62.667 33.043 64.268 33.043 68.364 33.043C71.48 33.043 73.348 32.68 74.061 31.903C74.417 31.558 74.541 31.057 74.631 30.193L74.63 30.194ZM60.415 26.206H74.63C74.63 23.927 72.931 22.788 67.171 22.788C62.051 22.788 60.415 23.928 60.415 26.206ZM94.57 29.624H96.279C96.249 31.409 95.959 32.236 95.139 33.042C94.047 34.136 92.861 34.752 88.303 34.752C83.449 34.752 81.925 34.464 80.681 33.572C79.286 32.592 78.618 30.75 78.618 27.93C78.618 24.82 79.407 22.95 81.076 22C82.289 21.338 83.988 21.079 87.416 21.079C91.906 21.079 93.818 21.453 94.94 22.576C95.76 23.353 96.154 24.479 96.245 26.206H94.57C94.57 23.358 92.29 22.788 87.733 22.788C85.003 22.788 83.456 22.811 82.606 23.358C81.605 23.991 80.327 25.483 80.327 27.93C80.327 30.261 81.393 31.897 82.607 32.473C83.456 32.904 85.3 33.043 88.303 33.043C92.853 33.043 94.479 32.243 94.57 29.624ZM99.127 15.952H100.837V23.408C101.755 21.69 103.769 21.078 108.242 21.078C112.005 21.078 113.37 22.218 113.939 22.788C114.858 23.736 115.649 24.087 115.649 27.345V34.752H113.939V27.915C113.939 25.071 113.762 25.067 113.109 24.267C112.429 23.407 111.175 22.787 108.242 22.787C104.925 22.787 102.894 23.43 101.976 24.497C101.236 25.327 100.836 25.475 100.836 28.082V34.752H99.127V15.952ZM120.207 15.952H121.915V34.752H120.206L120.207 15.952ZM133.341 21.079C137.403 21.079 139.056 21.272 140.149 21.934C141.774 22.899 142.474 24.582 142.474 27.617C142.474 30.623 141.802 32.334 140.289 33.272C139.169 33.962 137.683 34.182 134.265 34.182C130.595 34.182 128.97 33.962 127.821 33.354C126.084 32.444 125.383 30.761 125.383 27.561C125.383 24.61 126.14 22.817 127.765 21.906C128.83 21.299 130.315 21.079 133.341 21.079ZM133.638 22.788C130.717 22.788 129.391 22.983 128.548 23.486C127.494 24.1 127.042 25.384 127.042 27.7C127.042 30.296 127.615 31.468 129.12 32.026C130.054 32.333 131.44 32.473 134.06 32.473C137.192 32.473 138.456 32.277 139.36 31.691C140.324 31.049 140.715 29.877 140.715 27.561C140.715 25.104 140.203 23.932 138.908 23.346C138.035 22.956 136.498 22.788 133.638 22.788ZM160.655 21.078H162.364V30.764C162.364 36.461 161.794 39.879 153.818 39.879C145.273 39.879 145.298 36.625 145.298 35.321H146.982C147.13 37.336 149.404 38.17 153.818 38.17C160.465 38.17 160.655 34.752 160.655 32.473C160.655 32.473 160.085 34.182 153.818 34.182C150.115 34.182 148.171 33.952 147.105 33.152C145.624 32.056 145.273 30.13 145.273 27.345C145.273 23.358 146.982 21.079 153.818 21.079C160.614 21.079 160.643 22.783 160.643 22.783L160.655 21.079V21.078ZM154.106 22.788C147.552 22.788 146.982 24.557 146.982 27.66C146.982 30.764 146.982 32.473 153.803 32.473C160.655 32.473 160.655 29.813 160.655 27.421C160.655 23.595 159.503 22.788 154.106 22.788ZM166.352 21.078H168.061V34.752H166.351V21.079L166.352 21.078ZM166.352 15.952H168.061V17.661H166.351V15.951L166.352 15.952ZM171.479 21.079H173.758L178.885 26.206L184.582 21.079H186.861L180.024 27.345L188 34.752H185.721L178.885 28.485L172.618 34.752H170.339L177.745 27.345L171.479 21.079Z" fill="#9CA3AF"/>
</g>
<defs>
<clipPath id="clip0_3530_509">
<rect width="188" height="46" fill="white"/>
</clipPath>
</defs>
</svg>
