<svg width="179" height="58" viewBox="0 0 179 58" fill="none" xmlns="http://www.w3.org/2000/svg">
<g clip-path="url(#clip0_3530_515)">
<path fill-rule="evenodd" clip-rule="evenodd" d="M134.128 48.39V45.81L131.882 42.26H133.333L134.776 44.685L136.19 42.259H137.616L135.362 45.819V48.39H134.128ZM137.637 45.362C137.637 44.738 137.73 44.214 137.917 43.79C138.057 43.478 138.247 43.197 138.487 42.95C138.729 42.701 138.993 42.517 139.28 42.397C139.662 42.236 140.103 42.155 140.602 42.155C141.505 42.155 142.228 42.435 142.77 42.995C143.312 43.555 143.584 44.335 143.584 45.333C143.584 46.323 143.314 47.097 142.776 47.656C142.238 48.215 141.519 48.495 140.619 48.495C139.707 48.495 138.982 48.216 138.444 47.66C137.906 47.104 137.637 46.338 137.637 45.362ZM138.912 45.32C138.912 46.015 139.072 46.54 139.393 46.9C139.713 47.257 140.121 47.436 140.614 47.436C141.108 47.436 141.513 47.259 141.829 46.903C142.146 46.548 142.304 46.015 142.304 45.303C142.304 44.601 142.15 44.077 141.842 43.731C141.534 43.386 141.125 43.213 140.614 43.213C140.104 43.213 139.693 43.388 139.381 43.738C139.068 44.088 138.912 44.615 138.912 45.32ZM144.199 42.26H145.436V45.58C145.436 46.107 145.452 46.448 145.482 46.604C145.535 46.855 145.662 47.057 145.861 47.209C146.061 47.361 146.333 47.436 146.679 47.436C147.029 47.436 147.295 47.365 147.473 47.221C147.643 47.0914 147.758 46.9026 147.795 46.692C147.831 46.483 147.849 46.136 147.849 45.651V42.259H149.087V45.479C149.087 46.215 149.054 46.735 148.987 47.039C148.92 47.343 148.797 47.599 148.617 47.809C148.437 48.018 148.197 48.184 147.895 48.309C147.595 48.432 147.201 48.495 146.716 48.495C146.131 48.495 145.686 48.427 145.384 48.292C145.107 48.1754 144.861 47.9948 144.667 47.765C144.501 47.5678 144.382 47.3352 144.32 47.085C144.24 46.734 144.199 46.215 144.199 45.53V42.26ZM154.939 46.136V45.103H157.607V47.545C157.347 47.796 156.972 48.017 156.48 48.208C155.987 48.399 155.49 48.495 154.985 48.495C154.343 48.495 153.785 48.36 153.308 48.091C152.837 47.8287 152.461 47.425 152.233 46.937C151.991 46.4269 151.868 45.8686 151.873 45.304C151.873 44.665 152.007 44.098 152.275 43.602C152.539 43.1087 152.949 42.7095 153.45 42.46C153.843 42.256 154.332 42.155 154.918 42.155C155.678 42.155 156.273 42.315 156.701 42.634C157.129 42.953 157.404 43.394 157.527 43.957L156.297 44.187C156.221 43.9007 156.049 43.6491 155.81 43.474C155.572 43.3 155.274 43.213 154.918 43.213C154.377 43.213 153.947 43.384 153.628 43.727C153.308 44.07 153.148 44.579 153.148 45.254C153.148 45.981 153.31 46.527 153.634 46.891C153.957 47.255 154.381 47.436 154.905 47.436C155.165 47.436 155.425 47.386 155.685 47.284C155.945 47.182 156.169 47.059 156.356 46.914V46.136H154.939ZM158.155 45.362C158.155 44.738 158.248 44.214 158.435 43.79C158.575 43.478 158.765 43.197 159.005 42.95C159.247 42.701 159.511 42.517 159.798 42.397C160.18 42.236 160.621 42.155 161.12 42.155C162.023 42.155 162.746 42.435 163.288 42.995C163.83 43.555 164.101 44.335 164.101 45.333C164.101 46.323 163.832 47.097 163.294 47.656C162.756 48.215 162.037 48.495 161.136 48.495C160.225 48.495 159.5 48.216 158.962 47.66C158.424 47.104 158.155 46.338 158.155 45.362ZM159.43 45.32C159.43 46.015 159.59 46.54 159.911 46.9C160.231 47.257 160.639 47.436 161.132 47.436C161.626 47.436 162.031 47.259 162.347 46.903C162.664 46.548 162.822 46.015 162.822 45.303C162.822 44.601 162.668 44.077 162.36 43.731C162.052 43.386 161.642 43.213 161.132 43.213C160.622 43.213 160.211 43.388 159.899 43.738C159.586 44.088 159.43 44.615 159.43 45.32ZM166.105 48.39V43.296H164.285V42.26H169.158V43.297H167.343V48.391L166.105 48.39ZM171.613 48.39V42.26H172.851V48.39H171.613ZM169.579 26.228C168.879 25.275 167.607 24.409 165.297 24.409C160.157 24.409 160.157 28.691 160.157 28.691V38.97H161.871V29.549C161.871 29.549 161.871 26.123 165.297 26.123C168.722 26.123 168.722 29.549 168.722 29.549V38.969H170.435V29.549C170.435 29.549 170.435 26.123 173.861 26.123C177.287 26.123 177.287 29.549 177.287 29.549V38.969H179V28.692C179 28.692 179 24.41 173.861 24.41C171.551 24.41 170.279 25.276 169.579 26.23V26.228ZM175.068 48.39V43.296H173.248V42.26H178.121V43.297H176.306V48.391L175.068 48.39ZM53.1 25.266H54.813V21.84H57.383V25.266H59.953V26.978H57.383V32.974C57.383 32.974 57.383 34.687 58.239 35.544C59.096 36.4 60.809 36.4 60.809 36.4V38.969C60.809 38.969 58.239 38.969 56.526 37.256C54.813 35.543 54.813 32.974 54.813 32.974V26.978H53.1V25.266ZM75.368 32.974H64.234C64.234 32.974 65.091 36.4 68.517 36.4C71.943 36.4 72.799 34.687 72.799 34.687L74.512 36.4C74.512 36.4 72.799 38.969 68.517 38.969C62.093 38.969 61.665 32.974 61.665 32.974V30.404C61.665 27.834 63.572 24.409 68.517 24.409C75.368 24.409 75.368 30.404 75.368 30.404V32.974ZM64.234 30.404H72.8C72.8 30.404 72.372 26.978 68.518 26.978C64.664 26.978 64.234 30.404 64.234 30.404ZM88.093 34.687L89.928 36.4C89.928 36.4 88.093 38.969 84.422 38.969C81.67 38.969 77.082 37.256 77.082 31.689C77.082 26.122 81.67 24.409 84.422 24.409C88.093 24.409 89.928 26.979 89.928 26.979L88.093 28.691C88.093 28.691 87.175 26.978 84.423 26.978C81.67 26.978 79.834 28.691 79.834 31.689C79.834 34.687 81.67 36.399 84.422 36.399C87.175 36.399 88.093 34.687 88.093 34.687ZM143.457 35.115L144.742 36.4C144.742 36.4 142.906 38.969 139.236 38.969C136.483 38.969 131.895 37.256 131.895 31.689C131.895 26.122 136.483 24.409 139.235 24.409C142.906 24.409 144.742 26.979 144.742 26.979L143.457 28.263C143.457 28.263 141.989 26.122 139.236 26.122C136.483 26.122 133.608 28.692 133.608 31.689C133.608 34.687 136.483 37.256 139.236 37.256C141.989 37.256 143.456 35.115 143.456 35.115H143.457ZM90.785 18.414H93.355V25.266C93.355 25.266 94.211 24.409 96.78 24.409C101.919 24.409 101.919 28.691 101.919 28.691V38.97H99.349V29.549C99.349 29.549 99.349 26.979 96.779 26.979C93.354 26.979 93.354 29.549 93.354 29.549V38.969H90.784V18.415L90.785 18.414ZM103.632 28.691C103.632 28.691 103.632 24.409 109.199 24.409C114.766 24.409 114.766 28.691 114.766 28.691V38.97H112.196V29.549C112.196 29.549 112.196 26.979 109.199 26.979C106.201 26.979 106.201 29.549 106.201 29.549V38.969H103.631V28.692L103.632 28.691ZM123.758 38.969C122.802 38.969 121.855 38.7807 120.972 38.4148C120.089 38.049 119.286 37.5127 118.61 36.8367C117.934 36.1607 117.398 35.3582 117.032 34.4749C116.666 33.5917 116.478 32.645 116.478 31.689C116.478 30.733 116.666 29.7863 117.032 28.9031C117.398 28.0198 117.934 27.2173 118.61 26.5413C119.286 25.8653 120.089 25.329 120.972 24.9632C121.855 24.5973 122.802 24.409 123.758 24.409C125.689 24.409 127.54 25.176 128.906 26.5413C130.271 27.9065 131.038 29.7582 131.038 31.689C131.038 33.6198 130.271 35.4715 128.906 36.8367C127.54 38.202 125.689 38.969 123.758 38.969ZM123.758 36.399C125.007 36.399 126.205 35.9028 127.088 35.0195C127.972 34.1362 128.468 32.9382 128.468 31.689C128.468 30.4398 127.972 29.2418 127.088 28.3585C126.205 27.4752 125.007 26.979 123.758 26.979C122.509 26.979 121.311 27.4752 120.428 28.3585C119.544 29.2418 119.048 30.4398 119.048 31.689C119.048 32.9382 119.544 34.1362 120.428 35.0195C121.311 35.9028 122.509 36.399 123.758 36.399ZM152.022 38.969C151.066 38.969 150.119 38.7807 149.236 38.4148C148.353 38.049 147.55 37.5127 146.874 36.8367C146.198 36.1607 145.662 35.3582 145.296 34.4749C144.93 33.5917 144.742 32.645 144.742 31.689C144.742 30.733 144.93 29.7863 145.296 28.9031C145.662 28.0198 146.198 27.2173 146.874 26.5413C147.55 25.8653 148.353 25.329 149.236 24.9632C150.119 24.5973 151.066 24.409 152.022 24.409C153.953 24.409 155.804 25.176 157.17 26.5413C158.535 27.9065 159.302 29.7582 159.302 31.689C159.302 33.6198 158.535 35.4715 157.17 36.8367C155.804 38.202 153.953 38.969 152.022 38.969ZM152.022 37.256C153.498 37.256 154.914 36.6695 155.958 35.6255C157.002 34.5814 157.589 33.1655 157.589 31.689C157.589 30.2125 157.002 28.7966 155.958 27.7525C154.914 26.7085 153.498 26.122 152.022 26.122C150.546 26.122 149.13 26.7085 148.086 27.7525C147.042 28.7966 146.455 30.2125 146.455 31.689C146.455 33.1655 147.042 34.5814 148.086 35.6255C149.13 36.6695 150.546 37.256 152.022 37.256ZM17.129 0L34.259 4.71V22.696C34.259 22.696 34.259 23.553 35.115 24.409C35.971 25.266 36.4 25.266 36.4 25.266L19.27 20.983C19.27 20.983 17.986 20.555 17.557 19.699C17.129 18.842 17.129 17.557 17.129 17.557V0ZM34.687 9.85L50.531 14.132L37.684 24.409C37.684 24.409 36.887 24.714 35.971 24.409C34.687 23.981 34.687 22.696 34.687 22.696V9.85ZM0 33.83L12.847 23.553C12.847 23.553 14.56 22.268 16.273 22.268C17.986 22.268 19.699 22.696 19.699 22.696L32.545 26.122L17.985 38.112L0 33.83ZM17.986 38.54L30.833 27.835C30.833 27.835 32.091 26.651 33.402 26.978C35.115 27.407 35.115 29.548 35.115 29.548V44.964L17.985 41.11L17.986 38.54ZM17.986 43.251L35.115 47.533V54.385C35.115 54.385 35.115 55.242 35.971 56.098C36.828 56.955 38.541 56.955 38.541 56.955C38.541 56.955 37.256 57.383 35.115 57.383C34.258 57.383 32.545 56.955 32.545 56.955L21.411 54.385C21.411 54.385 19.699 53.957 18.842 53.1C18.414 52.672 17.986 51.816 17.986 50.103V43.251ZM52.244 39.825L41.11 55.242C41.11 55.242 39.825 56.526 38.112 56.526C35.543 56.526 35.543 54.386 35.543 54.386V47.106L28.263 45.392V43.68L35.543 45.393V35.544L52.244 39.825Z" fill="#9CA3AF"/>
</g>
<defs>
<clipPath id="clip0_3530_515">
<rect width="179" height="58" fill="white"/>
</clipPath>
</defs>
</svg>
