<svg width="140" height="34" viewBox="0 0 140 34" fill="none" xmlns="http://www.w3.org/2000/svg">
<g clip-path="url(#clip0_3530_551)">
<path d="M36.785 11.9702H50.958V14.5672H45.386V29.1692H42.32V14.5672H36.772V11.9692H36.784L36.785 11.9702ZM50.353 16.7152H52.973V19.1192H53.022C53.109 18.7792 53.269 18.4512 53.504 18.1362C54.0065 17.459 54.6866 16.9339 55.469 16.6192C55.8663 16.4615 56.2895 16.3787 56.717 16.3752C57.037 16.3752 57.273 16.3882 57.397 16.4002C57.52 16.4122 57.643 16.4362 57.779 16.4482V19.0942C57.5783 19.0591 57.3765 19.0308 57.174 19.0092C56.9728 18.9855 56.7705 18.9735 56.568 18.9732C56.098 18.9732 55.654 19.0702 55.234 19.2532C54.814 19.4342 54.455 19.7132 54.147 20.0662C53.8183 20.4609 53.5667 20.9138 53.405 21.4012C53.22 21.9352 53.133 22.5412 53.133 23.2342V29.1572H50.341V16.7152H50.353ZM70.618 29.1702H67.875V27.4352H67.825C67.479 28.0652 66.973 28.5632 66.293 28.9402C65.613 29.3162 64.921 29.5102 64.217 29.5102C62.549 29.5102 61.337 29.1102 60.597 28.2972C59.855 27.4832 59.484 26.2572 59.484 24.6182V16.7162H62.277V24.3512C62.277 25.4442 62.487 26.2212 62.92 26.6702C63.34 27.1192 63.945 27.3502 64.711 27.3502C65.304 27.3502 65.786 27.2652 66.181 27.0822C66.577 26.9012 66.898 26.6702 67.133 26.3662C67.38 26.0752 67.553 25.7112 67.665 25.2982C67.775 24.8852 67.825 24.4372 67.825 23.9512V16.7282H70.618V29.1702ZM75.375 25.1772C75.462 25.9772 75.77 26.5372 76.302 26.8642C76.845 27.1802 77.488 27.3502 78.242 27.3502C78.502 27.3502 78.798 27.3252 79.132 27.2892C79.465 27.2532 79.786 27.1682 80.071 27.0592C80.367 26.9492 80.601 26.7792 80.799 26.5612C80.985 26.3422 81.071 26.0632 81.059 25.7112C81.0574 25.5479 81.0214 25.3867 80.9533 25.2382C80.8853 25.0896 80.7867 24.9571 80.664 24.8492C80.416 24.6192 80.108 24.4492 79.724 24.3032C79.2962 24.155 78.8584 24.0374 78.414 23.9512C77.92 23.8542 77.426 23.7452 76.92 23.6352C76.4102 23.5249 75.9068 23.3871 75.412 23.2222C74.9479 23.0735 74.5102 22.8524 74.115 22.5672C73.7299 22.2985 73.4159 21.9402 73.2 21.5232C72.966 21.0982 72.854 20.5762 72.854 19.9452C72.854 19.2652 73.027 18.7072 73.361 18.2452C73.6979 17.7871 74.1328 17.41 74.634 17.1412C75.1726 16.8565 75.7516 16.6558 76.351 16.5462C76.981 16.4372 77.587 16.3762 78.155 16.3762C78.81 16.3762 79.44 16.4492 80.034 16.5832C80.6091 16.7067 81.1573 16.933 81.652 17.2512C82.134 17.5542 82.529 17.9552 82.851 18.4412C83.172 18.9262 83.37 19.5212 83.456 20.2122H80.54C80.404 19.5572 80.107 19.1082 79.626 18.8892C79.144 18.6592 78.588 18.5492 77.97 18.5492C77.772 18.5492 77.537 18.5612 77.266 18.5982C77.0048 18.633 76.7479 18.6939 76.499 18.7802C76.2715 18.864 76.065 18.9964 75.894 19.1682C75.8109 19.2579 75.7464 19.363 75.704 19.4777C75.6616 19.5923 75.6422 19.7141 75.647 19.8362C75.647 20.1762 75.77 20.4432 76.005 20.6492C76.24 20.8562 76.549 21.0252 76.932 21.1712C77.315 21.3052 77.748 21.4262 78.242 21.5232C78.736 21.6202 79.242 21.7302 79.762 21.8392C80.268 21.9482 80.762 22.0942 81.257 22.2512C81.751 22.4092 82.183 22.6282 82.567 22.9072C82.95 23.1872 83.259 23.5262 83.493 23.9392C83.728 24.3512 83.852 24.8732 83.852 25.4802C83.852 26.2202 83.679 26.8402 83.332 27.3622C82.987 27.8722 82.542 28.2962 81.998 28.6122C81.4285 28.9403 80.8115 29.1778 80.169 29.3162C79.5154 29.46 78.8482 29.5331 78.179 29.5342C77.4295 29.5427 76.6821 29.4529 75.956 29.2672C75.276 29.0852 74.683 28.8182 74.189 28.4672C73.7007 28.1125 73.2993 27.6516 73.015 27.1192C72.731 26.5852 72.582 25.9422 72.558 25.2012H75.375V25.1772ZM84.593 16.7172H86.706V12.9772H89.499V16.7172H92.019V18.7672H89.5V25.4202C89.5 25.7102 89.512 25.9542 89.537 26.1722C89.561 26.3792 89.623 26.5612 89.71 26.7062C89.8045 26.8586 89.948 26.9743 90.117 27.0342C90.303 27.1072 90.537 27.1442 90.859 27.1442C91.056 27.1442 91.254 27.1442 91.452 27.1312C91.65 27.1192 91.847 27.0952 92.045 27.0462V29.1702C91.736 29.2072 91.427 29.2312 91.143 29.2682C90.8436 29.3027 90.5423 29.3187 90.241 29.3162C89.5 29.3162 88.907 29.2432 88.461 29.1102C88.017 28.9762 87.658 28.7702 87.411 28.5032C87.151 28.2362 86.991 27.9082 86.892 27.5072C86.7957 27.0563 86.7421 26.5972 86.732 26.1362V18.7902H84.619V16.7142H84.594L84.593 16.7172ZM93.996 16.7172H96.641V18.4032H96.691C97.085 17.6752 97.629 17.1652 98.333 16.8502C99.0526 16.5303 99.8325 16.3687 100.62 16.3762C101.62 16.3762 102.485 16.5462 103.227 16.8982C103.968 17.2382 104.586 17.7122 105.08 18.3182C105.574 18.9262 105.933 19.6292 106.18 20.4312C106.432 21.2655 106.557 22.1328 106.551 23.0042C106.551 23.8422 106.44 24.6542 106.217 25.4322C106.012 26.183 105.673 26.8905 105.216 27.5202C104.767 28.1267 104.183 28.6209 103.511 28.9642C102.819 29.3282 102.016 29.5102 101.077 29.5102C100.667 29.5101 100.257 29.4736 99.853 29.4012C99.45 29.3283 99.0565 29.2102 98.68 29.0492C98.3059 28.8934 97.9561 28.685 97.641 28.4302C97.33 28.1819 97.0592 27.8871 96.838 27.5562H96.788V33.7712H93.996V16.7152V16.7172ZM103.758 22.9552C103.758 22.3972 103.684 21.8512 103.536 21.3172C103.399 20.8118 103.173 20.335 102.868 19.9092C102.579 19.5046 102.203 19.1689 101.769 18.9262C101.302 18.6738 100.779 18.544 100.249 18.5492C99.075 18.5492 98.185 18.9492 97.592 19.7512C96.999 20.5522 96.702 21.6212 96.702 22.9552C96.702 23.5872 96.777 24.1692 96.937 24.7032C97.097 25.2372 97.32 25.6992 97.641 26.0872C97.951 26.4762 98.321 26.7792 98.754 26.9972C99.186 27.2282 99.693 27.3372 100.261 27.3372C100.904 27.3372 101.435 27.2042 101.88 26.9492C102.311 26.7013 102.682 26.3616 102.967 25.9542C103.251 25.5412 103.462 25.0802 103.585 24.5582C103.699 24.0318 103.757 23.4938 103.758 22.9552ZM108.688 11.9702H111.481V14.5682H108.688V11.9702ZM108.688 16.7162H111.481V29.1702H108.688V16.7162ZM113.977 11.9702H116.77V29.1702H113.977V11.9702ZM125.333 29.5102C124.319 29.5102 123.417 29.3402 122.627 29.0132C121.87 28.7026 121.184 28.2397 120.613 27.6532C120.058 27.055 119.632 26.3481 119.364 25.5772C119.07 24.7264 118.924 23.8314 118.932 22.9312C118.932 21.9842 119.08 21.1112 119.364 20.3092C119.633 19.5388 120.058 18.8323 120.613 18.2342C121.156 17.6512 121.836 17.2022 122.627 16.8742C123.417 16.5462 124.319 16.3762 125.333 16.3762C126.346 16.3762 127.248 16.5462 128.039 16.8742C128.796 17.1848 129.482 17.6477 130.053 18.2342C130.608 18.8321 131.033 19.5386 131.301 20.3092C131.585 21.1112 131.733 21.9842 131.733 22.9312C131.733 23.8912 131.585 24.7762 131.301 25.5772C131.033 26.3482 130.608 27.0552 130.053 27.6532C129.509 28.2362 128.83 28.6852 128.039 29.0132C127.248 29.3402 126.346 29.5102 125.333 29.5102ZM125.333 27.3372C125.951 27.3372 126.494 27.2042 126.951 26.9492C127.396 26.7013 127.781 26.3569 128.076 25.9412C128.372 25.5292 128.582 25.0552 128.731 24.5342C128.867 24.0112 128.941 23.4782 128.941 22.9312C128.941 22.3972 128.867 21.8752 128.731 21.3412C128.604 20.8347 128.381 20.3569 128.076 19.9332C127.78 19.5215 127.396 19.1815 126.951 18.9382C126.494 18.6832 125.951 18.5492 125.333 18.5492C124.715 18.5492 124.171 18.6832 123.714 18.9382C123.272 19.1852 122.889 19.5246 122.59 19.9332C122.289 20.3595 122.067 20.8364 121.935 21.3412C121.798 21.8603 121.727 22.3945 121.724 22.9312C121.724 23.4782 121.799 24.0112 121.935 24.5342C122.071 25.0552 122.293 25.5292 122.59 25.9412C122.886 26.3542 123.257 26.6942 123.714 26.9492C124.171 27.2162 124.715 27.3372 125.333 27.3372ZM132.549 16.7172H134.662V12.9772H137.455V16.7172H139.975V18.7672H137.455V25.4202C137.455 25.7102 137.467 25.9542 137.491 26.1722C137.516 26.3792 137.578 26.5612 137.665 26.7062C137.759 26.8587 137.903 26.9745 138.072 27.0342C138.258 27.1072 138.492 27.1442 138.814 27.1442C139.011 27.1442 139.209 27.1442 139.407 27.1312C139.605 27.1192 139.802 27.0952 140 27.0462V29.1702C139.691 29.2072 139.382 29.2312 139.098 29.2682C138.799 29.3027 138.497 29.3187 138.196 29.3162C137.455 29.3162 136.861 29.2432 136.416 29.1102C135.972 28.9762 135.613 28.7702 135.366 28.5032C135.107 28.2362 134.946 27.9082 134.847 27.5072C134.751 27.0562 134.697 26.5972 134.687 26.1362V18.7902H132.574V16.7142H132.549V16.7172Z" fill="#1C1C1C"/>
<path d="M33.523 11.969H20.722L16.768 0L12.8 11.97L0 11.957L10.367 19.361L6.401 31.317L16.768 23.925L27.123 31.317L23.169 19.361L33.523 11.969Z" fill="#00B67A"/>
<path d="M24.0581 22.0688L23.1681 19.3618L16.7681 23.9258L24.0581 22.0688Z" fill="#005128"/>
</g>
<defs>
<clipPath id="clip0_3530_551">
<rect width="140" height="34" fill="white"/>
</clipPath>
</defs>
</svg>
