<svg width="164" height="40" viewBox="0 0 164 40" fill="none" xmlns="http://www.w3.org/2000/svg">
<g clip-path="url(#clip0_708_10448)">
<g clip-path="url(#clip1_708_10448)">
<path d="M42.8656 14.1768H59.3812V17.2537H52.8872V34.5506H49.3163V17.2537H42.8512V14.1768H42.8656ZM58.6756 19.7986H61.7282V22.6455H61.7858C61.8866 22.2429 62.0738 21.8547 62.3473 21.4809C62.6209 21.107 62.9521 20.7476 63.3409 20.4456C63.7296 20.1293 64.1616 19.8849 64.6368 19.6836C65.1119 19.4967 65.6015 19.396 66.0911 19.396C66.4654 19.396 66.739 19.4104 66.883 19.4248C67.027 19.4392 67.171 19.4679 67.3294 19.4823V22.6167C67.099 22.5736 66.8686 22.5448 66.6238 22.5161C66.3791 22.4873 66.1487 22.4729 65.9183 22.4729C65.3711 22.4729 64.8528 22.588 64.3632 22.8036C63.8736 23.0193 63.4561 23.35 63.0961 23.767C62.7361 24.1983 62.4481 24.7159 62.2322 25.3486C62.0162 25.9812 61.9154 26.7001 61.9154 27.5197V34.5362H58.6612V19.7986H58.6756ZM82.2899 34.5506H79.0933V32.4945H79.0357C78.6325 33.2422 78.0422 33.8317 77.2502 34.2774C76.4583 34.7231 75.652 34.9532 74.8312 34.9532C72.8874 34.9532 71.4763 34.4787 70.6123 33.5154C69.7484 32.552 69.3164 31.0998 69.3164 29.1588V19.7986H72.5706V28.8425C72.5706 30.1365 72.8154 31.0567 73.3193 31.5887C73.8089 32.1207 74.5144 32.3939 75.4072 32.3939C76.0983 32.3939 76.6599 32.2932 77.1207 32.0775C77.5814 31.8619 77.9558 31.5887 78.2294 31.2292C78.5173 30.8842 78.7189 30.4528 78.8485 29.964C78.9781 29.4751 79.0357 28.9431 79.0357 28.368V19.813H82.2899V34.5506ZM87.8335 29.8202C87.9343 30.7691 88.2942 31.4305 88.9134 31.8187C89.5469 32.1926 90.2957 32.3939 91.174 32.3939C91.4764 32.3939 91.822 32.3651 92.2107 32.322C92.5995 32.2788 92.9739 32.1782 93.3051 32.0488C93.6506 31.9194 93.9242 31.7181 94.1546 31.4593C94.3706 31.2005 94.4714 30.8698 94.457 30.4528C94.4426 30.0359 94.2842 29.6908 93.9962 29.432C93.7082 29.1588 93.3483 28.9575 92.9019 28.785C92.4555 28.6268 91.9516 28.483 91.3756 28.368C90.7996 28.253 90.2237 28.1236 89.6333 27.9942C89.0286 27.8648 88.4382 27.6922 87.8767 27.5053C87.3151 27.3184 86.8111 27.0596 86.3648 26.7289C85.9184 26.4126 85.5584 25.9956 85.2993 25.4924C85.0257 24.9891 84.8961 24.3709 84.8961 23.6232C84.8961 22.818 85.0977 22.1566 85.4864 21.6103C85.8752 21.0639 86.3792 20.6325 86.9695 20.3018C87.5743 19.9712 88.2366 19.7411 88.971 19.5973C89.7053 19.4679 90.4109 19.396 91.0732 19.396C91.8364 19.396 92.5707 19.4823 93.2619 19.6405C93.953 19.7986 94.5866 20.0574 95.1481 20.4313C95.7097 20.7907 96.1704 21.2652 96.5448 21.8403C96.9192 22.4154 97.1496 23.12 97.2504 23.9395H93.8522C93.6938 23.1631 93.3483 22.6311 92.7867 22.3723C92.2251 22.0991 91.5772 21.9697 90.8572 21.9697C90.6269 21.9697 90.3533 21.9841 90.0365 22.0272C89.7197 22.0704 89.4317 22.1423 89.1438 22.2429C88.8702 22.3435 88.6398 22.5017 88.4382 22.703C88.251 22.9043 88.1502 23.1631 88.1502 23.4938C88.1502 23.8964 88.2942 24.2127 88.5678 24.4571C88.8414 24.7016 89.2014 24.9029 89.6477 25.0754C90.0941 25.2336 90.5981 25.3773 91.174 25.4924C91.75 25.6074 92.3403 25.7368 92.9451 25.8662C93.5354 25.9956 94.1114 26.1681 94.6873 26.355C95.2633 26.542 95.7673 26.8008 96.2136 27.1315C96.66 27.4622 97.02 27.8648 97.2936 28.3536C97.5671 28.8425 97.7111 29.4607 97.7111 30.1796C97.7111 31.0567 97.5095 31.79 97.1064 32.4082C96.7032 33.0121 96.1848 33.5154 95.5513 33.8892C94.9177 34.263 94.1978 34.5506 93.4202 34.7231C92.6427 34.8957 91.8652 34.9819 91.102 34.9819C90.1661 34.9819 89.3022 34.8813 88.5102 34.6656C87.7183 34.4499 87.0271 34.1336 86.4512 33.7167C85.8752 33.2853 85.4144 32.7533 85.0833 32.1207C84.7521 31.488 84.5793 30.726 84.5505 29.8489H87.8335V29.8202ZM98.5751 19.7986H101.037V15.3701H104.291V19.7986H107.229V22.2285H104.291V30.1077C104.291 30.4528 104.306 30.7404 104.335 30.9992C104.363 31.2436 104.435 31.4593 104.536 31.6318C104.637 31.8044 104.795 31.9338 105.011 32.02C105.227 32.1063 105.501 32.1494 105.875 32.1494C106.106 32.1494 106.336 32.1494 106.566 32.1351C106.797 32.1207 107.027 32.0919 107.258 32.0344V34.5506C106.898 34.5937 106.538 34.6225 106.206 34.6656C105.861 34.7087 105.515 34.7231 105.155 34.7231C104.291 34.7231 103.6 34.6369 103.082 34.4787C102.564 34.3205 102.146 34.0761 101.858 33.7598C101.556 33.4435 101.368 33.0553 101.253 32.5808C101.152 32.1063 101.08 31.5599 101.066 30.9561V22.2573H98.6039V19.7986H98.5751ZM109.533 19.7986H112.614V21.7972H112.672C113.132 20.9345 113.766 20.3306 114.587 19.9568C115.407 19.5829 116.286 19.396 117.25 19.396C118.417 19.396 119.425 19.5973 120.289 20.0143C121.153 20.4169 121.873 20.9776 122.449 21.6965C123.024 22.4154 123.442 23.2494 123.73 24.1983C124.018 25.1473 124.162 26.1681 124.162 27.2465C124.162 28.2386 124.032 29.2019 123.773 30.1221C123.514 31.0567 123.125 31.8763 122.607 32.5952C122.089 33.3141 121.426 33.8748 120.62 34.3062C119.813 34.7375 118.878 34.9532 117.783 34.9532C117.308 34.9532 116.833 34.91 116.358 34.8238C115.883 34.7375 115.422 34.5937 114.99 34.4068C114.558 34.2199 114.14 33.9755 113.78 33.6735C113.406 33.3716 113.104 33.0265 112.844 32.6383H112.787V39.9999H109.533V19.7986ZM120.908 27.189C120.908 26.5276 120.821 25.8806 120.649 25.2479C120.476 24.6153 120.217 24.0689 119.871 23.5801C119.526 23.0912 119.094 22.703 118.59 22.4154C118.071 22.1279 117.481 21.9697 116.819 21.9697C115.451 21.9697 114.414 22.4442 113.723 23.3931C113.032 24.3421 112.686 25.6074 112.686 27.189C112.686 27.9366 112.772 28.6268 112.96 29.2594C113.147 29.8921 113.406 30.4384 113.78 30.8985C114.14 31.3586 114.572 31.7181 115.076 31.9769C115.58 32.2501 116.171 32.3795 116.833 32.3795C117.582 32.3795 118.201 32.2213 118.719 31.9194C119.238 31.6174 119.655 31.2149 119.986 30.7404C120.317 30.2515 120.562 29.7052 120.706 29.0869C120.836 28.4686 120.908 27.836 120.908 27.189ZM126.653 14.1768H129.907V17.2537H126.653V14.1768ZM126.653 19.7986H129.907V34.5506H126.653V19.7986ZM132.816 14.1768H136.07V34.5506H132.816V14.1768ZM146.048 34.9532C144.868 34.9532 143.817 34.7519 142.895 34.3637C141.973 33.9755 141.196 33.4291 140.548 32.7533C139.914 32.0632 139.425 31.2436 139.094 30.2947C138.762 29.3457 138.59 28.2961 138.59 27.1602C138.59 26.0387 138.762 25.0035 139.094 24.0545C139.425 23.1056 139.914 22.286 140.548 21.5959C141.182 20.9057 141.973 20.3737 142.895 19.9855C143.817 19.5973 144.868 19.396 146.048 19.396C147.229 19.396 148.28 19.5973 149.202 19.9855C150.123 20.3737 150.901 20.9201 151.549 21.5959C152.182 22.286 152.672 23.1056 153.003 24.0545C153.334 25.0035 153.507 26.0387 153.507 27.1602C153.507 28.2961 153.334 29.3457 153.003 30.2947C152.672 31.2436 152.182 32.0632 151.549 32.7533C150.915 33.4435 150.123 33.9755 149.202 34.3637C148.28 34.7519 147.229 34.9532 146.048 34.9532ZM146.048 32.3795C146.768 32.3795 147.402 32.2213 147.935 31.9194C148.467 31.6174 148.899 31.2149 149.245 30.726C149.59 30.2371 149.835 29.6764 150.008 29.0581C150.166 28.4399 150.253 27.8072 150.253 27.1602C150.253 26.5276 150.166 25.9093 150.008 25.2767C149.85 24.644 149.59 24.0977 149.245 23.6088C148.899 23.12 148.467 22.7318 147.935 22.4298C147.402 22.1279 146.768 21.9697 146.048 21.9697C145.328 21.9697 144.695 22.1279 144.162 22.4298C143.629 22.7318 143.197 23.1343 142.852 23.6088C142.506 24.0977 142.261 24.644 142.089 25.2767C141.93 25.9093 141.844 26.5276 141.844 27.1602C141.844 27.8072 141.93 28.4399 142.089 29.0581C142.247 29.6764 142.506 30.2371 142.852 30.726C143.197 31.2149 143.629 31.6174 144.162 31.9194C144.695 32.2357 145.328 32.3795 146.048 32.3795ZM154.457 19.7986H156.92V15.3701H160.174V19.7986H163.111V22.2285H160.174V30.1077C160.174 30.4528 160.188 30.7404 160.217 30.9992C160.246 31.2436 160.318 31.4593 160.418 31.6318C160.519 31.8044 160.678 31.9338 160.894 32.02C161.11 32.1063 161.383 32.1494 161.758 32.1494C161.988 32.1494 162.218 32.1494 162.449 32.1351C162.679 32.1207 162.909 32.0919 163.14 32.0344V34.5506C162.78 34.5937 162.42 34.6225 162.089 34.6656C161.743 34.7087 161.398 34.7231 161.038 34.7231C160.174 34.7231 159.483 34.6369 158.964 34.4787C158.446 34.3205 158.028 34.0761 157.74 33.7598C157.438 33.4435 157.251 33.0553 157.136 32.5808C157.035 32.1063 156.963 31.5599 156.948 30.9561V22.2573H154.486V19.7986H154.457Z" fill="white"/>
<path d="M39.0643 14.1768H24.147L19.5394 0L14.9173 14.1768L0 14.1625L12.0807 22.9331L7.45865 37.0956L19.5394 28.3393L31.6057 37.0956L26.998 22.9331L39.0643 14.1768Z" fill="#00B67A"/>
<path d="M28.0347 26.1399L26.998 22.9336L19.5394 28.3398L28.0347 26.1399Z" fill="#005128"/>
</g>
</g>
<defs>
<clipPath id="clip0_708_10448">
<rect width="163.111" height="40" fill="white"/>
</clipPath>
<clipPath id="clip1_708_10448">
<rect width="163.111" height="40" fill="white"/>
</clipPath>
</defs>
</svg>
