<svg width="120" height="32" viewBox="0 0 120 32" fill="none" xmlns="http://www.w3.org/2000/svg">
<path d="M59.026 1.4502H60.5468L63.0104 11.5212L65.586 0.4184H67.865L64.7619 13.576H61.2855L59.026 4.4839L56.7665 13.576H53.2901L50.187 0.4184H52.4661L55.0416 11.5212L57.5052 1.4502H59.026ZM117.617 26.5378L119.924 26.8419C119.565 28.1813 118.893 29.225 117.913 29.9646C116.933 30.7039 115.682 31.0758 114.157 31.0758C112.238 31.0758 110.717 30.4842 109.593 29.3013C108.469 28.1224 107.907 26.4618 107.907 24.3279C107.907 22.1222 108.473 20.407 109.61 19.1901C110.747 17.9689 112.221 17.3606 114.034 17.3606C115.787 17.3606 117.22 17.9561 118.331 19.1521C119.442 20.3477 120 22.0295 120 24.1969C120 24.3279 119.996 24.5266 119.988 24.7885H110.189C110.273 26.2294 110.754 26.9817 111.488 27.7473C112.22 28.5113 113.136 28.8968 114.23 28.8968C115.046 28.8968 115.742 28.6802 116.318 28.2502C116.896 27.8182 117.279 27.4843 117.617 26.5378ZM110.316 22.9633H117.642C117.545 21.8561 117.26 21.4422 116.802 20.8872C116.094 20.0311 115.175 19.5985 114.047 19.5985C113.024 19.5985 112.165 19.9398 111.469 20.6253C110.775 21.3087 110.392 21.8138 110.316 22.9633ZM103.352 17.7217V13.7923H101.198C101.198 17.3424 100.742 17.7217 98.9663 17.7217V19.6232H101.198V27.9639C101.198 31.2133 105.969 31.1143 107.054 30.0477L106.022 28.3673C105.08 28.8713 103.352 28.7653 103.352 26.7884V19.6232H106.42V17.7217H103.352ZM95.3898 29.2324C94.6627 29.938 93.8582 30.2849 93.1867 30.5766C92.5149 30.868 91.7952 31.0117 91.0233 31.0117C89.7542 31.0117 88.7785 30.6611 88.0957 29.9555C87.4131 29.2539 87.0715 28.3539 87.0715 27.2598C87.0715 26.6174 87.2013 26.0301 87.4576 25.4977C87.7173 24.9654 88.0549 24.5428 88.4704 24.2216C88.8897 23.9007 89.3574 23.6555 89.8804 23.4908C90.2665 23.3766 90.849 23.2669 91.6245 23.1569C93.2051 22.9457 94.3739 22.688 95.12 22.3921C95.1273 22.0879 95.131 21.8935 95.131 21.8133C95.131 20.909 94.9451 20.6987 94.5743 20.3268C94.0731 19.8242 93.3276 19.5745 92.3406 19.5745C91.4168 19.5745 90.7347 19.7615 90.2959 20.1281C89.8551 20.4966 89.5317 20.7188 89.3202 21.6568L87.4054 21.3526C87.5798 20.4189 87.8655 19.6626 88.2663 19.088C88.6671 18.5134 89.246 18.0738 90.0028 17.7611C90.7563 17.4527 91.6356 17.2965 92.63 17.2965C93.617 17.2965 94.4223 17.4275 95.042 17.6937C95.658 17.9598 96.1143 18.2895 96.4038 18.6909C96.6932 19.0923 96.8973 19.5991 97.0158 20.212C97.079 20.5921 97.1124 21.2767 97.1124 22.2611V25.2188C97.1124 28.4362 97.2978 29.0791 98.6125 29.0085L98.5984 30.7328C96.4267 30.7495 95.3898 30.1126 95.3898 29.2324ZM95.131 24.4365C94.3892 24.5447 93.3497 24.7488 91.925 24.9782C91.116 25.108 90.5448 25.2568 90.2106 25.4218C89.8767 25.5865 89.6207 25.8274 89.439 26.1401C89.257 26.457 89.123 26.8096 89.1643 27.1963C89.2057 27.5812 89.3611 27.9242 89.7579 28.3171C90.1551 28.71 90.7339 28.9087 91.4947 28.9087C92.2479 28.9087 92.9191 28.7222 93.5093 28.3469C94.0952 27.9744 94.5309 27.4639 94.8045 26.8173C95.0168 26.315 95.099 25.9286 95.12 24.9526L95.131 24.4365ZM82.891 26.5378L85.1978 26.8419C84.8387 28.1813 84.1668 29.225 83.1866 29.9646C82.2064 30.7039 80.9558 31.0758 79.4304 31.0758C77.5119 31.0758 75.9909 30.4842 74.8669 29.3013C73.743 28.1224 73.1811 26.4618 73.1811 24.3279C73.1811 22.1222 73.7472 20.407 74.8839 19.1901C76.0206 17.9689 77.4952 17.3606 79.3077 17.3606C81.0612 17.3606 82.4936 17.9561 83.605 19.1521C84.7162 20.3477 85.2741 22.0295 85.2741 24.1969C85.2741 24.3279 85.2698 24.5266 85.2613 24.7885H75.4628C75.5472 26.2294 76.0277 26.9817 76.7619 27.7473C77.4938 28.5113 78.4097 28.8968 79.5041 28.8968C80.3197 28.8968 81.0158 28.6802 81.5913 28.2502C82.1696 27.8182 82.5528 27.4843 82.891 26.5378ZM75.5895 22.9633H82.9162C82.819 21.8561 82.5341 21.4422 82.0754 20.8872C81.3679 20.0311 80.4486 19.5985 79.3204 19.5985C78.298 19.5985 77.4391 19.9398 76.7432 20.6253C76.049 21.3087 75.6657 21.8138 75.5895 22.9633ZM65.3589 17.6262V30.7331H67.5138V24.9019C67.5138 24.0569 67.5983 23.3091 67.7675 22.6583C67.9365 22.0077 68.2069 21.4541 68.5788 20.9977C68.9504 20.5416 69.4405 20.195 70.0491 19.9585C70.6575 19.7219 71.3928 19.6034 72.2548 19.6034V17.3218C69.5919 17.4462 68.1519 18.2283 67.3871 19.3723V17.6262H65.3589ZM106.866 13.6792C107.786 13.6792 108.532 12.9337 108.532 12.0139C108.532 11.094 107.786 10.3482 106.866 10.3482C105.946 10.3482 105.201 11.094 105.201 12.0139C105.201 12.9337 105.946 13.6792 106.866 13.6792ZM56.6344 31.0574C59.5952 31.0574 62.0857 28.9064 62.8148 25.987H60.3234C59.712 27.5988 58.2907 28.7284 56.6344 28.7284C54.4203 28.7284 52.6254 26.709 52.6254 24.2182C52.6254 21.7271 54.4203 19.708 56.6344 19.708C58.2703 19.708 59.6771 20.8101 60.3005 22.3904H62.8001C62.0523 19.5008 59.5754 17.379 56.6344 17.379C53.1016 17.379 50.2374 20.441 50.2374 24.2182C50.2374 27.9954 53.1016 31.0574 56.6344 31.0574ZM99.0125 9.1775L101.319 9.4817C100.96 10.821 100.288 11.8648 99.3082 12.604C98.3279 13.3436 97.0773 13.7152 95.552 13.7152C93.6335 13.7152 92.1124 13.1239 90.9884 11.9407C89.8645 10.7618 89.3027 9.1013 89.3027 6.9676C89.3027 4.762 89.8688 3.0464 91.0055 1.8295C92.1421 0.6083 93.6167 0 95.4292 0C97.1827 0 98.6151 0.5959 99.7266 1.7915C100.838 2.9872 101.396 4.669 101.396 6.8366C101.396 6.9676 101.391 7.166 101.383 7.4282H91.5843C91.6688 8.8688 92.1492 9.6211 92.8834 10.3871C93.6153 11.1507 94.5312 11.5362 95.6257 11.5362C96.4409 11.5362 97.1374 11.3197 97.7128 10.8899C98.2911 10.4579 98.6743 10.1237 99.0125 9.1775ZM91.711 5.6027H99.0377C98.9405 4.4958 98.6556 4.0816 98.197 3.5269C97.4894 2.6706 96.5702 2.238 95.442 2.238C94.4195 2.238 93.5606 2.5793 92.8647 3.2647C92.1705 3.9481 91.7872 4.4536 91.711 5.6027ZM75.9571 13.576V0.4184H77.4391L78.0287 2.2859C79.0251 0.8535 80.4673 0.1395 82.351 0.1395C83.1727 0.1395 83.9245 0.2832 84.6105 0.5661C85.2967 0.8493 85.8124 1.2255 86.1534 1.6861C86.4941 2.1464 86.7348 2.6958 86.8703 3.3296C86.9533 3.7438 86.997 4.4663 86.997 5.4973V13.576H84.6893V5.8323C84.6893 4.9238 84.602 4.2435 84.4225 3.7956C84.2434 3.3478 83.9253 2.9869 83.4698 2.7182C83.0163 2.4506 82.4777 2.3168 81.866 2.3168C80.8869 2.3168 80.0444 2.6181 79.3309 3.221C78.6197 3.8223 78.2645 4.9661 78.2645 6.6479V13.576H75.9571ZM72.4195 0.4184H70.0908V13.576H72.4195V0.4184Z" fill="#9CA3AF"/>
<path fill-rule="evenodd" clip-rule="evenodd" d="M0 0.418457H9.2095V26.4574L18.1809 12.643V0.418457H27.3904V12.6424L36.3621 26.4574V0.418457H45.5716V30.7332H36.3621L27.042 16.3816H18.5296L9.2095 30.7332H0V0.418457ZM38.6908 28.4045H43.2429V2.74716H38.6908V28.4045ZM20.5096 14.0529H25.0617V2.74716H20.5096V14.0529ZM6.8808 28.4045V2.74716H2.3287V28.4045H6.8808Z" fill="#9CA3AF"/>
</svg>
