<svg width="500" height="500" viewBox="0 0 500 500" fill="none" xmlns="http://www.w3.org/2000/svg">
<path d="M336.4 130.267C336.4 85.9366 372.002 50 415.92 50H450V313.733C450 358.063 414.398 394 370.48 394H336.4L306.8 306.8V341.733C306.8 386.063 271.198 422 227.28 422H193.2L163.6 334.8V369.733C163.6 414.063 127.998 450 84.08 450H50V186.267C50 141.937 85.6023 106 129.52 106H163.6V106.067L193.2 191.6V158.267C193.2 113.937 228.802 78 272.72 78H306.8L336.4 163.6V130.267Z" fill="url(#paint0_linear_3530_577)"/>
<path d="M50 186.267C50 141.937 85.6023 106 129.52 106H163.6V369.733C163.6 414.063 127.998 450 84.08 450H50V186.267Z" fill="#4286F4"/>
<path d="M336.4 130.267C336.4 85.9366 372.002 50 415.92 50H450V313.733C450 358.063 414.398 394 370.48 394H336.4V130.267Z" fill="#4286F4"/>
<path d="M193.2 158.267C193.2 113.937 228.802 78 272.72 78H306.8V341.733C306.8 386.063 271.198 422 227.28 422H193.2V158.267Z" fill="#4286F4"/>
<defs>
<linearGradient id="paint0_linear_3530_577" x1="125" y1="125" x2="375" y2="375" gradientUnits="userSpaceOnUse">
<stop stop-color="#4286F4"/>
<stop offset="1" stop-color="#373B44"/>
</linearGradient>
</defs>
</svg>
