<svg width="1635" height="200" viewBox="0 0 1635 200" fill="none" xmlns="http://www.w3.org/2000/svg">
<path d="M143.2 40.1333C143.2 17.9683 161.001 0 182.96 0H200V131.867C200 154.032 182.199 172 160.24 172H143.2L128.4 128.4V145.867C128.4 168.032 110.599 186 88.64 186H71.6L56.8 142.4V159.867C56.8 182.032 38.9989 200 17.04 200H0V68.1333C0 45.9683 17.8012 28 39.76 28H56.8V28.0336L71.6 70.8V54.1333C71.6 31.9683 89.4012 14 111.36 14H128.4L143.2 56.8V40.1333Z" fill="url(#paint0_linear_3445_1722)"/>
<path d="M0 68.1333C0 45.9683 17.8012 28 39.76 28H56.8V159.867C56.8 182.032 38.9989 200 17.04 200H0V68.1333Z" fill="#4286F4"/>
<path d="M143.2 40.1333C143.2 17.9683 161.001 0 182.96 0H200V131.867C200 154.032 182.199 172 160.24 172H143.2V40.1333Z" fill="#4286F4"/>
<path d="M71.6 54.1333C71.6 31.9683 89.4011 14 111.36 14H128.4V145.867C128.4 168.032 110.599 186 88.64 186H71.6V54.1333Z" fill="#4286F4"/>
<path d="M384.706 107.841L376.967 132.868L373.18 143.076H348.319L320 57.9539V54.0024H346.508L355.399 80.8396L361.326 105.207L375.321 59.1064H393.926L407.921 105.207L413.848 80.8396L422.739 54.0024H449.247V57.9539L420.928 143.076H396.066L392.115 132.538L384.706 107.841Z" fill="white"/>
<path d="M550.919 98.6213C550.919 162.01 455.919 161.68 455.919 98.6213C455.919 35.0682 550.919 35.2328 550.919 98.6213ZM481.933 98.6213C481.933 128.422 524.905 128.587 524.905 98.6213C524.905 68.3265 481.933 68.4912 481.933 98.6213Z" fill="white"/>
<path d="M588.952 93.6819V143.076H563.103V54.0024H586.482L587.47 59.9296C593.233 54.4963 599.654 52.1913 606.898 52.1913C610.027 52.1913 613.484 52.6852 616.942 53.5085L616.612 77.876C613.978 77.0527 610.85 76.5588 607.886 76.5588C598.501 76.7234 588.952 81.6628 588.952 93.6819Z" fill="white"/>
<path d="M656.482 89.0718L681.014 54.0024H709.333V55.3196L679.203 98.292L712.297 141.923V143.076H682.002L656.482 108.335V143.076H630.633V27.8238H656.482V89.0718Z" fill="white"/>
<path d="M772.82 24.6955L772.655 45.4408C763.929 43.7944 756.684 45.1115 756.684 54.4963H772.655V75.5709H756.355V143.076H730.506V75.5709H717.17V54.4963H730.835C730.835 29.6349 745.982 20.5794 772.82 24.6955ZM779.241 27.6591H805.584V143.076H779.241V27.6591Z" fill="white"/>
<path d="M912.688 98.6213C912.688 162.01 817.688 161.68 817.688 98.6213C817.688 35.0682 912.688 35.2328 912.688 98.6213ZM843.702 98.6213C843.702 128.422 886.674 128.587 886.674 98.6213C886.674 68.3265 843.702 68.4912 843.702 98.6213Z" fill="white"/>
<path d="M984.278 107.841L976.54 132.868L972.753 143.076H947.892L919.573 57.9539V54.0024H946.081L954.971 80.8396L960.899 105.207L974.893 59.1064H993.498L1007.49 105.207L1013.42 80.8396L1022.31 54.0024H1048.82V57.9539L1020.5 143.076H995.639L991.687 132.538L984.278 107.841Z" fill="white"/>
<path d="M1154.61 94.6698C1154.94 97.3041 1154.77 100.103 1154.28 102.408H1078.87C1078.87 119.861 1095.5 130.398 1108.84 130.398C1119.87 130.398 1130.08 125.623 1135.34 115.58H1151.97C1145.22 135.008 1126.95 144.722 1108.67 144.722C1085.79 144.722 1062.74 129.245 1062.74 98.6213C1062.74 67.9972 1085.46 52.6852 1109 52.6852C1131.06 52.6852 1152.8 66.6801 1154.61 94.6698ZM1079.53 89.0718H1137.65C1134.52 73.1013 1121.84 66.8447 1109 66.8447C1095.99 66.8447 1082.82 73.2659 1079.53 89.0718Z" fill="white"/>
<path d="M1175.87 54.0024H1192.01V65.0336C1198.59 55.4842 1208.14 52.6852 1219.34 52.6852C1246.51 52.6852 1258.03 69.6437 1258.03 95.1637V143.076H1242.06V95.3284C1242.06 78.6992 1237.78 67.3387 1218.85 67.0094C1201.56 66.6801 1192.01 79.0285 1192.01 94.6698V143.076H1175.87V54.0024Z" fill="white"/>
<path d="M1371.87 139.783C1371.87 167.443 1348.16 178.145 1326.1 178.145C1303.71 178.145 1282.8 169.254 1282.8 149.003H1298.77C1298.77 160.363 1314.25 163.985 1325.94 163.821C1340.1 163.656 1355.74 156.906 1355.74 139.783V130.398C1348 140.606 1336.8 142.911 1325.77 142.911C1295.81 142.911 1278.52 122.989 1278.52 98.7859C1278.52 74.2538 1294.98 52.3559 1326.1 52.5206C1337.13 52.5206 1349.32 56.3074 1355.9 65.8569V54.0024H1371.87V139.783ZM1325.61 128.751C1345.69 128.751 1355.74 112.781 1355.74 96.3162C1355.74 80.5103 1346.02 67.174 1326.76 66.6801C1306.34 66.1861 1294.65 82.6507 1294.65 98.7859C1294.82 114.427 1306.01 128.751 1325.61 128.751Z" fill="white"/>
<path d="M1414.08 143.076H1397.94V53.0145H1414.08V143.076ZM1395.97 31.1167C1395.97 43.6297 1416.05 43.6297 1416.05 31.1167C1416.05 18.6036 1395.97 18.9329 1395.97 31.1167Z" fill="white"/>
<path d="M1441.17 54.0024H1457.31V65.0336C1463.89 55.4842 1473.44 52.6852 1484.64 52.6852C1511.8 52.6852 1523.33 69.6437 1523.33 95.1637V143.076H1507.36V95.3284C1507.36 78.6992 1503.08 67.3387 1484.14 67.0094C1466.85 66.6801 1457.31 79.0285 1457.31 94.6698V143.076H1441.17V54.0024Z" fill="white"/>
<path d="M1634.07 94.6698C1634.4 97.3041 1634.24 100.103 1633.74 102.408H1558.34C1558.34 119.861 1574.97 130.398 1588.3 130.398C1599.33 130.398 1609.54 125.623 1614.81 115.58H1631.44C1624.69 135.008 1606.41 144.722 1588.14 144.722C1565.25 144.722 1542.2 129.245 1542.2 98.6213C1542.2 67.9972 1564.92 52.6852 1588.47 52.6852C1610.53 52.6852 1632.26 66.6801 1634.07 94.6698ZM1558.99 89.0718H1617.11C1613.99 73.1013 1601.31 66.8447 1588.47 66.8447C1575.46 66.8447 1562.29 73.2659 1558.99 89.0718Z" fill="white"/>
<defs>
<linearGradient id="paint0_linear_3445_1722" x1="37.5" y1="37.5" x2="162.5" y2="162.5" gradientUnits="userSpaceOnUse">
<stop stop-color="#4286F4"/>
<stop offset="1" stop-color="#373B44"/>
</linearGradient>
</defs>
</svg>
