<svg width="500" height="500" viewBox="0 0 500 500" fill="none" xmlns="http://www.w3.org/2000/svg">
<path fill-rule="evenodd" clip-rule="evenodd" d="M460 143.904C460 193.872 419.493 234.379 369.525 234.379H330.739H72.3749V195.475C72.3749 145.507 112.882 105 162.85 105H460V143.904ZM330.739 234.379L72.375 234.379L169.261 266.95H130.475C80.507 266.95 40 307.457 40 357.425V395.425H337.15C387.118 395.425 427.625 354.918 427.625 304.95V266.95L330.739 234.379Z" fill="url(#paint0_linear_3530_582)"/>
<path fill-rule="evenodd" clip-rule="evenodd" d="M460 143.904C460 193.872 419.493 234.379 369.525 234.379H72.3749V195.475C72.3749 145.507 112.882 105 162.85 105H460V143.904ZM427.625 304.95C427.625 354.918 387.118 395.425 337.15 395.425H40V357.425C40 307.457 80.507 266.95 130.475 266.95H427.625V304.95Z" fill="#4286F4"/>
<defs>
<linearGradient id="paint0_linear_3530_582" x1="380.638" y1="363.306" x2="138.165" y2="180.547" gradientUnits="userSpaceOnUse">
<stop stop-color="#4286F4"/>
<stop offset="1" stop-color="#373B44"/>
</linearGradient>
</defs>
</svg>
